{
copyright = "Copyright (c) 2025 by Vladimir Nikolic. All rights reserved.";
designer = "Vladimir Nikolic";
designerURL = "https://www.coroflot.com/vladimirnikolic";
familyName = Newfancy;
customParameters = (
{
name = glyphOrder;
value = (
.notdef,
uni0000,
uni000D,
space,
exclam,
quotedbl,
numbersign,
dollar,
percent,
ampersand,
quotesingle,
parenleft,
parenright,
asterisk,
plus,
comma,
hyphen,
period,
slash,
zero,
one,
two,
three,
four,
five,
six,
seven,
eight,
nine,
colon,
semicolon,
less,
equal,
greater,
question,
at,
A,
B,
C,
D,
E,
F,
G,
H,
I,
J,
K,
L,
M,
N,
O,
P,
Q,
R,
S,
T,
U,
V,
W,
X,
Y,
Z,
bracketleft,
backslash,
bracketright,
underscore,
a,
b,
c,
d,
e,
f,
g,
h,
i,
j,
k,
l,
m,
n,
o,
p,
q,
r,
s,
t,
u,
v,
w,
x,
y,
z,
braceleft,
bar,
braceright,
asciitilde,
exclamdown,
cent,
sterling,
currency,
yen,
brokenbar,
section,
dieresis,
ordfeminine,
plusminus,
twosuperior,
threesuperior,
acute,
paragraph,
periodcentered,
cedilla,
onesuperior,
ordmasculine,
questiondown,
Agrave,
Aacute,
Acircumflex,
Atilde,
Adieresis,
Aring,
AE,
Ccedilla,
Egrave,
Eacute,
Edieresis,
Igrave,
Iacute,
Icircumflex,
Idieresis,
Eth,
Ntilde,
Ograve,
Oacute,
Ocircumflex,
Otilde,
Odieresis,
multiply,
Oslash,
Ugrave,
Uacute,
Ucircumflex,
Udieresis,
Yacute,
Thorn,
germandbls,
agrave,
aacute,
atilde,
adieresis,
aring,
ae,
ccedilla,
egrave,
eacute,
edieresis,
igrave,
iacute,
icircumflex,
idieresis,
eth,
ntilde,
ograve,
oacute,
ocircumflex,
otilde,
odieresis,
divide,
ugrave,
uacute,
ucircumflex,
udieresis,
yacute,
thorn,
ydieresis,
OE,
oe,
Scaron,
scaron,
Ydieresis,
Zcaron,
uni0237,
circumflex,
caron,
uni02C9,
breve,
ring,
ogonek,
tilde,
hungarumlaut,
gravecomb,
acutecomb,
uni0302,
tildecomb,
uni0304,
uni0306,
uni0307,
endash,
emdash,
quoteleft,
quoteright,
quotedblleft,
quotedblright,
quotedblbase,
bullet,
ellipsis,
perthousand,
Euro,
trademark,
copyright,
guillemotleft,
guilsinglleft,
quotesinglbase,
registered,
degree,
zcaron,
guilsinglright,
guillemotright,
uni00AD,
IJ,
Lslash,
lslash,
Tcaron,

glyphs = (
{
glyphname = exclam;
layers = (
{
layerId = "7D987CB1-A3A8-41AB-9CDC-0258C96D8E25";
paths = (
{
nodes = (
"54 137 LINE",
"173 137 LINE",
"147 17 LINE",
"28 17 LINE"
);
},
{
nodes = (
"172 694 LINE",
"291 694 LINE",
"181 176 LINE",
"62 176 LINE"
);
}
);
width = 170;
}
);
unicode = 0021;
},
{
glyphname = quotedbl;
layers = (
{
layerId = "7D987CB1-A3A8-41AB-9CDC-0258C96D8E25";
paths = (
{
nodes = (
"171 694 LINE",
"289 694 LINE",
"247 495 LINE",
"129 495 LINE"
);
},
{
nodes = (
"314 694 LINE",
"433 694 LINE",
"391 495 LINE",
"272 495 LINE"
);
}
);
width = 302;
}
);
unicode = 0022;
},
{
glyphname = numbersign;
layers = (
{
layerId = "7D987CB1-A3A8-41AB-9CDC-0258C96D8E25";
paths = (
{
nodes = (
"334 451 LINE",
"305 315 LINE",
"389 315 LINE",
"418 451 LINE"
);
},
{
nodes = (
"444 571 LINE",
"470 693 LINE",
"588 693 LINE",
"562 571 LINE",
"674 571 LINE",
"648 451 LINE",
"536 451 LINE",
"507 315 LINE",
"622 315 LINE",
"596 195 LINE",
"481 195 LINE",
"453 65 LINE",
"335 65 LINE",
"363 195 LINE",
"279 195 LINE",
"251 65 LINE",
"133 65 LINE",
"161 195 LINE",
"62 195 LINE",
"88 315 LINE",
"187 315 LINE",
"216 451 LINE",
"114 451 LINE",
"140 571 LINE",
"242 571 LINE",
"268 693 LINE",
"386 693 LINE",
"360 571 LINE"
);
}
);
width = 573;
}
);
unicode = 0023;
},
{
glyphname = dollar;
layers = (
{
layerId = "7D987CB1-A3A8-41AB-9CDC-0258C96D8E25";
paths = (
{
nodes = (
"301 137 LINE",
"313 137 LINE",
"351 186 LINE",
"371 279 LINE",
"350 316 LINE",
"339 316 LINE"
);
},
{
nodes = (
"293 575 LINE",
"256 528 LINE",
"244 472 LINE",
"263 434 LINE",
"269 434 LINE",
"299 575 LINE"
);
},
{
nodes = (
"324 693 LINE",
"339 761 LINE",
"435 761 LINE",
"420 693 LINE",
"489 693 LINE",
"549 564 LINE",
"529 467 LINE",
"411 467 LINE",
"424 528 LINE",
"406 575 LINE",
"395 575 LINE",
"365 434 LINE",
"434 434 LINE",
"497 317 LINE",
"462 152 LINE",
"345 17 LINE",
"275 17 LINE",
"262 -45 LINE",
"168 -45 LINE",
"181 17 LINE",
"116 17 LINE",
"57 152 LINE",
"76 243 LINE",
"195 243 LINE",
"183 186 LINE",
"200 137 LINE",
"206 137 LINE",
"244 316 LINE",
"180 316 LINE",
"116 432 LINE",
"144 564 LINE",
"260 693 LINE"
);
}
);
width = 459;
}
);
unicode = 0024;
},
{
glyphname = percent;
layers = (
{
layerId = "7D987CB1-A3A8-41AB-9CDC-0258C96D8E25";
paths = (
{
nodes = (
"644 112 LINE",
"661 131 LINE",
"692 256 LINE",
"685 274 LINE",
"626 274 LINE",
"610 256 LINE",
"578 131 LINE",
"586 112 LINE"
);
},
{
nodes = (
"261 426 LINE",
"278 445 LINE",
"309 570 LINE",
"302 588 LINE",
"243 588 LINE",
"227 570 LINE",
"195 445 LINE",
"203 426 LINE"
);
},
{
nodes = (
"524 311 LINE",
"604 384 LINE",
"766 384 LINE",
"807 311 LINE",
"748 77 LINE",
"669 0 LINE",
"506 0 LINE",
"466 77 LINE"
);
},
{
nodes = (
"141 620 LINE",
"221 693 LINE",
"383 693 LINE",
"424 620 LINE",
"365 386 LINE",
"286 309 LINE",
"123 309 LINE",
"83 386 LINE"
);
},
{
nodes = (
"315 17 LINE",
"174 17 LINE",
"601 693 LINE",
"742 693 LINE"
);
}
);
width = 750;
}
);
unicode = 0025;
},
{
glyphname = ampersand;
layers = (
{
layerId = "7D987CB1-A3A8-41AB-9CDC-0258C96D8E25";
paths = (
{
nodes = (
"499 258 LINE",
"474 139 LINE",
"410 139 LINE",
"315 17 LINE",
"113 17 LINE",
"54 152 LINE",
"89 317 LINE",
"152 392 LINE",
"121 467 LINE",
"141 564 LINE",
"257 693 LINE",
"486 693 LINE",
"547 568 LINE",
"518 432 LINE",
"406 316 LINE",
"236 316 LINE",
"232 311 OFFCURVE",
"214 293 OFFCURVE",
"200 279 QCURVE",
"180 186 LINE",
"197 137 LINE",
"272 137 LINE",
"367 258 LINE"
);
},
{
nodes = (
"373 434 LINE",
"409 472 LINE",
"421 528 LINE",
"403 575 LINE",
"290 575 LINE",
"253 528 LINE",
"240 467 LINE",
"257 434 LINE"
);
}
);
width = 833;
}
);
unicode = 0026;
},
{
glyphname = quotesingle;
layers = (
{
layerId = "7D987CB1-A3A8-41AB-9CDC-0258C96D8E25";
paths = (
{
nodes = (
"170 694 LINE",
"289 694 LINE",
"247 495 LINE",
"128 495 LINE"
);
}
);
width = 167;
}
);
unicode = 0027;
},
{
glyphname = parenleft;
layers = (
{
layerId = "7D987CB1-A3A8-41AB-9CDC-0258C96D8E25";
paths = (
{
nodes = (
"185 709 LINE",
"305 844 LINE",
"458 844 LINE",
"432 724 LINE",
"337 724 LINE",
"298 675 LINE",
"150 1 LINE",
"166 -42 LINE",
"257 -42 LINE",
"230 -160 LINE",
"83 -160 LINE",
"22 -35 LINE"
);
}
);
width = 195;
}
);
unicode = 0028;
},
{
glyphname = parenright;
layers = (
{
layerId = "7D987CB1-A3A8-41AB-9CDC-0258C96D8E25";
paths = (
{
nodes = (
"151 -25 LINE",
"31 -160 LINE",
"-122 -160 LINE",
"-96 -40 LINE",
"-1 -40 LINE",
"38 9 LINE",
"186 683 LINE",
"170 726 LINE",
"79 726 LINE",
"106 844 LINE",
"253 844 LINE",
"314 719 LINE"
);
}
);
width = 296;
}
);
unicode = 0029;
},
{
glyphname = asterisk;
layers = (
{
layerId = "7D987CB1-A3A8-41AB-9CDC-0258C96D8E25";
paths = (
{
nodes = (
"459 324 LINE",
"356 387 LINE",
"332 257 LINE",
"229 257 LINE",
"251 376 LINE",
"177 337 LINE",
"112 421 LINE",
"215 475 LINE",
"133 527 LINE",
"195 624 LINE",
"287 566 LINE",
"311 693 LINE",
"414 693 LINE",
"391 569 LINE",
"494 624 LINE",
"558 539 LINE",
"436 475 LINE",
"522 421 LINE"
);
}
);
width = 459;
}
);
unicode = 002A;
},
{
glyphname = plus;
layers = (
{
layerId = "7D987CB1-A3A8-41AB-9CDC-0258C96D8E25";
paths = (
{
nodes = (
"252 563 LINE",
"371 563 LINE",
"344 434 LINE",
"469 434 LINE",
"443 314 LINE",
"320 314 LINE",
"292 179 LINE",
"173 179 LINE",
"201 314 LINE",
"79 314 LINE",
"105 434 LINE",
"225 434 LINE"
);
}
);
width = 390;
}
);
unicode = 002B;
},
{
glyphname = comma;
layers = (
{
layerId = "7D987CB1-A3A8-41AB-9CDC-0258C96D8E25";
paths = (
{
nodes = (
"125 -68 LINE",
"6 -68 LINE",
"50 137 LINE",
"169 137 LINE"
);
}
);
width = 167;
}
);
unicode = 002C;
},
{
glyphname = hyphen;
layers = (
{
layerId = "7D987CB1-A3A8-41AB-9CDC-0258C96D8E25";
paths = (
{
nodes = (
"79 314 LINE",
"105 434 LINE",
"387 434 LINE",
"361 314 LINE"
);
}
);
width = 305;
}
);
unicode = 002D;
},
{
glyphname = period;
layers = (
{
layerId = "7D987CB1-A3A8-41AB-9CDC-0258C96D8E25";
paths = (
{
nodes = (
"26 17 LINE",
"52 137 LINE",
"171 137 LINE",
"145 17 LINE"
);
}
);
width = 165;
}
);
unicode = 002E;
},
{
glyphname = slash;
layers = (
{
layerId = "7D987CB1-A3A8-41AB-9CDC-0258C96D8E25";
paths = (
{
nodes = (
"14 17 LINE",
"441 693 LINE",
"582 693 LINE",
"155 17 LINE"
);
}
);
width = 457;
}
);
unicode = 002F;
},
{
glyphname = zero;
layers = (
{
layerId = "7D987CB1-A3A8-41AB-9CDC-0258C96D8E25";
paths = (
{
nodes = (
"263 693 LINE",
"504 693 LINE",
"564 564 LINE",
"477 152 LINE",
"360 17 LINE",
"119 17 LINE",
"59 152 LINE",
"146 564 LINE"
);
},
{
nodes = (
"365 186 LINE",
"438 528 LINE",
"421 575 LINE",
"295 575 LINE",
"259 528 LINE",
"186 186 LINE",
"202 137 LINE",
"328 137 LINE"
);
}
);
width = 472;
}
);
unicode = 0030;
},
{
glyphname = one;
layers = (
{
layerId = "7D987CB1-A3A8-41AB-9CDC-0258C96D8E25";
paths = (
{
nodes = (
"300 186 LINE",
"305 177 OFFCURVE",
"312 145 OFFCURVE",
"318 137 QCURVE",
"415 137 LINE",
"389 17 LINE",
"233 17 LINE",
"174 152 LINE",
"264 575 LINE",
"144 575 LINE",
"169 694 LINE",
"408 694 LINE"
);
}
);
width = 416;
}
);
unicode = 0031;
},
{
glyphname = two;
layers = (
{
layerId = "7D987CB1-A3A8-41AB-9CDC-0258C96D8E25";
paths = (
{
nodes = (
"499 258 LINE",
"474 139 LINE",
"410 139 LINE",
"315 17 LINE",
"113 17 LINE",
"54 152 LINE",
"89 317 LINE",
"202 434 LINE",
"373 434 LINE",
"409 472 LINE",
"421 528 LINE",
"403 575 LINE",
"290 575 LINE",
"253 528 LINE",
"240 467 LINE",
"121 467 LINE",
"141 564 LINE",
"257 693 LINE",
"486 693 LINE",
"547 568 LINE",
"518 432 LINE",
"406 316 LINE",
"236 316 LINE",
"232 311 OFFCURVE",
"223 302 OFFCURVE",
"218 297 QCURVE SMOOTH",
"200 279 LINE",
"180 186 LINE",
"197 137 LINE",
"272 137 LINE",
"367 258 LINE"
);
}
);
width = 457;
}
);
unicode = 0032;
},
{
glyphname = three;
layers = (
{
layerId = "7D987CB1-A3A8-41AB-9CDC-0258C96D8E25";
paths = (
{
nodes = (
"260 693 LINE",
"489 693 LINE",
"549 564 LINE",
"518 415 LINE",
"462 359 LINE",
"470 345 OFFCURVE",
"485 315 OFFCURVE",
"494 302 QCURVE",
"462 152 LINE",
"345 17 LINE",
"116 17 LINE",
"57 152 LINE",
"76 243 LINE",
"195 243 LINE",
"183 186 LINE",
"200 137 LINE",
"313 137 LINE",
"351 186 LINE",
"367 262 LINE",
"347 299 LINE",
"228 299 LINE",
"253 418 LINE",
"372 418 LINE",
"408 455 LINE",
"424 528 LINE",
"406 575 LINE",
"293 575 LINE",
"256 528 LINE",
"243 466 LINE",
"124 466 LINE",
"144 564 LINE"
);
}
);
width = 460;
}
);
unicode = 0033;
},
{
glyphname = four;
layers = (
{
layerId = "7D987CB1-A3A8-41AB-9CDC-0258C96D8E25";
paths = (
{
nodes = (
"439 185 LINE",
"456 137 LINE",
"553 137 LINE",
"527 17 LINE",
"372 17 LINE",
"312 152 LINE",
"346 315 LINE",
"180 315 LINE",
"115 432 LINE",
"171 693 LINE",
"290 693 LINE",
"242 470 LINE",
"248 462 OFFCURVE",
"260 441 OFFCURVE",
"265 433 QCURVE",
"372 433 LINE",
"427 693 LINE",
"547 693 LINE"
);
}
);
width = 540;
}
);
unicode = 0034;
},
{
glyphname = five;
layers = (
{
layerId = "7D987CB1-A3A8-41AB-9CDC-0258C96D8E25";
paths = (
{
nodes = (
"171 693 LINE",
"576 693 LINE",
"528 467 LINE",
"410 467 LINE",
"433 575 LINE",
"265 575 LINE",
"235 433 LINE",
"433 433 LINE",
"496 317 LINE",
"461 152 LINE",
"344 17 LINE",
"115 17 LINE",
"56 152 LINE",
"75 243 LINE",
"194 243 LINE",
"182 186 LINE",
"199 137 LINE",
"312 137 LINE",
"350 186 LINE",
"370 278 LINE",
"349 315 LINE",
"90 315 LINE"
);
}
);
width = 454;
}
);
unicode = 0035;
},
{
glyphname = six;
layers = (
{
layerId = "7D987CB1-A3A8-41AB-9CDC-0258C96D8E25";
paths = (
{
nodes = (
"375 278 LINE",
"354 315 LINE",
"214 315 LINE",
"187 186 LINE",
"203 137 LINE",
"317 137 LINE",
"355 186 LINE"
);
},
{
nodes = (
"147 564 LINE",
"264 693 LINE",
"493 693 LINE",
"553 564 LINE",
"533 467 LINE",
"415 467 LINE",
"428 528 LINE",
"410 575 LINE",
"296 575 LINE",
"260 528 LINE",
"240 433 LINE",
"438 433 LINE",
"501 317 LINE",
"466 152 LINE",
"349 17 LINE",
"120 17 LINE",
"60 152 LINE"
);
}
);
width = 465;
}
);
unicode = 0036;
},
{
glyphname = seven;
layers = (
{
layerId = "7D987CB1-A3A8-41AB-9CDC-0258C96D8E25";
paths = (
{
nodes = (
"169 693 LINE",
"611 693 LINE",
"578 537 LINE",
"250 187 LINE",
"255 178 OFFCURVE",
"262 144 OFFCURVE",
"267 136 QCURVE",
"363 136 LINE",
"338 17 LINE",
"182 17 LINE",
"105 186 LINE",
"467 575 LINE",
"263 575 LINE",
"240 466 LINE",
"121 466 LINE"
);
}
);
width = 485;
}
);
unicode = 0037;
},
{
glyphname = eight;
layers = (
{
layerId = "7D987CB1-A3A8-41AB-9CDC-0258C96D8E25";
paths = (
{
nodes = (
"263 693 LINE",
"484 693 LINE",
"544 564 LINE",
"513 416 LINE",
"457 359 LINE",
"465 345 OFFCURVE",
"483 315 OFFCURVE",
"489 302 QCURVE",
"457 152 LINE",
"340 17 LINE",
"119 17 LINE",
"58 153 LINE",
"90 302 LINE",
"147 359 LINE",
"114 416 LINE",
"145 564 LINE"
);
},
{
nodes = (
"257 528 LINE",
"241 455 LINE",
"246 446 OFFCURVE",
"257 428 OFFCURVE",
"261 418 QCURVE",
"366 418 LINE",
"375 427 OFFCURVE",
"394 445 OFFCURVE",
"403 455 QCURVE",
"419 528 LINE",
"401 575 LINE",
"295 575 LINE"
);
},
{
nodes = (
"346 186 LINE",
"362 262 LINE",
"342 299 LINE",
"236 299 LINE",
"200 263 LINE",
"184 186 LINE",
"202 137 LINE",
"308 137 LINE"
);
}
);
width = 454;
}
);
unicode = 0038;
},
{
glyphname = nine;
layers = (
{
layerId = "7D987CB1-A3A8-41AB-9CDC-0258C96D8E25";
paths = (
{
nodes = (
"257 433 LINE",
"397 433 LINE",
"417 528 LINE",
"399 575 LINE",
"286 575 LINE",
"249 528 LINE",
"237 471 LINE"
);
},
{
nodes = (
"253 693 LINE",
"482 693 LINE",
"542 564 LINE",
"455 152 LINE",
"338 17 LINE",
"109 17 LINE",
"50 152 LINE",
"69 243 LINE",
"188 243 LINE",
"176 186 LINE",
"193 137 LINE",
"306 137 LINE",
"344 186 LINE",
"371 315 LINE",
"172 315 LINE",
"109 432 LINE",
"137 564 LINE"
);
}
);
width = 444;
}
);
unicode = 0039;
},
{
glyphname = colon;
layers = (
{
layerId = "7D987CB1-A3A8-41AB-9CDC-0258C96D8E25";
paths = (
{
nodes = (
"52 137 LINE",
"78 257 LINE",
"197 257 LINE",
"171 137 LINE"
);
},
{
nodes = (
"145 575 LINE",
"264 575 LINE",
"239 456 LINE",
"120 456 LINE"
);
}
);
width = 165;
}
);
unicode = 003A;
},
{
glyphname = semicolon;
layers = (
{
layerId = "7D987CB1-A3A8-41AB-9CDC-0258C96D8E25";
paths = (
{
nodes = (
"145 575 LINE",
"264 575 LINE",
"239 456 LINE",
"120 456 LINE"
);
},
{
nodes = (
"153 52 LINE",
"34 52 LINE",
"78 257 LINE",
"197 257 LINE"
);
}
);
width = 165;
}
);
unicode = 003B;
},
{
glyphname = less;
layers = (
{
layerId = "7D987CB1-A3A8-41AB-9CDC-0258C96D8E25";
paths = (
{
nodes = (
"471 612 LINE",
"430 468 LINE",
"235 363 LINE",
"379 242 LINE",
"354 107 LINE",
"102 322 LINE",
"116 423 LINE"
);
}
);
width = 353;
}
);
unicode = 003C;
},
{
glyphname = equal;
layers = (
{
layerId = "7D987CB1-A3A8-41AB-9CDC-0258C96D8E25";
paths = (
{
nodes = (
"72 200 LINE",
"98 320 LINE",
"488 320 LINE",
"462 200 LINE"
);
},
{
nodes = (
"109 379 LINE",
"135 499 LINE",
"525 499 LINE",
"499 379 LINE"
);
}
);
width = 433;
}
);
unicode = 003D;
},
{
glyphname = greater;
layers = (
{
layerId = "7D987CB1-A3A8-41AB-9CDC-0258C96D8E25";
paths = (
{
nodes = (
"56 110 LINE",
"101 280 LINE",
"274 377 LINE",
"136 479 LINE",
"173 615 LINE",
"425 400 LINE",
"411 299 LINE"
);
}
);
width = 353;
}
);
unicode = 003E;
},
{
glyphname = question;
layers = (
{
layerId = "7D987CB1-A3A8-41AB-9CDC-0258C96D8E25";
paths = (
{
nodes = (
"256 693 LINE",
"485 693 LINE",
"545 564 LINE",
"517 432 LINE",
"404 315 LINE",
"341 315 LINE",
"307 278 LINE",
"285 175 LINE",
"166 175 LINE",
"196 317 LINE",
"310 433 LINE",
"372 433 LINE",
"408 471 LINE",
"420 528 LINE",
"402 575 LINE",
"289 575 LINE",
"252 528 LINE",
"239 466 LINE",
"120 466 LINE",
"140 564 LINE"
);
},
{
nodes = (
"157 136 LINE",
"276 136 LINE",
"251 17 LINE",
"132 17 LINE"
);
}
);
width = 452;
}
);
unicode = 003F;
},
{
glyphname = at;
layers = (
{
layerId = "7D987CB1-A3A8-41AB-9CDC-0258C96D8E25";
paths = (
{
nodes = (
"468 276 LINE",
"507 444 LINE",
"417 444 LINE",
"386 412 LINE",
"356 276 LINE",
"370 247 LINE",
"438 247 LINE"
);
},
{
nodes = (
"549 63 LINE",
"586 112 LINE",
"606 205 LINE",
"545 205 LINE",
"482 137 LINE",
"283 137 LINE",
"234 248 LINE",
"275 441 LINE",
"371 547 LINE",
"638 547 LINE",
"591 322 LINE",
"750 322 LINE",
"698 78 LINE",
"581 -57 LINE",
"95 -57 LINE",
"35 78 LINE",
"147 609 LINE",
"264 738 LINE",
"750 738 LINE",
"810 609 LINE",
"760 370 LINE",
"641 370 LINE",
"684 573 LINE",
"667 620 LINE",
"296 620 LINE",
"260 573 LINE",
"162 112 LINE",
"178 63 LINE"
);
}
);
width = 697;
}
);
unicode = 0040;
},
{
glyphname = A;
layers = (
{
layerId = "7D987CB1-A3A8-41AB-9CDC-0258C96D8E25";
paths = (
{
nodes = (
"254 691 LINE",
"490 691 LINE",
"553 564 LINE",
"437 17 LINE",
"319 17 LINE",
"382 314 LINE",
"205 314 LINE",
"178 186 LINE",
"194 136 LINE",
"292 136 LINE",
"267 17 LINE",
"111 17 LINE",
"53 152 LINE",
"140 564 LINE"
);
},
{
nodes = (
"408 433 LINE",
"428 528 LINE",
"407 573 LINE",
"288 573 LINE",
"279 564 OFFCURVE",
"259 537 OFFCURVE",
"251 528 QCURVE",
"231 433 LINE"
);
}
);
width = 460;
}
);
unicode = 0041;
},
{
glyphname = B;
layers = (
{
layerId = "7D987CB1-A3A8-41AB-9CDC-0258C96D8E25";
paths = (
{
nodes = (
"173 693 LINE",
"494 693 LINE",
"554 564 LINE",
"526 432 LINE",
"470 375 LINE",
"478 361 OFFCURVE",
"495 331 OFFCURVE",
"502 317 QCURVE",
"467 152 LINE",
"350 17 LINE",
"117 17 LINE",
"58 152 LINE"
);
},
{
nodes = (
"417 472 LINE",
"429 528 LINE",
"411 575 LINE",
"267 575 LINE",
"237 434 LINE",
"381 434 LINE"
);
},
{
nodes = (
"356 186 LINE",
"376 279 LINE",
"371 287 OFFCURVE",
"360 306 OFFCURVE",
"355 316 QCURVE",
"212 316 LINE",
"184 186 LINE",
"201 137 LINE",
"318 137 LINE"
);
}
);
width = 446;
}
);
unicode = 0042;
},
{
glyphname = C;
layers = (
{
layerId = "7D987CB1-A3A8-41AB-9CDC-0258C96D8E25";
paths = (
{
nodes = (
"261 693 LINE",
"502 693 LINE",
"562 564 LINE",
"542 467 LINE",
"423 467 LINE",
"436 528 LINE",
"419 575 LINE",
"294 575 LINE",
"257 528 LINE",
"184 186 LINE",
"201 137 LINE",
"326 137 LINE",
"363 186 LINE",
"375 243 LINE",
"494 243 LINE",
"475 152 LINE",
"358 17 LINE",
"117 17 LINE",
"58 152 LINE",
"145 564 LINE"
);
}
);
width = 460;
}
);
unicode = 0043;
},
{
glyphname = D;
layers = (
{
layerId = "7D987CB1-A3A8-41AB-9CDC-0258C96D8E25";
paths = (
{
nodes = (
"179 694 LINE",
"497 694 LINE",
"557 564 LINE",
"470 152 LINE",
"353 17 LINE",
"124 17 LINE",
"64 152 LINE"
);
},
{
nodes = (
"359 186 LINE",
"432 528 LINE",
"427 537 OFFCURVE",
"418 566 OFFCURVE",
"413 575 QCURVE",
"274 575 LINE",
"191 186 LINE",
"207 137 LINE",
"321 137 LINE"
);
}
);
width = 472;
}
);
unicode = 0044;
},
{
glyphname = E;
layers = (
{
layerId = "7D987CB1-A3A8-41AB-9CDC-0258C96D8E25";
paths = (
{
nodes = (
"381 258 LINE",
"516 258 LINE",
"492 142 LINE",
"428 142 LINE",
"331 17 LINE",
"120 17 LINE",
"58 152 LINE",
"173 693 LINE",
"561 693 LINE",
"536 575 LINE",
"268 575 LINE",
"238 434 LINE",
"417 434 LINE",
"392 316 LINE",
"213 316 LINE",
"185 186 LINE",
"202 137 LINE",
"287 137 LINE"
);
}
);
width = 477;
}
);
unicode = 0045;
},
{
glyphname = F;
layers = (
{
layerId = "7D987CB1-A3A8-41AB-9CDC-0258C96D8E25";
paths = (
{
nodes = (
"172 693 LINE",
"520 693 LINE",
"495 575 LINE",
"266 575 LINE",
"236 433 LINE",
"414 433 LINE",
"388 315 LINE",
"210 315 LINE",
"183 186 LINE",
"200 137 LINE",
"298 137 LINE",
"272 17 LINE",
"116 17 LINE",
"57 152 LINE"
);
}
);
width = 387;
}
);
unicode = 0046;
},
{
glyphname = G;
layers = (
{
layerId = "7D987CB1-A3A8-41AB-9CDC-0258C96D8E25";
paths = (
{
nodes = (
"258 693 LINE",
"485 693 LINE",
"545 564 LINE",
"525 467 LINE",
"408 467 LINE",
"421 528 LINE",
"415 536 OFFCURVE",
"405 567 OFFCURVE",
"401 575 QCURVE",
"289 575 LINE",
"252 528 LINE",
"179 186 LINE",
"196 137 LINE",
"338 137 LINE",
"364 259 LINE",
"271 259 LINE",
"296 379 LINE",
"506 379 LINE",
"429 17 LINE",
"114 17 LINE",
"53 152 LINE",
"140 564 LINE"
);
}
);
width = 452;
}
);
unicode = 0047;
},
{
glyphname = H;
layers = (
{
layerId = "7D987CB1-A3A8-41AB-9CDC-0258C96D8E25";
paths = (
{
nodes = (
"414 434 LINE",
"469 694 LINE",
"588 694 LINE",
"444 17 LINE",
"325 17 LINE",
"389 316 LINE",
"212 316 LINE",
"184 186 LINE",
"186 182 OFFCURVE",
"190 168 OFFCURVE",
"194 153 OFFCURVE",
"199 140 OFFCURVE",
"202 137 QCURVE",
"299 137 LINE",
"273 17 LINE",
"119 17 LINE",
"58 152 LINE",
"173 694 LINE",
"292 694 LINE",
"237 434 LINE"
);
}
);
width = 468;
}
);
unicode = 0048;
},
{
glyphname = I;
layers = (
{
layerId = "7D987CB1-A3A8-41AB-9CDC-0258C96D8E25";
paths = (
{
nodes = (
"182 186 LINE",
"200 137 LINE",
"298 137 LINE",
"272 17 LINE",
"116 17 LINE",
"57 152 LINE",
"172 693 LINE",
"290 693 LINE"
);
}
);
width = 278;
}
);
unicode = 0049;
},
{
glyphname = J;
layers = (
{
layerId = "7D987CB1-A3A8-41AB-9CDC-0258C96D8E25";
paths = (
{
nodes = (
"296 694 LINE",
"416 694 LINE",
"301 152 LINE",
"181 17 LINE",
"28 17 LINE",
"54 137 LINE",
"149 137 LINE",
"188 186 LINE"
);
}
);
width = 296;
}
);
unicode = 004A;
},
{
glyphname = K;
layers = (
{
layerId = "7D987CB1-A3A8-41AB-9CDC-0258C96D8E25";
paths = (
{
nodes = (
"421 471 LINE",
"468 693 LINE",
"587 693 LINE",
"531 432 LINE",
"475 375 LINE",
"483 361 OFFCURVE",
"500 331 OFFCURVE",
"507 317 QCURVE",
"443 17 LINE",
"324 17 LINE",
"380 278 LINE",
"360 315 LINE",
"211 315 LINE",
"184 186 LINE",
"201 137 LINE",
"298 137 LINE",
"272 17 LINE",
"117 17 LINE",
"58 152 LINE",
"173 693 LINE",
"292 693 LINE",
"237 433 LINE",
"385 433 LINE"
);
}
);
width = 469;
}
);
unicode = 004B;
},
{
glyphname = L;
layers = (
{
layerId = "7D987CB1-A3A8-41AB-9CDC-0258C96D8E25";
paths = (
{
nodes = (
"365 258 LINE",
"497 258 LINE",
"472 139 LINE",
"408 139 LINE",
"384 107 OFFCURVE",
"337 48 OFFCURVE",
"313 17 QCURVE",
"117 17 LINE",
"58 152 LINE",
"173 694 LINE",
"292 694 LINE",
"184 186 LINE",
"201 137 LINE",
"270 137 LINE"
);
}
);
width = 460;
}
);
unicode = 004C;
},
{
glyphname = M;
layers = (
{
layerId = "7D987CB1-A3A8-41AB-9CDC-0258C96D8E25";
paths = (
{
nodes = (
"576 693 LINE",
"713 693 LINE",
"569 17 LINE",
"451 17 LINE",
"554 499 LINE",
"365 274 LINE",
"341 274 LINE",
"249 499 LINE",
"182 186 LINE",
"200 137 LINE",
"298 137 LINE",
"272 17 LINE",
"115 17 LINE",
"56 152 LINE",
"171 693 LINE",
"309 693 LINE",
"397 481 LINE"
);
}
);
width = 597;
}
);
unicode = 004D;
},
{
glyphname = N;
layers = (
{
layerId = "7D987CB1-A3A8-41AB-9CDC-0258C96D8E25";
paths = (
{
nodes = (
"437 254 LINE",
"531 694 LINE",
"651 694 LINE",
"507 17 LINE",
"371 17 LINE",
"244 464 LINE",
"185 186 LINE",
"202 137 LINE",
"300 137 LINE",
"274 17 LINE",
"118 17 LINE",
"58 152 LINE",
"173 694 LINE",
"313 694 LINE"
);
}
);
width = 537;
}
);
unicode = 004E;
},
{
glyphname = O;
layers = (
{
layerId = "7D987CB1-A3A8-41AB-9CDC-0258C96D8E25";
paths = (
{
nodes = (
"263 693 LINE",
"504 693 LINE",
"564 564 LINE",
"477 152 LINE",
"360 17 LINE",
"119 17 LINE",
"59 152 LINE",
"146 564 LINE"
);
},
{
nodes = (
"365 186 LINE",
"438 528 LINE",
"421 575 LINE",
"295 575 LINE",
"259 528 LINE",
"186 186 LINE",
"202 137 LINE",
"328 137 LINE"
);
}
);
width = 472;
}
);
unicode = 004F;
},
{
glyphname = P;
layers = (
{
layerId = "7D987CB1-A3A8-41AB-9CDC-0258C96D8E25";
paths = (
{
nodes = (
"368 434 LINE",
"404 472 LINE",
"418 537 LINE",
"398 575 LINE",
"263 575 LINE",
"233 434 LINE"
);
},
{
nodes = (
"54 152 LINE",
"169 693 LINE",
"481 693 LINE",
"544 577 LINE",
"513 432 LINE",
"401 316 LINE",
"208 316 LINE",
"180 186 LINE",
"197 137 LINE",
"295 137 LINE",
"269 17 LINE",
"113 17 LINE"
);
}
);
width = 433;
}
);
unicode = 0050;
},
{
glyphname = Q;
layers = (
{
layerId = "7D987CB1-A3A8-41AB-9CDC-0258C96D8E25";
paths = (
{
nodes = (
"286 -53 LINE",
"167 -51 LINE",
"181 17 LINE",
"115 17 LINE",
"54 152 LINE",
"141 564 LINE",
"259 693 LINE",
"510 693 LINE",
"572 564 LINE",
"485 152 LINE",
"366 17 LINE",
"301 17 LINE"
);
},
{
nodes = (
"207 137 LINE",
"220 201 LINE",
"340 201 LINE",
"327 137 LINE",
"334 137 LINE",
"341 144 OFFCURVE",
"365 178 OFFCURVE",
"373 186 QCURVE",
"446 528 LINE",
"440 536 OFFCURVE",
"431 567 OFFCURVE",
"427 575 QCURVE",
"292 575 LINE",
"284 567 OFFCURVE",
"260 536 OFFCURVE",
"253 528 QCURVE",
"180 186 LINE",
"182 182 OFFCURVE",
"186 168 OFFCURVE",
"191 153 OFFCURVE",
"196 140 OFFCURVE",
"199 137 QCURVE"
);
}
);
width = 477;
}
);
unicode = 0051;
},
{
glyphname = R;
layers = (
{
layerId = "7D987CB1-A3A8-41AB-9CDC-0258C96D8E25";
paths = (
{
nodes = (
"175 693 LINE",
"501 693 LINE",
"563 564 LINE",
"535 432 LINE",
"479 375 LINE",
"487 361 OFFCURVE",
"504 331 OFFCURVE",
"511 317 QCURVE",
"447 17 LINE",
"328 17 LINE",
"384 280 LINE",
"380 288 OFFCURVE",
"367 308 OFFCURVE",
"363 316 QCURVE",
"215 316 LINE",
"187 185 LINE",
"203 137 LINE",
"300 137 LINE",
"274 17 LINE",
"120 17 LINE",
"60 152 LINE"
);
},
{
nodes = (
"425 471 LINE",
"437 528 LINE",
"432 536 OFFCURVE",
"422 567 OFFCURVE",
"418 575 QCURVE",
"270 575 LINE",
"240 434 LINE",
"388 434 LINE"
);
}
);
width = 469;
}
);
unicode = 0052;
},
{
glyphname = S;
layers = (
{
layerId = "7D987CB1-A3A8-41AB-9CDC-0258C96D8E25";
paths = (
{
nodes = (
"489 693 LINE",
"549 564 LINE",
"529 467 LINE",
"411 467 LINE",
"424 528 LINE",
"406 575 LINE",
"293 575 LINE",
"256 528 LINE",
"244 472 LINE",
"263 434 LINE",
"434 434 LINE",
"497 317 LINE",
"462 152 LINE",
"345 17 LINE",
"116 17 LINE",
"57 152 LINE",
"76 243 LINE",
"195 243 LINE",
"183 186 LINE",
"200 137 LINE",
"313 137 LINE",
"351 186 LINE",
"371 279 LINE",
"350 316 LINE",
"180 316 LINE",
"116 432 LINE",
"144 564 LINE",
"260 693 LINE"
);
}
);
width = 457;
}
);
unicode = 0053;
},
{
glyphname = T;
layers = (
{
layerId = "7D987CB1-A3A8-41AB-9CDC-0258C96D8E25";
paths = (
{
nodes = (
"156 694 LINE",
"628 694 LINE",
"580 467 LINE",
"461 467 LINE",
"484 575 LINE",
"431 575 LINE",
"348 186 LINE",
"353 177 OFFCURVE",
"361 145 OFFCURVE",
"367 137 QCURVE",
"462 137 LINE",
"436 17 LINE",
"282 17 LINE",
"221 152 LINE",
"311 575 LINE",
"250 575 LINE",
"227 467 LINE",
"108 467 LINE"
);
}
);
width = 493;
}
);
unicode = 0054;
},
{
glyphname = U;
layers = (
{
layerId = "7D987CB1-A3A8-41AB-9CDC-0258C96D8E25";
paths = (
{
nodes = (
"351 186 LINE",
"459 693 LINE",
"577 693 LINE",
"462 152 LINE",
"345 17 LINE",
"116 17 LINE",
"57 152 LINE",
"172 693 LINE",
"291 693 LINE",
"183 186 LINE",
"200 137 LINE",
"313 137 LINE"
);
}
);
width = 457;
}
);
unicode = 0055;
},
{
glyphname = V;
layers = (
{
layerId = "7D987CB1-A3A8-41AB-9CDC-0258C96D8E25";
paths = (
{
nodes = (
"359 339 LINE",
"434 693 LINE",
"554 693 LINE",
"479 339 LINE",
"479 338 OFFCURVE",
"454 294 OFFCURVE",
"416 226 OFFCURVE",
"372 146 OFFCURVE",
"333 75 OFFCURVE",
"305 23 OFFCURVE",
"302 17 QCURVE",
"132 17 LINE",
"93 338 LINE",
"169 693 LINE",
"288 693 LINE",
"213 339 LINE",
"243 140 LINE"
);
}
);
width = 428;
}
);
unicode = 0056;
},
{
glyphname = W;
layers = (
{
layerId = "7D987CB1-A3A8-41AB-9CDC-0258C96D8E25";
paths = (
{
nodes = (
"614 311 LINE",
"695 693 LINE",
"813 693 LINE",
"727 290 LINE",
"727 289 OFFCURVE",
"704 251 OFFCURVE",
"670 194 OFFCURVE",
"629 128 OFFCURVE",
"592 68 OFFCURVE",
"565 23 OFFCURVE",
"562 17 QCURVE",
"392 17 LINE",
"376 161 LINE",
"356 125 OFFCURVE",
"316 52 OFFCURVE",
"297 17 QCURVE",
"128 17 LINE",
"79 289 LINE",
"165 693 LINE",
"282 693 LINE",
"201 311 LINE",
"239 142 LINE",
"350 322 LINE",
"429 693 LINE",
"546 693 LINE",
"467 323 LINE",
"503 140 LINE"
);
}
);
width = 690;
}
);
unicode = 0057;
},
{
glyphname = X;
layers = (
{
layerId = "7D987CB1-A3A8-41AB-9CDC-0258C96D8E25";
paths = (
{
nodes = (
"466 693 LINE",
"584 693 LINE",
"528 432 LINE",
"472 375 LINE",
"480 361 OFFCURVE",
"497 331 OFFCURVE",
"504 317 QCURVE",
"440 17 LINE",
"322 17 LINE",
"378 279 LINE",
"358 316 LINE",
"236 316 LINE",
"201 279 LINE",
"181 186 LINE",
"198 137 LINE",
"295 137 LINE",
"269 17 LINE",
"114 17 LINE",
"55 152 LINE",
"90 317 LINE",
"146 375 LINE",
"114 432 LINE",
"170 693 LINE",
"289 693 LINE",
"242 472 LINE",
"261 434 LINE",
"383 434 LINE",
"419 472 LINE"
);
}
);
width = 462;
}
);
unicode = 0058;
},
{
glyphname = Y;
layers = (
{
layerId = "7D987CB1-A3A8-41AB-9CDC-0258C96D8E25";
paths = (
{
nodes = (
"375 471 LINE",
"422 693 LINE",
"542 693 LINE",
"486 432 LINE",
"371 315 LINE",
"333 315 LINE",
"270 17 LINE",
"151 17 LINE",
"214 315 LINE",
"176 315 LINE",
"113 432 LINE",
"169 693 LINE",
"288 693 LINE",
"241 471 LINE",
"245 462 OFFCURVE",
"256 443 OFFCURVE",
"261 433 QCURVE",
"338 433 LINE"
);
}
);
width = 416;
}
);
unicode = 0059;
},
{
glyphname = Z;
layers = (
{
layerId = "7D987CB1-A3A8-41AB-9CDC-0258C96D8E25";
paths = (
{
nodes = (
"375 258 LINE",
"509 258 LINE",
"484 139 LINE",
"420 139 LINE",
"396 107 OFFCURVE",
"348 48 OFFCURVE",
"324 17 QCURVE",
"27 17 LINE",
"52 133 LINE",
"399 575 LINE",
"146 575 LINE",
"171 694 LINE",
"564 694 LINE",
"540 579 LINE",
"192 137 LINE",
"280 137 LINE"
);
}
);
width = 480;
}
);
unicode = 005A;
},
{
glyphname = bracketleft;
layers = (
{
layerId = "7D987CB1-A3A8-41AB-9CDC-0258C96D8E25";
paths = (
{
nodes = (
"222 870 LINE",
"446 870 LINE",
"416 744 LINE",
"312 744 LINE",
"148 -31 LINE",
"259 -31 LINE",
"230 -160 LINE",
"-5 -160 LINE"
);
}
);
width = 195;
}
);
unicode = 005B;
},
{
glyphname = backslash;
layers = (
{
layerId = "7D987CB1-A3A8-41AB-9CDC-0258C96D8E25";
paths = (
{
nodes = (
"422 17 LINE",
"140 693 LINE",
"281 693 LINE",
"563 17 LINE"
);
}
);
width = 559;
}
);
unicode = 005C;
},
{
glyphname = bracketright;
layers = (
{
layerId = "7D987CB1-A3A8-41AB-9CDC-0258C96D8E25";
paths = (
{
nodes = (
"103 -160 LINE",
"-121 -160 LINE",
"-91 -34 LINE",
"13 -34 LINE",
"177 741 LINE",
"66 741 LINE",
"95 870 LINE",
"330 870 LINE"
);
}
);
width = 177;
}
);
unicode = 005D;
},
{
glyphname = underscore;
layers = (
{
layerId = "7D987CB1-A3A8-41AB-9CDC-0258C96D8E25";
paths = (
{
nodes = (
"12 -124 LINE",
"38 -4 LINE",
"505 -4 LINE",
"479 -124 LINE"
);
}
);
width = 540;
}
);
unicode = 005F;
},
{
glyphname = a;
layers = (
{
layerId = "7D987CB1-A3A8-41AB-9CDC-0258C96D8E25";
paths = (
{
nodes = (
"254 691 LINE",
"490 691 LINE",
"553 564 LINE",
"437 17 LINE",
"319 17 LINE",
"382 314 LINE",
"205 314 LINE",
"178 186 LINE",
"194 136 LINE",
"292 136 LINE",
"267 17 LINE",
"111 17 LINE",
"53 152 LINE",
"140 564 LINE"
);
},
{
nodes = (
"408 433 LINE",
"428 528 LINE",
"407 573 LINE",
"288 573 LINE",
"279 564 OFFCURVE",
"259 537 OFFCURVE",
"251 528 QCURVE",
"231 433 LINE"
);
}
);
width = 460;
}
);
unicode = 0061;
},
{
glyphname = b;
layers = (
{
layerId = "7D987CB1-A3A8-41AB-9CDC-0258C96D8E25";
paths = (
{
nodes = (
"173 693 LINE",
"494 693 LINE",
"554 564 LINE",
"526 432 LINE",
"470 375 LINE",
"478 361 OFFCURVE",
"495 331 OFFCURVE",
"502 317 QCURVE",
"467 152 LINE",
"350 17 LINE",
"117 17 LINE",
"58 152 LINE"
);
},
{
nodes = (
"417 472 LINE",
"429 528 LINE",
"411 575 LINE",
"267 575 LINE",
"237 434 LINE",
"381 434 LINE"
);
},
{
nodes = (
"356 186 LINE",
"376 279 LINE",
"371 287 OFFCURVE",
"360 306 OFFCURVE",
"355 316 QCURVE",
"212 316 LINE",
"184 186 LINE",
"201 137 LINE",
"318 137 LINE"
);
}
);
width = 446;
}
);
unicode = 0062;
},
{
glyphname = c;
layers = (
{
layerId = "7D987CB1-A3A8-41AB-9CDC-0258C96D8E25";
paths = (
{
nodes = (
"261 693 LINE",
"502 693 LINE",
"562 564 LINE",
"542 467 LINE",
"423 467 LINE",
"436 528 LINE",
"419 575 LINE",
"294 575 LINE",
"257 528 LINE",
"184 186 LINE",
"201 137 LINE",
"326 137 LINE",
"363 186 LINE",
"375 243 LINE",
"494 243 LINE",
"475 152 LINE",
"358 17 LINE",
"117 17 LINE",
"58 152 LINE",
"145 564 LINE"
);
}
);
width = 460;
}
);
unicode = 0063;
},
{
glyphname = d;
layers = (
{
layerId = "7D987CB1-A3A8-41AB-9CDC-0258C96D8E25";
paths = (
{
nodes = (
"179 694 LINE",
"497 694 LINE",
"557 564 LINE",
"470 152 LINE",
"353 17 LINE",
"124 17 LINE",
"64 152 LINE"
);
},
{
nodes = (
"359 186 LINE",
"432 528 LINE",
"427 537 OFFCURVE",
"418 566 OFFCURVE",
"413 575 QCURVE",
"274 575 LINE",
"191 186 LINE",
"207 137 LINE",
"321 137 LINE"
);
}
);
width = 472;
}
);
unicode = 0064;
},
{
glyphname = e;
layers = (
{
layerId = "7D987CB1-A3A8-41AB-9CDC-0258C96D8E25";
paths = (
{
nodes = (
"381 258 LINE",
"516 258 LINE",
"492 142 LINE",
"428 142 LINE",
"331 17 LINE",
"120 17 LINE",
"58 152 LINE",
"173 693 LINE",
"561 693 LINE",
"536 575 LINE",
"268 575 LINE",
"238 434 LINE",
"417 434 LINE",
"392 316 LINE",
"213 316 LINE",
"185 186 LINE",
"202 137 LINE",
"287 137 LINE"
);
}
);
width = 477;
}
);
unicode = 0065;
},
{
glyphname = f;
layers = (
{
layerId = "7D987CB1-A3A8-41AB-9CDC-0258C96D8E25";
paths = (
{
nodes = (
"172 693 LINE",
"520 693 LINE",
"495 575 LINE",
"266 575 LINE",
"236 433 LINE",
"414 433 LINE",
"388 315 LINE",
"210 315 LINE",
"183 186 LINE",
"200 137 LINE",
"298 137 LINE",
"272 17 LINE",
"116 17 LINE",
"57 152 LINE"
);
}
);
width = 387;
}
);
unicode = 0066;
},
{
glyphname = g;
layers = (
{
layerId = "7D987CB1-A3A8-41AB-9CDC-0258C96D8E25";
paths = (
{
nodes = (
"258 693 LINE",
"485 693 LINE",
"545 564 LINE",
"525 467 LINE",
"408 467 LINE",
"421 528 LINE",
"415 536 OFFCURVE",
"405 567 OFFCURVE",
"401 575 QCURVE",
"289 575 LINE",
"252 528 LINE",
"179 186 LINE",
"196 137 LINE",
"338 137 LINE",
"364 259 LINE",
"271 259 LINE",
"296 379 LINE",
"506 379 LINE",
"429 17 LINE",
"114 17 LINE",
"53 152 LINE",
"140 564 LINE"
);
}
);
width = 452;
}
);
unicode = 0067;
},
{
glyphname = h;
layers = (
{
layerId = "7D987CB1-A3A8-41AB-9CDC-0258C96D8E25";
paths = (
{
nodes = (
"414 434 LINE",
"469 694 LINE",
"588 694 LINE",
"444 17 LINE",
"325 17 LINE",
"389 316 LINE",
"212 316 LINE",
"184 186 LINE",
"186 182 OFFCURVE",
"190 168 OFFCURVE",
"194 153 OFFCURVE",
"199 140 OFFCURVE",
"202 137 QCURVE",
"299 137 LINE",
"273 17 LINE",
"119 17 LINE",
"58 152 LINE",
"173 694 LINE",
"292 694 LINE",
"237 434 LINE"
);
}
);
width = 468;
}
);
unicode = 0068;
},
{
glyphname = i;
layers = (
{
layerId = "7D987CB1-A3A8-41AB-9CDC-0258C96D8E25";
paths = (
{
nodes = (
"182 186 LINE",
"200 137 LINE",
"298 137 LINE",
"272 17 LINE",
"116 17 LINE",
"57 152 LINE",
"172 693 LINE",
"290 693 LINE"
);
}
);
width = 278;
}
);
unicode = 0069;
},
{
glyphname = j;
layers = (
{
layerId = "7D987CB1-A3A8-41AB-9CDC-0258C96D8E25";
paths = (
{
nodes = (
"296 694 LINE",
"416 694 LINE",
"301 152 LINE",
"181 17 LINE",
"28 17 LINE",
"54 137 LINE",
"149 137 LINE",
"188 186 LINE"
);
}
);
width = 296;
}
);
unicode = 006A;
},
{
glyphname = k;
layers = (
{
layerId = "7D987CB1-A3A8-41AB-9CDC-0258C96D8E25";
paths = (
{
nodes = (
"421 471 LINE",
"468 693 LINE",
"587 693 LINE",
"531 432 LINE",
"475 375 LINE",
"483 361 OFFCURVE",
"500 331 OFFCURVE",
"507 317 QCURVE",
"443 17 LINE",
"324 17 LINE",
"380 278 LINE",
"360 315 LINE",
"211 315 LINE",
"184 186 LINE",
"201 137 LINE",
"298 137 LINE",
"272 17 LINE",
"117 17 LINE",
"58 152 LINE",
"173 693 LINE",
"292 693 LINE",
"237 433 LINE",
"385 433 LINE"
);
}
);
width = 469;
}
);
unicode = 006B;
},
{
glyphname = l;
layers = (
{
layerId = "7D987CB1-A3A8-41AB-9CDC-0258C96D8E25";
paths = (
{
nodes = (
"365 258 LINE",
"497 258 LINE",
"472 139 LINE",
"408 139 LINE",
"384 107 OFFCURVE",
"337 48 OFFCURVE",
"313 17 QCURVE",
"117 17 LINE",
"58 152 LINE",
"173 694 LINE",
"292 694 LINE",
"184 186 LINE",
"201 137 LINE",
"270 137 LINE"
);
}
);
width = 460;
}
);
unicode = 006C;
},
{
glyphname = m;
layers = (
{
layerId = "7D987CB1-A3A8-41AB-9CDC-0258C96D8E25";
paths = (
{
nodes = (
"576 693 LINE",
"713 693 LINE",
"569 17 LINE",
"451 17 LINE",
"554 499 LINE",
"365 274 LINE",
"341 274 LINE",
"249 499 LINE",
"182 186 LINE",
"200 137 LINE",
"298 137 LINE",
"272 17 LINE",
"115 17 LINE",
"56 152 LINE",
"171 693 LINE",
"309 693 LINE",
"397 481 LINE"
);
}
);
width = 597;
}
);
unicode = 006D;
},
{
glyphname = n;
layers = (
{
layerId = "7D987CB1-A3A8-41AB-9CDC-0258C96D8E25";
paths = (
{
nodes = (
"437 254 LINE",
"531 694 LINE",
"651 694 LINE",
"507 17 LINE",
"371 17 LINE",
"244 464 LINE",
"185 186 LINE",
"202 137 LINE",
"300 137 LINE",
"274 17 LINE",
"118 17 LINE",
"58 152 LINE",
"173 694 LINE",
"313 694 LINE"
);
}
);
width = 537;
}
);
unicode = 006E;
},
{
glyphname = o;
layers = (
{
layerId = "7D987CB1-A3A8-41AB-9CDC-0258C96D8E25";
paths = (
{
nodes = (
"263 693 LINE",
"504 693 LINE",
"564 564 LINE",
"477 152 LINE",
"360 17 LINE",
"119 17 LINE",
"59 152 LINE",
"146 564 LINE"
);
},
{
nodes = (
"365 186 LINE",
"438 528 LINE",
"421 575 LINE",
"295 575 LINE",
"259 528 LINE",
"186 186 LINE",
"202 137 LINE",
"328 137 LINE"
);
}
);
width = 472;
}
);
unicode = 006F;
},
{
glyphname = p;
layers = (
{
layerId = "7D987CB1-A3A8-41AB-9CDC-0258C96D8E25";
paths = (
{
nodes = (
"368 434 LINE",
"404 472 LINE",
"418 537 LINE",
"398 575 LINE",
"263 575 LINE",
"233 434 LINE"
);
},
{
nodes = (
"54 152 LINE",
"169 693 LINE",
"481 693 LINE",
"544 577 LINE",
"513 432 LINE",
"401 316 LINE",
"208 316 LINE",
"180 186 LINE",
"197 137 LINE",
"295 137 LINE",
"269 17 LINE",
"113 17 LINE"
);
}
);
width = 433;
}
);
unicode = 0070;
},
{
glyphname = q;
layers = (
{
layerId = "7D987CB1-A3A8-41AB-9CDC-0258C96D8E25";
paths = (
{
nodes = (
"286 -53 LINE",
"167 -51 LINE",
"181 17 LINE",
"115 17 LINE",
"54 152 LINE",
"141 564 LINE",
"259 693 LINE",
"510 693 LINE",
"572 564 LINE",
"485 152 LINE",
"366 17 LINE",
"301 17 LINE"
);
},
{
nodes = (
"207 137 LINE",
"220 201 LINE",
"340 201 LINE",
"327 137 LINE",
"334 137 LINE",
"341 144 OFFCURVE",
"365 178 OFFCURVE",
"373 186 QCURVE",
"446 528 LINE",
"440 536 OFFCURVE",
"431 567 OFFCURVE",
"427 575 QCURVE",
"292 575 LINE",
"284 567 OFFCURVE",
"260 536 OFFCURVE",
"253 528 QCURVE",
"180 186 LINE",
"182 182 OFFCURVE",
"186 168 OFFCURVE",
"191 153 OFFCURVE",
"196 140 OFFCURVE",
"199 137 QCURVE"
);
}
);
width = 477;
}
);
unicode = 0071;
},
{
glyphname = r;
layers = (
{
layerId = "7D987CB1-A3A8-41AB-9CDC-0258C96D8E25";
paths = (
{
nodes = (
"175 693 LINE",
"501 693 LINE",
"563 564 LINE",
"535 432 LINE",
"479 375 LINE",
"487 361 OFFCURVE",
"504 331 OFFCURVE",
"511 317 QCURVE",
"447 17 LINE",
"328 17 LINE",
"384 280 LINE",
"380 288 OFFCURVE",
"367 308 OFFCURVE",
"363 316 QCURVE",
"215 316 LINE",
"187 185 LINE",
"203 137 LINE",
"300 137 LINE",
"274 17 LINE",
"120 17 LINE",
"60 152 LINE"
);
},
{
nodes = (
"425 471 LINE",
"437 528 LINE",
"432 536 OFFCURVE",
"422 567 OFFCURVE",
"418 575 QCURVE",
"270 575 LINE",
"240 434 LINE",
"388 434 LINE"
);
}
);
width = 469;
}
);
unicode = 0072;
},
{
glyphname = s;
layers = (
{
layerId = "7D987CB1-A3A8-41AB-9CDC-0258C96D8E25";
paths = (
{
nodes = (
"489 693 LINE",
"549 564 LINE",
"529 467 LINE",
"411 467 LINE",
"424 528 LINE",
"406 575 LINE",
"293 575 LINE",
"256 528 LINE",
"244 472 LINE",
"263 434 LINE",
"434 434 LINE",
"497 317 LINE",
"462 152 LINE",
"345 17 LINE",
"116 17 LINE",
"57 152 LINE",
"76 243 LINE",
"195 243 LINE",
"183 186 LINE",
"200 137 LINE",
"313 137 LINE",
"351 186 LINE",
"371 279 LINE",
"350 316 LINE",
"180 316 LINE",
"116 432 LINE",
"144 564 LINE",
"260 693 LINE"
);
}
);
width = 457;
}
);
unicode = 0073;
},
{
glyphname = t;
layers = (
{
layerId = "7D987CB1-A3A8-41AB-9CDC-0258C96D8E25";
paths = (
{
nodes = (
"156 694 LINE",
"628 694 LINE",
"580 467 LINE",
"461 467 LINE",
"484 575 LINE",
"431 575 LINE",
"348 186 LINE",
"353 177 OFFCURVE",
"361 145 OFFCURVE",
"367 137 QCURVE",
"462 137 LINE",
"436 17 LINE",
"282 17 LINE",
"221 152 LINE",
"311 575 LINE",
"250 575 LINE",
"227 467 LINE",
"108 467 LINE"
);
}
);
width = 493;
}
);
unicode = 0074;
},
{
glyphname = u;
layers = (
{
layerId = "7D987CB1-A3A8-41AB-9CDC-0258C96D8E25";
paths = (
{
nodes = (
"351 186 LINE",
"459 693 LINE",
"577 693 LINE",
"462 152 LINE",
"345 17 LINE",
"116 17 LINE",
"57 152 LINE",
"172 693 LINE",
"291 693 LINE",
"183 186 LINE",
"200 137 LINE",
"313 137 LINE"
);
}
);
width = 457;
}
);
unicode = 0075;
},
{
glyphname = v;
layers = (
{
layerId = "7D987CB1-A3A8-41AB-9CDC-0258C96D8E25";
paths = (
{
nodes = (
"359 339 LINE",
"434 693 LINE",
"554 693 LINE",
"479 339 LINE",
"479 338 OFFCURVE",
"454 294 OFFCURVE",
"416 226 OFFCURVE",
"372 146 OFFCURVE",
"333 75 OFFCURVE",
"305 23 OFFCURVE",
"302 17 QCURVE",
"132 17 LINE",
"93 338 LINE",
"169 693 LINE",
"288 693 LINE",
"213 339 LINE",
"243 140 LINE"
);
}
);
width = 428;
}
);
unicode = 0076;
},
{
glyphname = w;
layers = (
{
layerId = "7D987CB1-A3A8-41AB-9CDC-0258C96D8E25";
paths = (
{
nodes = (
"614 311 LINE",
"695 693 LINE",
"813 693 LINE",
"727 290 LINE",
"727 289 OFFCURVE",
"704 251 OFFCURVE",
"670 194 OFFCURVE",
"629 128 OFFCURVE",
"592 68 OFFCURVE",
"565 23 OFFCURVE",
"562 17 QCURVE",
"392 17 LINE",
"376 161 LINE",
"356 125 OFFCURVE",
"316 52 OFFCURVE",
"297 17 QCURVE",
"128 17 LINE",
"79 289 LINE",
"165 693 LINE",
"282 693 LINE",
"201 311 LINE",
"239 142 LINE",
"350 322 LINE",
"429 693 LINE",
"546 693 LINE",
"467 323 LINE",
"503 140 LINE"
);
}
);
width = 690;
}
);
unicode = 0077;
},
{
glyphname = x;
layers = (
{
layerId = "7D987CB1-A3A8-41AB-9CDC-0258C96D8E25";
paths = (
{
nodes = (
"466 693 LINE",
"584 693 LINE",
"528 432 LINE",
"472 375 LINE",
"480 361 OFFCURVE",
"497 331 OFFCURVE",
"504 317 QCURVE",
"440 17 LINE",
"322 17 LINE",
"378 279 LINE",
"358 316 LINE",
"236 316 LINE",
"201 279 LINE",
"181 186 LINE",
"198 137 LINE",
"295 137 LINE",
"269 17 LINE",
"114 17 LINE",
"55 152 LINE",
"90 317 LINE",
"146 375 LINE",
"114 432 LINE",
"170 693 LINE",
"289 693 LINE",
"242 472 LINE",
"261 434 LINE",
"383 434 LINE",
"419 472 LINE"
);
}
);
width = 462;
}
);
unicode = 0078;
},
{
glyphname = y;
layers = (
{
layerId = "7D987CB1-A3A8-41AB-9CDC-0258C96D8E25";
paths = (
{
nodes = (
"375 471 LINE",
"422 693 LINE",
"542 693 LINE",
"486 432 LINE",
"371 315 LINE",
"333 315 LINE",
"270 17 LINE",
"151 17 LINE",
"214 315 LINE",
"176 315 LINE",
"113 432 LINE",
"169 693 LINE",
"288 693 LINE",
"241 471 LINE",
"245 462 OFFCURVE",
"256 443 OFFCURVE",
"261 433 QCURVE",
"338 433 LINE"
);
}
);
width = 416;
}
);
unicode = 0079;
},
{
glyphname = z;
layers = (
{
layerId = "7D987CB1-A3A8-41AB-9CDC-0258C96D8E25";
paths = (
{
nodes = (
"375 258 LINE",
"509 258 LINE",
"484 139 LINE",
"420 139 LINE",
"396 107 OFFCURVE",
"348 48 OFFCURVE",
"324 17 QCURVE",
"27 17 LINE",
"52 133 LINE",
"399 575 LINE",
"146 575 LINE",
"171 694 LINE",
"564 694 LINE",
"540 579 LINE",
"192 137 LINE",
"280 137 LINE"
);
}
);
width = 480;
}
);
unicode = 007A;
},
{
glyphname = braceleft;
layers = (
{
layerId = "7D987CB1-A3A8-41AB-9CDC-0258C96D8E25";
paths = (
{
nodes = (
"79 314 LINE",
"105 434 LINE",
"186 434 LINE",
"246 709 LINE",
"366 844 LINE",
"519 844 LINE",
"493 724 LINE",
"398 724 LINE",
"359 675 LINE",
"211 1 LINE",
"227 -42 LINE",
"318 -42 LINE",
"291 -160 LINE",
"144 -160 LINE",
"83 -35 LINE",
"159 314 LINE"
);
}
);
width = 241;
}
);
unicode = 007B;
},
{
glyphname = bar;
layers = (
{
layerId = "7D987CB1-A3A8-41AB-9CDC-0258C96D8E25";
paths = (
{
nodes = (
"206 761 LINE",
"302 761 LINE",
"129 -45 LINE",
"35 -45 LINE"
);
}
);
width = 318;
}
);
unicode = 007C;
},
{
glyphname = braceright;
layers = (
{
layerId = "7D987CB1-A3A8-41AB-9CDC-0258C96D8E25";
paths = (
{
nodes = (
"151 -25 LINE",
"31 -160 LINE",
"-122 -160 LINE",
"-96 -40 LINE",
"-1 -40 LINE",
"38 9 LINE",
"186 683 LINE",
"170 726 LINE",
"79 726 LINE",
"106 844 LINE",
"253 844 LINE",
"314 719 LINE",
"251 434 LINE",
"330 434 LINE",
"304 314 LINE",
"225 314 LINE"
);
}
);
width = 250;
}
);
unicode = 007D;
},
{
glyphname = asciitilde;
layers = (
{
layerId = "7D987CB1-A3A8-41AB-9CDC-0258C96D8E25";
paths = (
{
nodes = (
"215 341 LINE",
"84 243 LINE",
"121 381 LINE",
"222 477 LINE",
"336 381 LINE",
"453 465 LINE",
"519 361 LINE",
"315 243 LINE"
);
}
);
width = 458;
}
);
unicode = 007E;
},
{
glyphname = exclamdown;
layers = (
{
layerId = "7D987CB1-A3A8-41AB-9CDC-0258C96D8E25";
paths = (
{
nodes = (
"265 574 LINE",
"146 574 LINE",
"172 694 LINE",
"291 694 LINE"
);
},
{
nodes = (
"147 17 LINE",
"28 17 LINE",
"138 535 LINE",
"257 535 LINE"
);
}
);
width = 170;
}
);
unicode = 00A1;
},
{
glyphname = cent;
layers = (
{
layerId = "7D987CB1-A3A8-41AB-9CDC-0258C96D8E25";
paths = (
{
nodes = (
"275 486 LINE",
"238 439 LINE",
"204 285 LINE",
"221 236 LINE",
"231 236 LINE",
"285 486 LINE"
);
},
{
nodes = (
"126 475 LINE",
"242 604 LINE",
"310 604 LINE",
"344 761 LINE",
"440 761 LINE",
"406 604 LINE",
"483 604 LINE",
"543 475 LINE",
"523 378 LINE",
"404 378 LINE",
"417 439 LINE",
"400 486 LINE",
"381 486 LINE",
"326 236 LINE",
"346 236 LINE",
"383 285 LINE",
"395 342 LINE",
"514 342 LINE",
"495 251 LINE",
"378 116 LINE",
"300 116 LINE",
"267 -45 LINE",
"173 -45 LINE",
"206 116 LINE",
"137 116 LINE",
"78 251 LINE"
);
}
);
width = 460;
}
);
unicode = 00A2;
},
{
glyphname = sterling;
layers = (
{
layerId = "7D987CB1-A3A8-41AB-9CDC-0258C96D8E25";
paths = (
{
nodes = (
"87 320 LINE",
"113 440 LINE",
"171 440 LINE",
"192 528 LINE",
"174 575 LINE",
"110 575 LINE",
"142 693 LINE",
"257 693 LINE",
"318 568 LINE",
"290 440 LINE",
"395 440 LINE",
"369 320 LINE",
"264 320 LINE",
"162 177 LINE",
"167 137 LINE",
"236 137 LINE",
"331 258 LINE",
"463 258 LINE",
"438 139 LINE",
"374 139 LINE",
"350 107 OFFCURVE",
"303 48 OFFCURVE",
"279 17 QCURVE",
"83 17 LINE",
"24 152 LINE",
"145 320 LINE"
);
}
);
width = 450;
}
);
unicode = 00A3;
},
{
glyphname = currency;
layers = (
{
layerId = "7D987CB1-A3A8-41AB-9CDC-0258C96D8E25";
paths = (
{
nodes = (
"515 245 LINE",
"552 294 LINE",
"583 423 LINE",
"566 470 LINE",
"440 470 LINE",
"404 423 LINE",
"373 294 LINE",
"389 245 LINE"
);
},
{
nodes = (
"596 182 LINE",
"742 17 LINE",
"596 17 LINE",
"483 125 LINE",
"327 125 LINE",
"214 17 LINE",
"68 17 LINE",
"258 233 LINE",
"246 260 LINE",
"291 459 LINE",
"319 490 LINE",
"140 693 LINE",
"286 693 LINE",
"402 582 LINE",
"408 588 LINE",
"558 588 LINE",
"668 693 LINE",
"814 693 LINE",
"674 534 LINE",
"709 459 LINE",
"664 260 LINE"
);
}
);
width = 681;
}
);
unicode = 00A4;
},
{
glyphname = yen;
layers = (
{
layerId = "7D987CB1-A3A8-41AB-9CDC-0258C96D8E25";
paths = (
{
nodes = (
"39 200 LINE",
"65 320 LINE",
"230 320 LINE",
"198 379 LINE",
"76 379 LINE",
"102 499 LINE",
"184 499 LINE",
"226 693 LINE",
"345 693 LINE",
"304 499 LINE",
"438 499 LINE",
"479 693 LINE",
"599 693 LINE",
"557 499 LINE",
"666 499 LINE",
"640 379 LINE",
"491 379 LINE",
"433 320 LINE",
"629 320 LINE",
"603 200 LINE",
"365 200 LINE",
"327 17 LINE",
"208 17 LINE",
"246 200 LINE"
);
}
);
width = 567;
}
);
unicode = 00A5;
},
{
glyphname = brokenbar;
layers = (
{
layerId = "7D987CB1-A3A8-41AB-9CDC-0258C96D8E25";
paths = (
{
nodes = (
"35 -45 LINE",
"105 284 LINE",
"199 284 LINE",
"129 -45 LINE"
);
},
{
nodes = (
"206 761 LINE",
"302 761 LINE",
"233 443 LINE",
"138 443 LINE"
);
}
);
width = 318;
}
);
unicode = 00A6;
},
{
glyphname = section;
layers = (
{
layerId = "7D987CB1-A3A8-41AB-9CDC-0258C96D8E25";
paths = (
{
nodes = (
"228 404 LINE",
"216 347 LINE",
"235 310 LINE",
"370 310 LINE",
"384 339 LINE",
"396 404 LINE",
"378 451 LINE",
"265 451 LINE"
);
},
{
nodes = (
"288 828 LINE",
"517 828 LINE",
"577 699 LINE",
"557 602 LINE",
"439 602 LINE",
"452 663 LINE",
"434 710 LINE",
"321 710 LINE",
"284 663 LINE",
"272 607 LINE",
"291 569 LINE",
"462 569 LINE",
"525 452 LINE",
"490 287 LINE",
"442 243 LINE",
"469 193 LINE",
"434 28 LINE",
"317 -107 LINE",
"88 -107 LINE",
"29 28 LINE",
"48 119 LINE",
"167 119 LINE",
"155 62 LINE",
"172 13 LINE",
"285 13 LINE",
"323 62 LINE",
"343 155 LINE",
"323 190 LINE",
"152 192 LINE",
"88 308 LINE",
"116 440 LINE",
"177 507 LINE",
"144 567 LINE",
"172 699 LINE"
);
}
);
width = 449;
}
);
unicode = 00A7;
},
{
glyphname = dieresis;
layers = (
{
layerId = "7D987CB1-A3A8-41AB-9CDC-0258C96D8E25";
paths = (
{
nodes = (
"357 533 LINE",
"383 653 LINE",
"502 653 LINE",
"476 533 LINE"
);
},
{
nodes = (
"556 533 LINE",
"582 653 LINE",
"701 653 LINE",
"675 533 LINE"
);
}
);
width = 683;
}
);
unicode = 00A8;
},
{
glyphname = ordfeminine;
layers = (
{
layerId = "7D987CB1-A3A8-41AB-9CDC-0258C96D8E25";
paths = (
{
nodes = (
"239 630 LINE",
"395 630 LINE",
"437 546 LINE",
"360 183 LINE",
"282 183 LINE",
"324 380 LINE",
"206 380 LINE",
"188 295 LINE",
"199 262 LINE",
"264 262 LINE",
"247 183 LINE",
"144 183 LINE",
"105 272 LINE",
"163 546 LINE"
);
},
{
nodes = (
"341 459 LINE",
"354 522 LINE",
"340 552 LINE",
"261 552 LINE",
"255 546 OFFCURVE",
"242 528 OFFCURVE",
"237 522 QCURVE",
"223 459 LINE"
);
}
);
width = 460;
}
);
unicode = 00AA;
},
{
glyphname = plusminus;
layers = (
{
layerId = "7D987CB1-A3A8-41AB-9CDC-0258C96D8E25";
paths = (
{
nodes = (
"252 563 LINE",
"371 563 LINE",
"344 434 LINE",
"469 434 LINE",
"443 314 LINE",
"320 314 LINE",
"292 179 LINE",
"173 179 LINE",
"201 314 LINE",
"79 314 LINE",
"105 434 LINE",
"225 434 LINE"
);
},
{
nodes = (
"28 39 LINE",
"54 159 LINE",
"418 159 LINE",
"392 39 LINE"
);
}
);
width = 401;
}
);
unicode = 00B1;
},
{
glyphname = twosuperior;
layers = (
{
layerId = "7D987CB1-A3A8-41AB-9CDC-0258C96D8E25";
paths = (
{
nodes = (
"395 341 LINE",
"377 263 LINE",
"332 263 LINE",
"266 183 LINE",
"125 183 LINE",
"83 271 LINE",
"108 379 LINE",
"187 457 LINE",
"306 457 LINE",
"331 483 LINE",
"340 520 LINE",
"327 552 LINE",
"249 552 LINE",
"223 520 LINE",
"213 478 LINE",
"131 478 LINE",
"145 544 LINE",
"225 629 LINE",
"386 629 LINE",
"427 547 LINE",
"408 455 LINE",
"329 379 LINE",
"211 379 LINE",
"205 373 OFFCURVE",
"192 361 OFFCURVE",
"185 355 QCURVE",
"172 294 LINE",
"183 261 LINE",
"236 261 LINE",
"302 341 LINE"
);
}
);
width = 351;
}
);
unicode = 00B2;
},
{
glyphname = threesuperior;
layers = (
{
layerId = "7D987CB1-A3A8-41AB-9CDC-0258C96D8E25";
paths = (
{
nodes = (
"227 630 LINE",
"386 630 LINE",
"427 546 LINE",
"402 441 LINE",
"363 404 LINE",
"368 395 OFFCURVE",
"379 376 OFFCURVE",
"385 367 QCURVE",
"363 270 LINE",
"282 183 LINE",
"124 183 LINE",
"83 270 LINE",
"96 329 LINE",
"178 329 LINE",
"170 292 LINE",
"182 260 LINE",
"260 260 LINE",
"286 292 LINE",
"297 341 LINE",
"283 365 LINE",
"201 365 LINE",
"218 443 LINE",
"301 443 LINE",
"330 476 LINE",
"341 523 LINE",
"328 553 LINE",
"250 553 LINE",
"224 523 LINE",
"215 483 LINE",
"133 483 LINE",
"147 546 LINE"
);
}
);
width = 452;
}
);
unicode = 00B3;
},
{
glyphname = acute;
layers = (
{
layerId = "7D987CB1-A3A8-41AB-9CDC-0258C96D8E25";
paths = (
{
nodes = (
"295 727 LINE",
"393 897 LINE",
"494 827 LINE",
"428 727 LINE"
);
}
);
width = 520;
}
);
unicode = 00B4;
},
{
glyphname = paragraph;
layers = (
{
layerId = "7D987CB1-A3A8-41AB-9CDC-0258C96D8E25";
paths = (
{
nodes = (
"516 -82 LINE",
"696 735 LINE",
"575 735 LINE",
"393 -82 LINE",
"299 -82 LINE",
"425 473 LINE",
"222 473 LINE",
"173 584 LINE",
"200 723 LINE",
"296 829 LINE",
"963 829 LINE",
"937 735 LINE",
"792 735 LINE",
"610 -82 LINE"
);
}
);
width = 676;
}
);
unicode = 00B6;
},
{
glyphname = periodcentered;
layers = (
{
layerId = "7D987CB1-A3A8-41AB-9CDC-0258C96D8E25";
paths = (
{
nodes = (
"261 537 LINE",
"287 657 LINE",
"406 657 LINE",
"380 537 LINE"
);
}
);
width = 401;
}
);
unicode = 00B7;
},
{
glyphname = cedilla;
layers = (
{
layerId = "7D987CB1-A3A8-41AB-9CDC-0258C96D8E25";
paths = (
{
nodes = (
"239 83 LINE",
"217 2 LINE",
"224 -8 LINE",
"325 -8 LINE",
"368 -76 LINE",
"345 -165 LINE",
"269 -239 LINE",
"121 -239 LINE",
"81 -161 LINE",
"91 -121 LINE",
"186 -121 LINE",
"181 -144 LINE",
"187 -159 LINE",
"240 -159 LINE",
"256 -141 LINE",
"258 -130 OFFCURVE",
"266 -100 OFFCURVE",
"269 -89 QCURVE",
"261 -78 LINE",
"160 -78 LINE",
"116 -21 LINE",
"148 83 LINE"
);
}
);
width = 263;
}
);
unicode = 00B8;
},
{
glyphname = onesuperior;
layers = (
{
layerId = "7D987CB1-A3A8-41AB-9CDC-0258C96D8E25";
paths = (
{
nodes = (
"284 294 LINE",
"299 261 LINE",
"382 261 LINE",
"360 183 LINE",
"227 183 LINE",
"177 271 LINE",
"249 552 LINE",
"147 552 LINE",
"168 630 LINE",
"372 630 LINE"
);
}
);
width = 416;
}
);
unicode = 00B9;
},
{
glyphname = ordmasculine;
layers = (
{
layerId = "7D987CB1-A3A8-41AB-9CDC-0258C96D8E25";
paths = (
{
nodes = (
"244 630 LINE",
"417 630 LINE",
"460 544 LINE",
"397 273 LINE",
"314 183 LINE",
"141 183 LINE",
"98 271 LINE",
"160 544 LINE"
);
},
{
nodes = (
"317 295 LINE",
"369 521 LINE",
"357 552 LINE",
"267 552 LINE",
"241 521 LINE",
"189 295 LINE",
"200 263 LINE",
"291 263 LINE"
);
}
);
width = 472;
}
);
unicode = 00BA;
},
{
glyphname = questiondown;
layers = (
{
layerId = "7D987CB1-A3A8-41AB-9CDC-0258C96D8E25";
paths = (
{
nodes = (
"340 17 LINE",
"111 17 LINE",
"51 146 LINE",
"79 278 LINE",
"192 395 LINE",
"255 395 LINE",
"289 432 LINE",
"311 535 LINE",
"430 535 LINE",
"400 393 LINE",
"286 277 LINE",
"224 277 LINE",
"188 239 LINE",
"176 182 LINE",
"194 135 LINE",
"307 135 LINE",
"344 182 LINE",
"357 244 LINE",
"476 244 LINE",
"456 146 LINE"
);
},
{
nodes = (
"439 574 LINE",
"320 574 LINE",
"345 693 LINE",
"464 693 LINE"
);
}
);
width = 452;
}
);
unicode = 00BF;
},
{
glyphname = Agrave;
layers = (
{
layerId = "7D987CB1-A3A8-41AB-9CDC-0258C96D8E25";
paths = (
{
nodes = (
"355 732 LINE",
"286 862 LINE",
"397 862 LINE",
"456 732 LINE"
);
},
{
nodes = (
"254 691 LINE",
"490 691 LINE",
"553 564 LINE",
"437 17 LINE",
"319 17 LINE",
"382 314 LINE",
"205 314 LINE",
"178 186 LINE",
"194 136 LINE",
"292 136 LINE",
"267 17 LINE",
"111 17 LINE",
"53 152 LINE",
"140 564 LINE"
);
},
{
nodes = (
"408 433 LINE",
"428 528 LINE",
"407 573 LINE",
"288 573 LINE",
"279 564 OFFCURVE",
"259 537 OFFCURVE",
"251 528 QCURVE",
"231 433 LINE"
);
}
);
width = 460;
}
);
unicode = 00C0;
},
{
glyphname = Aacute;
layers = (
{
layerId = "7D987CB1-A3A8-41AB-9CDC-0258C96D8E25";
paths = (
{
nodes = (
"355 732 LINE",
"414 862 LINE",
"525 862 LINE",
"456 732 LINE"
);
},
{
nodes = (
"254 691 LINE",
"490 691 LINE",
"553 564 LINE",
"437 17 LINE",
"319 17 LINE",
"382 314 LINE",
"205 314 LINE",
"178 186 LINE",
"194 136 LINE",
"292 136 LINE",
"267 17 LINE",
"111 17 LINE",
"53 152 LINE",
"140 564 LINE"
);
},
{
nodes = (
"408 433 LINE",
"428 528 LINE",
"407 573 LINE",
"288 573 LINE",
"279 564 OFFCURVE",
"259 537 OFFCURVE",
"251 528 QCURVE",
"231 433 LINE"
);
}
);
width = 460;
}
);
unicode = 00C1;
},
{
glyphname = Acircumflex;
layers = (
{
layerId = "7D987CB1-A3A8-41AB-9CDC-0258C96D8E25";
paths = (
{
nodes = (
"201 732 LINE",
"291 867 LINE",
"405 867 LINE",
"315 732 LINE"
);
},
{
nodes = (
"427 732 LINE",
"368 867 LINE",
"483 867 LINE",
"541 732 LINE"
);
},
{
nodes = (
"254 691 LINE",
"490 691 LINE",
"553 564 LINE",
"437 17 LINE",
"319 17 LINE",
"382 314 LINE",
"205 314 LINE",
"178 186 LINE",
"194 136 LINE",
"292 136 LINE",
"267 17 LINE",
"111 17 LINE",
"53 152 LINE",
"140 564 LINE"
);
},
{
nodes = (
"408 433 LINE",
"428 528 LINE",
"407 573 LINE",
"288 573 LINE",
"279 564 OFFCURVE",
"259 537 OFFCURVE",
"251 528 QCURVE",
"231 433 LINE"
);
}
);
width = 460;
}
);
unicode = 00C2;
},
{
glyphname = Atilde;
layers = (
{
layerId = "7D987CB1-A3A8-41AB-9CDC-0258C96D8E25";
paths = (
{
nodes = (
"185 765 LINE",
"194 785 OFFCURVE",
"218 825 OFFCURVE",
"248 856 OFFCURVE",
"286 876 OFFCURVE",
"309 876 QCURVE SMOOTH",
"331 876 OFFCURVE",
"374 854 OFFCURVE",
"391 842 QCURVE SMOOTH",
"409 830 OFFCURVE",
"422 827 OFFCURVE",
"425 827 QCURVE SMOOTH",
"436 827 OFFCURVE",
"451 848 OFFCURVE",
"467 876 QCURVE",
"551 843 LINE",
"541 823 OFFCURVE",
"518 784 OFFCURVE",
"488 752 OFFCURVE",
"450 732 OFFCURVE",
"426 732 QCURVE SMOOTH",
"404 732 OFFCURVE",
"360 755 OFFCURVE",
"343 766 QCURVE SMOOTH",
"332 773 OFFCURVE",
"316 784 OFFCURVE",
"303 784 OFFCURVE",
"291 772 OFFCURVE",
"284 757 QCURVE SMOOTH",
"282 752 OFFCURVE",
"273 733 OFFCURVE",
"271 729 QCURVE"
);
},
{
nodes = (
"254 691 LINE",
"490 691 LINE",
"553 564 LINE",
"437 17 LINE",
"319 17 LINE",
"382 314 LINE",
"205 314 LINE",
"178 186 LINE",
"194 136 LINE",
"292 136 LINE",
"267 17 LINE",
"111 17 LINE",
"53 152 LINE",
"140 564 LINE"
);
},
{
nodes = (
"408 433 LINE",
"428 528 LINE",
"407 573 LINE",
"288 573 LINE",
"279 564 OFFCURVE",
"259 537 OFFCURVE",
"251 528 QCURVE",
"231 433 LINE"
);
}
);
width = 460;
}
);
unicode = 00C3;
},
{
glyphname = Adieresis;
layers = (
{
layerId = "7D987CB1-A3A8-41AB-9CDC-0258C96D8E25";
paths = (
{
nodes = (
"211 731 LINE",
"237 851 LINE",
"356 851 LINE",
"330 731 LINE"
);
},
{
nodes = (
"410 731 LINE",
"436 851 LINE",
"555 851 LINE",
"529 731 LINE"
);
},
{
nodes = (
"254 691 LINE",
"490 691 LINE",
"553 564 LINE",
"437 17 LINE",
"319 17 LINE",
"382 314 LINE",
"205 314 LINE",
"178 186 LINE",
"194 136 LINE",
"292 136 LINE",
"267 17 LINE",
"111 17 LINE",
"53 152 LINE",
"140 564 LINE"
);
},
{
nodes = (
"408 433 LINE",
"428 528 LINE",
"407 573 LINE",
"288 573 LINE",
"279 564 OFFCURVE",
"259 537 OFFCURVE",
"251 528 QCURVE",
"231 433 LINE"
);
}
);
width = 460;
}
);
unicode = 00C4;
},
{
glyphname = Aring;
layers = (
{
layerId = "7D987CB1-A3A8-41AB-9CDC-0258C96D8E25";
paths = (
{
nodes = (
"428 966 OFFCURVE",
"471 947 OFFCURVE",
"503 916 OFFCURVE",
"522 873 OFFCURVE",
"522 849 QCURVE SMOOTH",
"522 825 OFFCURVE",
"503 782 OFFCURVE",
"471 751 OFFCURVE",
"428 732 OFFCURVE",
"403 732 QCURVE SMOOTH",
"378 732 OFFCURVE",
"335 751 OFFCURVE",
"303 782 OFFCURVE",
"285 825 OFFCURVE",
"285 849 QCURVE SMOOTH",
"285 873 OFFCURVE",
"303 916 OFFCURVE",
"335 947 OFFCURVE",
"378 966 OFFCURVE",
"403 966 QCURVE SMOOTH"
);
},
{
nodes = (
"419 813 OFFCURVE",
"440 834 OFFCURVE",
"440 849 QCURVE SMOOTH",
"440 864 OFFCURVE",
"419 885 OFFCURVE",
"403 885 QCURVE SMOOTH",
"389 885 OFFCURVE",
"367 864 OFFCURVE",
"367 849 QCURVE SMOOTH",
"367 834 OFFCURVE",
"389 813 OFFCURVE",
"403 813 QCURVE SMOOTH"
);
},
{
nodes = (
"254 691 LINE",
"490 691 LINE",
"553 564 LINE",
"437 17 LINE",
"319 17 LINE",
"382 314 LINE",
"205 314 LINE",
"178 186 LINE",
"194 136 LINE",
"292 136 LINE",
"267 17 LINE",
"111 17 LINE",
"53 152 LINE",
"140 564 LINE"
);
},
{
nodes = (
"408 433 LINE",
"428 528 LINE",
"407 573 LINE",
"288 573 LINE",
"279 564 OFFCURVE",
"259 537 OFFCURVE",
"251 528 QCURVE",
"231 433 LINE"
);
}
);
width = 460;
}
);
unicode = 00C5;
},
{
glyphname = AE;
layers = (
{
layerId = "7D987CB1-A3A8-41AB-9CDC-0258C96D8E25";
paths = (
{
nodes = (
"254 691 LINE",
"463 691 LINE",
"463 693 LINE",
"851 693 LINE",
"826 575 LINE",
"558 575 LINE",
"528 434 LINE",
"707 434 LINE",
"682 316 LINE",
"503 316 LINE",
"475 186 LINE",
"492 137 LINE",
"577 137 LINE",
"671 258 LINE",
"806 258 LINE",
"782 142 LINE",
"718 142 LINE",
"621 17 LINE",
"319 17 LINE",
"382 314 LINE",
"205 314 LINE",
"178 186 LINE",
"194 136 LINE",
"292 136 LINE",
"267 17 LINE",
"111 17 LINE",
"53 152 LINE",
"140 564 LINE"
);
},
{
nodes = (
"408 433 LINE",
"428 528 LINE",
"407 573 LINE",
"288 573 LINE",
"279 564 OFFCURVE",
"259 537 OFFCURVE",
"251 528 QCURVE",
"231 433 LINE"
);
}
);
width = 750;
}
);
unicode = 00C6;
},
{
glyphname = Ccedilla;
layers = (
{
layerId = "7D987CB1-A3A8-41AB-9CDC-0258C96D8E25";
paths = (
{
nodes = (
"261 693 LINE",
"502 693 LINE",
"562 564 LINE",
"542 467 LINE",
"423 467 LINE",
"436 528 LINE",
"419 575 LINE",
"294 575 LINE",
"257 528 LINE",
"184 186 LINE",
"201 137 LINE",
"326 137 LINE",
"363 186 LINE",
"375 243 LINE",
"494 243 LINE",
"475 152 LINE",
"358 17 LINE",
"226 17 LINE",
"222 2 LINE",
"229 -8 LINE",
"330 -8 LINE",
"373 -76 LINE",
"350 -165 LINE",
"274 -239 LINE",
"126 -239 LINE",
"86 -161 LINE",
"96 -121 LINE",
"191 -121 LINE",
"186 -144 LINE",
"192 -159 LINE",
"245 -159 LINE",
"261 -141 LINE",
"263 -130 OFFCURVE",
"271 -100 OFFCURVE",
"274 -89 QCURVE",
"266 -78 LINE",
"165 -78 LINE",
"121 -21 LINE",
"133 17 LINE",
"117 17 LINE",
"58 152 LINE",
"145 564 LINE"
);
}
);
width = 460;
}
);
unicode = 00C7;
},
{
glyphname = Egrave;
layers = (
{
layerId = "7D987CB1-A3A8-41AB-9CDC-0258C96D8E25";
paths = (
{
nodes = (
"381 258 LINE",
"516 258 LINE",
"492 142 LINE",
"428 142 LINE",
"331 17 LINE",
"120 17 LINE",
"58 152 LINE",
"173 693 LINE",
"561 693 LINE",
"536 575 LINE",
"268 575 LINE",
"238 434 LINE",
"417 434 LINE",
"392 316 LINE",
"213 316 LINE",
"185 186 LINE",
"202 137 LINE",
"287 137 LINE"
);
},
{
nodes = (
"336 732 LINE",
"267 862 LINE",
"378 862 LINE",
"437 732 LINE"
);
}
);
width = 477;
}
);
unicode = 00C8;
},
{
glyphname = Eacute;
layers = (
{
layerId = "7D987CB1-A3A8-41AB-9CDC-0258C96D8E25";
paths = (
{
nodes = (
"381 258 LINE",
"516 258 LINE",
"492 142 LINE",
"428 142 LINE",
"331 17 LINE",
"120 17 LINE",
"58 152 LINE",
"173 693 LINE",
"561 693 LINE",
"536 575 LINE",
"268 575 LINE",
"238 434 LINE",
"417 434 LINE",
"392 316 LINE",
"213 316 LINE",
"185 186 LINE",
"202 137 LINE",
"287 137 LINE"
);
},
{
nodes = (
"317 732 LINE",
"376 862 LINE",
"487 862 LINE",
"418 732 LINE"
);
}
);
width = 477;
}
);
unicode = 00C9;
},
{
glyphname = Edieresis;
layers = (
{
layerId = "7D987CB1-A3A8-41AB-9CDC-0258C96D8E25";
paths = (
{
nodes = (
"381 258 LINE",
"516 258 LINE",
"492 142 LINE",
"428 142 LINE",
"331 17 LINE",
"120 17 LINE",
"58 152 LINE",
"173 693 LINE",
"561 693 LINE",
"536 575 LINE",
"268 575 LINE",
"238 434 LINE",
"417 434 LINE",
"392 316 LINE",
"213 316 LINE",
"185 186 LINE",
"202 137 LINE",
"287 137 LINE"
);
},
{
nodes = (
"200 731 LINE",
"226 851 LINE",
"345 851 LINE",
"319 731 LINE"
);
},
{
nodes = (
"399 731 LINE",
"425 851 LINE",
"544 851 LINE",
"518 731 LINE"
);
}
);
width = 477;
}
);
unicode = 00CB;
},
{
glyphname = Igrave;
layers = (
{
layerId = "7D987CB1-A3A8-41AB-9CDC-0258C96D8E25";
paths = (
{
nodes = (
"182 186 LINE",
"200 137 LINE",
"298 137 LINE",
"272 17 LINE",
"116 17 LINE",
"57 152 LINE",
"172 693 LINE",
"290 693 LINE"
);
},
{
nodes = (
"223 732 LINE",
"154 862 LINE",
"265 862 LINE",
"324 732 LINE"
);
}
);
width = 278;
}
);
unicode = 00CC;
},
{
glyphname = Iacute;
layers = (
{
layerId = "7D987CB1-A3A8-41AB-9CDC-0258C96D8E25";
paths = (
{
nodes = (
"182 186 LINE",
"200 137 LINE",
"298 137 LINE",
"272 17 LINE",
"116 17 LINE",
"57 152 LINE",
"172 693 LINE",
"290 693 LINE"
);
},
{
nodes = (
"196 732 LINE",
"255 862 LINE",
"366 862 LINE",
"297 732 LINE"
);
}
);
width = 278;
}
);
unicode = 00CD;
},
{
glyphname = Icircumflex;
layers = (
{
layerId = "7D987CB1-A3A8-41AB-9CDC-0258C96D8E25";
paths = (
{
nodes = (
"182 186 LINE",
"200 137 LINE",
"298 137 LINE",
"272 17 LINE",
"116 17 LINE",
"57 152 LINE",
"172 693 LINE",
"290 693 LINE"
);
},
{
nodes = (
"92 732 LINE",
"151 867 LINE",
"265 867 LINE",
"206 732 LINE"
);
},
{
nodes = (
"355 732 LINE",
"296 867 LINE",
"411 867 LINE",
"469 732 LINE"
);
}
);
width = 278;
}
);
unicode = 00CE;
},
{
glyphname = Idieresis;
layers = (
{
layerId = "7D987CB1-A3A8-41AB-9CDC-0258C96D8E25";
paths = (
{
nodes = (
"182 186 LINE",
"200 137 LINE",
"298 137 LINE",
"272 17 LINE",
"116 17 LINE",
"57 152 LINE",
"172 693 LINE",
"290 693 LINE"
);
},
{
nodes = (
"73 731 LINE",
"99 851 LINE",
"218 851 LINE",
"192 731 LINE"
);
},
{
nodes = (
"272 731 LINE",
"298 851 LINE",
"417 851 LINE",
"391 731 LINE"
);
}
);
width = 278;
}
);
unicode = 00CF;
},
{
glyphname = Eth;
layers = (
{
layerId = "7D987CB1-A3A8-41AB-9CDC-0258C96D8E25";
paths = (
{
nodes = (
"120 314 LINE",
"67 314 LINE",
"93 434 LINE",
"146 434 LINE",
"201 694 LINE",
"519 694 LINE",
"579 564 LINE",
"492 152 LINE",
"375 17 LINE",
"146 17 LINE",
"86 152 LINE"
);
},
{
nodes = (
"381 186 LINE",
"454 528 LINE",
"449 537 OFFCURVE",
"440 566 OFFCURVE",
"435 575 QCURVE",
"296 575 LINE",
"266 434 LINE",
"375 434 LINE",
"349 314 LINE",
"240 314 LINE",
"213 186 LINE",
"229 137 LINE",
"343 137 LINE"
);
}
);
width = 472;
}
);
unicode = 00D0;
},
{
glyphname = Ntilde;
layers = (
{
layerId = "7D987CB1-A3A8-41AB-9CDC-0258C96D8E25";
paths = (
{
nodes = (
"259 765 LINE",
"268 785 OFFCURVE",
"292 825 OFFCURVE",
"322 856 OFFCURVE",
"360 876 OFFCURVE",
"383 876 QCURVE SMOOTH",
"405 876 OFFCURVE",
"448 854 OFFCURVE",
"465 842 QCURVE SMOOTH",
"483 830 OFFCURVE",
"496 827 OFFCURVE",
"499 827 QCURVE SMOOTH",
"510 827 OFFCURVE",
"525 848 OFFCURVE",
"541 876 QCURVE",
"625 843 LINE",
"615 823 OFFCURVE",
"592 784 OFFCURVE",
"562 752 OFFCURVE",
"524 732 OFFCURVE",
"500 732 QCURVE SMOOTH",
"478 732 OFFCURVE",
"434 755 OFFCURVE",
"417 766 QCURVE SMOOTH",
"406 773 OFFCURVE",
"390 784 OFFCURVE",
"377 784 OFFCURVE",
"365 772 OFFCURVE",
"358 757 QCURVE SMOOTH",
"356 752 OFFCURVE",
"347 733 OFFCURVE",
"345 729 QCURVE"
);
},
{
nodes = (
"437 254 LINE",
"531 694 LINE",
"651 694 LINE",
"507 17 LINE",
"371 17 LINE",
"244 464 LINE",
"185 186 LINE",
"202 137 LINE",
"300 137 LINE",
"274 17 LINE",
"118 17 LINE",
"58 152 LINE",
"173 694 LINE",
"313 694 LINE"
);
}
);
width = 537;
}
);
unicode = 00D1;
},
{
glyphname = Ograve;
layers = (
{
layerId = "7D987CB1-A3A8-41AB-9CDC-0258C96D8E25";
paths = (
{
nodes = (
"328 137 LINE",
"365 186 LINE",
"438 528 LINE",
"421 575 LINE",
"295 575 LINE",
"259 528 LINE",
"186 186 LINE",
"202 137 LINE"
);
},
{
nodes = (
"146 564 LINE",
"263 693 LINE",
"504 693 LINE",
"564 564 LINE",
"477 152 LINE",
"360 17 LINE",
"119 17 LINE",
"59 152 LINE"
);
},
{
nodes = (
"430 732 LINE",
"329 732 LINE",
"260 862 LINE",
"371 862 LINE"
);
}
);
width = 472;
}
);
unicode = 00D2;
},
{
glyphname = Oacute;
layers = (
{
layerId = "7D987CB1-A3A8-41AB-9CDC-0258C96D8E25";
paths = (
{
nodes = (
"328 137 LINE",
"365 186 LINE",
"438 528 LINE",
"421 575 LINE",
"295 575 LINE",
"259 528 LINE",
"186 186 LINE",
"202 137 LINE"
);
},
{
nodes = (
"146 564 LINE",
"263 693 LINE",
"504 693 LINE",
"564 564 LINE",
"477 152 LINE",
"360 17 LINE",
"119 17 LINE",
"59 152 LINE"
);
},
{
nodes = (
"415 732 LINE",
"314 732 LINE",
"373 862 LINE",
"484 862 LINE"
);
}
);
width = 472;
}
);
unicode = 00D3;
},
{
glyphname = Ocircumflex;
layers = (
{
layerId = "7D987CB1-A3A8-41AB-9CDC-0258C96D8E25";
paths = (
{
nodes = (
"328 137 LINE",
"365 186 LINE",
"438 528 LINE",
"421 575 LINE",
"295 575 LINE",
"259 528 LINE",
"186 186 LINE",
"202 137 LINE"
);
},
{
nodes = (
"146 564 LINE",
"263 693 LINE",
"504 693 LINE",
"564 564 LINE",
"477 152 LINE",
"360 17 LINE",
"119 17 LINE",
"59 152 LINE"
);
},
{
nodes = (
"326 732 LINE",
"212 732 LINE",
"271 867 LINE",
"385 867 LINE"
);
},
{
nodes = (
"589 732 LINE",
"475 732 LINE",
"416 867 LINE",
"531 867 LINE"
);
}
);
width = 472;
}
);
unicode = 00D4;
},
{
glyphname = Otilde;
layers = (
{
layerId = "7D987CB1-A3A8-41AB-9CDC-0258C96D8E25";
paths = (
{
nodes = (
"200 765 LINE",
"209 785 OFFCURVE",
"233 825 OFFCURVE",
"263 856 OFFCURVE",
"301 876 OFFCURVE",
"324 876 QCURVE SMOOTH",
"346 876 OFFCURVE",
"389 854 OFFCURVE",
"406 842 QCURVE SMOOTH",
"424 830 OFFCURVE",
"437 827 OFFCURVE",
"440 827 QCURVE SMOOTH",
"451 827 OFFCURVE",
"466 848 OFFCURVE",
"482 876 QCURVE",
"566 843 LINE",
"556 823 OFFCURVE",
"533 784 OFFCURVE",
"503 752 OFFCURVE",
"465 732 OFFCURVE",
"441 732 QCURVE SMOOTH",
"419 732 OFFCURVE",
"375 755 OFFCURVE",
"358 766 QCURVE SMOOTH",
"347 773 OFFCURVE",
"331 784 OFFCURVE",
"318 784 OFFCURVE",
"306 772 OFFCURVE",
"299 757 QCURVE SMOOTH",
"297 752 OFFCURVE",
"288 733 OFFCURVE",
"286 729 QCURVE"
);
},
{
nodes = (
"263 693 LINE",
"504 693 LINE",
"564 564 LINE",
"477 152 LINE",
"360 17 LINE",
"119 17 LINE",
"59 152 LINE",
"146 564 LINE"
);
},
{
nodes = (
"365 186 LINE",
"438 528 LINE",
"421 575 LINE",
"295 575 LINE",
"259 528 LINE",
"186 186 LINE",
"202 137 LINE",
"328 137 LINE"
);
}
);
width = 472;
}
);
unicode = 00D5;
},
{
glyphname = Odieresis;
layers = (
{
layerId = "7D987CB1-A3A8-41AB-9CDC-0258C96D8E25";
paths = (
{
nodes = (
"328 137 LINE",
"365 186 LINE",
"438 528 LINE",
"421 575 LINE",
"295 575 LINE",
"259 528 LINE",
"186 186 LINE",
"202 137 LINE"
);
},
{
nodes = (
"146 564 LINE",
"263 693 LINE",
"504 693 LINE",
"564 564 LINE",
"477 152 LINE",
"360 17 LINE",
"119 17 LINE",
"59 152 LINE"
);
},
{
nodes = (
"350 731 LINE",
"231 731 LINE",
"257 851 LINE",
"376 851 LINE"
);
},
{
nodes = (
"549 731 LINE",
"430 731 LINE",
"456 851 LINE",
"575 851 LINE"
);
}
);
width = 472;
}
);
unicode = 00D6;
},
{
glyphname = multiply;
layers = (
{
layerId = "7D987CB1-A3A8-41AB-9CDC-0258C96D8E25";
paths = (
{
nodes = (
"326 141 LINE",
"236 246 LINE",
"101 141 LINE",
"46 234 LINE",
"166 327 LINE",
"86 421 LINE",
"180 512 LINE",
"270 408 LINE",
"405 512 LINE",
"462 421 LINE",
"341 327 LINE",
"422 234 LINE"
);
}
);
width = 384;
}
);
unicode = 00D7;
},
{
glyphname = Oslash;
layers = (
{
layerId = "7D987CB1-A3A8-41AB-9CDC-0258C96D8E25";
paths = (
{
nodes = (
"295 575 LINE",
"259 528 LINE",
"186 186 LINE",
"366 575 LINE"
);
},
{
nodes = (
"328 137 LINE",
"365 186 LINE",
"438 528 LINE",
"437 529 LINE",
"255 137 LINE"
);
},
{
nodes = (
"176 -34 LINE",
"84 -34 LINE",
"113 29 LINE",
"59 152 LINE",
"146 564 LINE",
"263 693 LINE",
"421 693 LINE",
"443 739 LINE",
"535 739 LINE",
"509 682 LINE",
"564 564 LINE",
"477 152 LINE",
"360 17 LINE",
"199 17 LINE"
);
}
);
width = 472;
}
);
unicode = 00D8;
},
{
glyphname = Ugrave;
layers = (
{
layerId = "7D987CB1-A3A8-41AB-9CDC-0258C96D8E25";
paths = (
{
nodes = (
"351 186 LINE",
"459 693 LINE",
"577 693 LINE",
"462 152 LINE",
"345 17 LINE",
"116 17 LINE",
"57 152 LINE",
"172 693 LINE",
"291 693 LINE",
"183 186 LINE",
"200 137 LINE",
"313 137 LINE"
);
},
{
nodes = (
"345 732 LINE",
"276 862 LINE",
"387 862 LINE",
"446 732 LINE"
);
}
);
width = 457;
}
);
unicode = 00D9;
},
{
glyphname = Uacute;
layers = (
{
layerId = "7D987CB1-A3A8-41AB-9CDC-0258C96D8E25";
paths = (
{
nodes = (
"351 186 LINE",
"459 693 LINE",
"577 693 LINE",
"462 152 LINE",
"345 17 LINE",
"116 17 LINE",
"57 152 LINE",
"172 693 LINE",
"291 693 LINE",
"183 186 LINE",
"200 137 LINE",
"313 137 LINE"
);
},
{
nodes = (
"320 732 LINE",
"379 862 LINE",
"490 862 LINE",
"421 732 LINE"
);
}
);
width = 457;
}
);
unicode = 00DA;
},
{
glyphname = Ucircumflex;
layers = (
{
layerId = "7D987CB1-A3A8-41AB-9CDC-0258C96D8E25";
paths = (
{
nodes = (
"351 186 LINE",
"459 693 LINE",
"577 693 LINE",
"462 152 LINE",
"345 17 LINE",
"116 17 LINE",
"57 152 LINE",
"172 693 LINE",
"291 693 LINE",
"183 186 LINE",
"200 137 LINE",
"313 137 LINE"
);
},
{
nodes = (
"165 732 LINE",
"224 867 LINE",
"338 867 LINE",
"279 732 LINE"
);
},
{
nodes = (
"428 732 LINE",
"369 867 LINE",
"484 867 LINE",
"542 732 LINE"
);
}
);
width = 457;
}
);
unicode = 00DB;
},
{
glyphname = Udieresis;
layers = (
{
layerId = "7D987CB1-A3A8-41AB-9CDC-0258C96D8E25";
paths = (
{
nodes = (
"351 186 LINE",
"459 693 LINE",
"577 693 LINE",
"462 152 LINE",
"345 17 LINE",
"116 17 LINE",
"57 152 LINE",
"172 693 LINE",
"291 693 LINE",
"183 186 LINE",
"200 137 LINE",
"313 137 LINE"
);
},
{
nodes = (
"217 731 LINE",
"243 851 LINE",
"362 851 LINE",
"336 731 LINE"
);
},
{
nodes = (
"416 731 LINE",
"442 851 LINE",
"561 851 LINE",
"535 731 LINE"
);
}
);
width = 457;
}
);
unicode = 00DC;
},
{
glyphname = Yacute;
layers = (
{
layerId = "7D987CB1-A3A8-41AB-9CDC-0258C96D8E25";
paths = (
{
nodes = (
"299 732 LINE",
"358 862 LINE",
"469 862 LINE",
"400 732 LINE"
);
},
{
nodes = (
"375 471 LINE",
"422 693 LINE",
"542 693 LINE",
"486 432 LINE",
"371 315 LINE",
"333 315 LINE",
"270 17 LINE",
"151 17 LINE",
"214 315 LINE",
"176 315 LINE",
"113 432 LINE",
"169 693 LINE",
"288 693 LINE",
"241 471 LINE",
"245 462 OFFCURVE",
"256 443 OFFCURVE",
"261 433 QCURVE",
"338 433 LINE"
);
}
);
width = 416;
}
);
unicode = 00DD;
},
{
glyphname = Thorn;
layers = (
{
layerId = "7D987CB1-A3A8-41AB-9CDC-0258C96D8E25";
paths = (
{
nodes = (
"408 238 LINE",
"445 287 LINE",
"487 475 LINE",
"470 522 LINE",
"285 522 LINE",
"224 238 LINE"
);
},
{
nodes = (
"35 -45 LINE",
"206 761 LINE",
"336 761 LINE",
"310 640 LINE",
"553 640 LINE",
"613 511 LINE",
"557 253 LINE",
"440 118 LINE",
"198 118 LINE",
"163 -45 LINE"
);
}
);
width = 522;
}
);
unicode = 00DE;
},
{
glyphname = germandbls;
layers = (
{
layerId = "7D987CB1-A3A8-41AB-9CDC-0258C96D8E25";
paths = (
{
nodes = (
"346 186 LINE",
"362 262 LINE",
"342 299 LINE",
"236 299 LINE",
"265 418 LINE",
"366 418 LINE",
"375 427 OFFCURVE",
"394 445 OFFCURVE",
"403 455 QCURVE",
"419 528 LINE",
"401 575 LINE",
"295 575 LINE",
"257 528 LINE",
"150 17 LINE",
"34 17 LINE",
"145 564 LINE",
"263 693 LINE",
"484 693 LINE",
"544 564 LINE",
"513 416 LINE",
"457 359 LINE",
"465 345 OFFCURVE",
"483 315 OFFCURVE",
"489 302 QCURVE",
"457 152 LINE",
"340 17 LINE",
"183 17 LINE",
"209 137 LINE",
"308 137 LINE"
);
}
);
width = 454;
}
);
unicode = 00DF;
},
{
glyphname = agrave;
layers = (
{
layerId = "7D987CB1-A3A8-41AB-9CDC-0258C96D8E25";
paths = (
{
nodes = (
"355 732 LINE",
"286 862 LINE",
"397 862 LINE",
"456 732 LINE"
);
},
{
nodes = (
"254 691 LINE",
"490 691 LINE",
"553 564 LINE",
"437 17 LINE",
"319 17 LINE",
"382 314 LINE",
"205 314 LINE",
"178 186 LINE",
"194 136 LINE",
"292 136 LINE",
"267 17 LINE",
"111 17 LINE",
"53 152 LINE",
"140 564 LINE"
);
},
{
nodes = (
"408 433 LINE",
"428 528 LINE",
"407 573 LINE",
"288 573 LINE",
"279 564 OFFCURVE",
"259 537 OFFCURVE",
"251 528 QCURVE",
"231 433 LINE"
);
}
);
width = 460;
}
);
unicode = 00E0;
},
{
glyphname = aacute;
layers = (
{
layerId = "7D987CB1-A3A8-41AB-9CDC-0258C96D8E25";
paths = (
{
nodes = (
"355 732 LINE",
"414 862 LINE",
"525 862 LINE",
"456 732 LINE"
);
},
{
nodes = (
"254 691 LINE",
"490 691 LINE",
"553 564 LINE",
"437 17 LINE",
"319 17 LINE",
"382 314 LINE",
"205 314 LINE",
"178 186 LINE",
"194 136 LINE",
"292 136 LINE",
"267 17 LINE",
"111 17 LINE",
"53 152 LINE",
"140 564 LINE"
);
},
{
nodes = (
"408 433 LINE",
"428 528 LINE",
"407 573 LINE",
"288 573 LINE",
"279 564 OFFCURVE",
"259 537 OFFCURVE",
"251 528 QCURVE",
"231 433 LINE"
);
}
);
width = 460;
}
);
unicode = 00E1;
},
{
glyphname = atilde;
layers = (
{
layerId = "7D987CB1-A3A8-41AB-9CDC-0258C96D8E25";
paths = (
{
nodes = (
"185 765 LINE",
"194 785 OFFCURVE",
"218 825 OFFCURVE",
"248 856 OFFCURVE",
"286 876 OFFCURVE",
"309 876 QCURVE SMOOTH",
"331 876 OFFCURVE",
"374 854 OFFCURVE",
"391 842 QCURVE SMOOTH",
"409 830 OFFCURVE",
"422 827 OFFCURVE",
"425 827 QCURVE SMOOTH",
"436 827 OFFCURVE",
"451 848 OFFCURVE",
"467 876 QCURVE",
"551 843 LINE",
"541 823 OFFCURVE",
"518 784 OFFCURVE",
"488 752 OFFCURVE",
"450 732 OFFCURVE",
"426 732 QCURVE SMOOTH",
"404 732 OFFCURVE",
"360 755 OFFCURVE",
"343 766 QCURVE SMOOTH",
"332 773 OFFCURVE",
"316 784 OFFCURVE",
"303 784 OFFCURVE",
"291 772 OFFCURVE",
"284 757 QCURVE SMOOTH",
"282 752 OFFCURVE",
"273 733 OFFCURVE",
"271 729 QCURVE"
);
},
{
nodes = (
"254 691 LINE",
"490 691 LINE",
"553 564 LINE",
"437 17 LINE",
"319 17 LINE",
"382 314 LINE",
"205 314 LINE",
"178 186 LINE",
"194 136 LINE",
"292 136 LINE",
"267 17 LINE",
"111 17 LINE",
"53 152 LINE",
"140 564 LINE"
);
},
{
nodes = (
"408 433 LINE",
"428 528 LINE",
"407 573 LINE",
"288 573 LINE",
"279 564 OFFCURVE",
"259 537 OFFCURVE",
"251 528 QCURVE",
"231 433 LINE"
);
}
);
width = 460;
}
);
unicode = 00E3;
},
{
glyphname = adieresis;
layers = (
{
layerId = "7D987CB1-A3A8-41AB-9CDC-0258C96D8E25";
paths = (
{
nodes = (
"211 731 LINE",
"237 851 LINE",
"356 851 LINE",
"330 731 LINE"
);
},
{
nodes = (
"410 731 LINE",
"436 851 LINE",
"555 851 LINE",
"529 731 LINE"
);
},
{
nodes = (
"254 691 LINE",
"490 691 LINE",
"553 564 LINE",
"437 17 LINE",
"319 17 LINE",
"382 314 LINE",
"205 314 LINE",
"178 186 LINE",
"194 136 LINE",
"292 136 LINE",
"267 17 LINE",
"111 17 LINE",
"53 152 LINE",
"140 564 LINE"
);
},
{
nodes = (
"408 433 LINE",
"428 528 LINE",
"407 573 LINE",
"288 573 LINE",
"279 564 OFFCURVE",
"259 537 OFFCURVE",
"251 528 QCURVE",
"231 433 LINE"
);
}
);
width = 460;
}
);
unicode = 00E4;
},
{
glyphname = aring;
layers = (
{
layerId = "7D987CB1-A3A8-41AB-9CDC-0258C96D8E25";
paths = (
{
nodes = (
"428 966 OFFCURVE",
"471 947 OFFCURVE",
"503 916 OFFCURVE",
"522 873 OFFCURVE",
"522 849 QCURVE SMOOTH",
"522 825 OFFCURVE",
"503 782 OFFCURVE",
"471 751 OFFCURVE",
"428 732 OFFCURVE",
"403 732 QCURVE SMOOTH",
"378 732 OFFCURVE",
"335 751 OFFCURVE",
"303 782 OFFCURVE",
"285 825 OFFCURVE",
"285 849 QCURVE SMOOTH",
"285 873 OFFCURVE",
"303 916 OFFCURVE",
"335 947 OFFCURVE",
"378 966 OFFCURVE",
"403 966 QCURVE SMOOTH"
);
},
{
nodes = (
"419 813 OFFCURVE",
"440 834 OFFCURVE",
"440 849 QCURVE SMOOTH",
"440 864 OFFCURVE",
"419 885 OFFCURVE",
"403 885 QCURVE SMOOTH",
"389 885 OFFCURVE",
"367 864 OFFCURVE",
"367 849 QCURVE SMOOTH",
"367 834 OFFCURVE",
"389 813 OFFCURVE",
"403 813 QCURVE SMOOTH"
);
},
{
nodes = (
"254 691 LINE",
"490 691 LINE",
"553 564 LINE",
"437 17 LINE",
"319 17 LINE",
"382 314 LINE",
"205 314 LINE",
"178 186 LINE",
"194 136 LINE",
"292 136 LINE",
"267 17 LINE",
"111 17 LINE",
"53 152 LINE",
"140 564 LINE"
);
},
{
nodes = (
"408 433 LINE",
"428 528 LINE",
"407 573 LINE",
"288 573 LINE",
"279 564 OFFCURVE",
"259 537 OFFCURVE",
"251 528 QCURVE",
"231 433 LINE"
);
}
);
width = 460;
}
);
unicode = 00E5;
},
{
glyphname = ae;
layers = (
{
layerId = "7D987CB1-A3A8-41AB-9CDC-0258C96D8E25";
paths = (
{
nodes = (
"254 691 LINE",
"463 691 LINE",
"463 693 LINE",
"851 693 LINE",
"826 575 LINE",
"558 575 LINE",
"528 434 LINE",
"707 434 LINE",
"682 316 LINE",
"503 316 LINE",
"475 186 LINE",
"492 137 LINE",
"577 137 LINE",
"671 258 LINE",
"806 258 LINE",
"782 142 LINE",
"718 142 LINE",
"621 17 LINE",
"319 17 LINE",
"382 314 LINE",
"205 314 LINE",
"178 186 LINE",
"194 136 LINE",
"292 136 LINE",
"267 17 LINE",
"111 17 LINE",
"53 152 LINE",
"140 564 LINE"
);
},
{
nodes = (
"408 433 LINE",
"428 528 LINE",
"407 573 LINE",
"288 573 LINE",
"279 564 OFFCURVE",
"259 537 OFFCURVE",
"251 528 QCURVE",
"231 433 LINE"
);
}
);
width = 750;
}
);
unicode = 00E6;
},
{
glyphname = ccedilla;
layers = (
{
layerId = "7D987CB1-A3A8-41AB-9CDC-0258C96D8E25";
paths = (
{
nodes = (
"261 693 LINE",
"502 693 LINE",
"562 564 LINE",
"542 467 LINE",
"423 467 LINE",
"436 528 LINE",
"419 575 LINE",
"294 575 LINE",
"257 528 LINE",
"184 186 LINE",
"201 137 LINE",
"326 137 LINE",
"363 186 LINE",
"375 243 LINE",
"494 243 LINE",
"475 152 LINE",
"358 17 LINE",
"226 17 LINE",
"222 2 LINE",
"229 -8 LINE",
"330 -8 LINE",
"373 -76 LINE",
"350 -165 LINE",
"274 -239 LINE",
"126 -239 LINE",
"86 -161 LINE",
"96 -121 LINE",
"191 -121 LINE",
"186 -144 LINE",
"192 -159 LINE",
"245 -159 LINE",
"261 -141 LINE",
"263 -130 OFFCURVE",
"271 -100 OFFCURVE",
"274 -89 QCURVE",
"266 -78 LINE",
"165 -78 LINE",
"121 -21 LINE",
"133 17 LINE",
"117 17 LINE",
"58 152 LINE",
"145 564 LINE"
);
}
);
width = 460;
}
);
unicode = 00E7;
},
{
glyphname = egrave;
layers = (
{
layerId = "7D987CB1-A3A8-41AB-9CDC-0258C96D8E25";
paths = (
{
nodes = (
"381 258 LINE",
"516 258 LINE",
"492 142 LINE",
"428 142 LINE",
"331 17 LINE",
"120 17 LINE",
"58 152 LINE",
"173 693 LINE",
"561 693 LINE",
"536 575 LINE",
"268 575 LINE",
"238 434 LINE",
"417 434 LINE",
"392 316 LINE",
"213 316 LINE",
"185 186 LINE",
"202 137 LINE",
"287 137 LINE"
);
},
{
nodes = (
"336 732 LINE",
"267 862 LINE",
"378 862 LINE",
"437 732 LINE"
);
}
);
width = 477;
}
);
unicode = 00E8;
},
{
glyphname = eacute;
layers = (
{
layerId = "7D987CB1-A3A8-41AB-9CDC-0258C96D8E25";
paths = (
{
nodes = (
"381 258 LINE",
"516 258 LINE",
"492 142 LINE",
"428 142 LINE",
"331 17 LINE",
"120 17 LINE",
"58 152 LINE",
"173 693 LINE",
"561 693 LINE",
"536 575 LINE",
"268 575 LINE",
"238 434 LINE",
"417 434 LINE",
"392 316 LINE",
"213 316 LINE",
"185 186 LINE",
"202 137 LINE",
"287 137 LINE"
);
},
{
nodes = (
"317 732 LINE",
"376 862 LINE",
"487 862 LINE",
"418 732 LINE"
);
}
);
width = 477;
}
);
unicode = 00E9;
},
{
glyphname = edieresis;
layers = (
{
layerId = "7D987CB1-A3A8-41AB-9CDC-0258C96D8E25";
paths = (
{
nodes = (
"381 258 LINE",
"516 258 LINE",
"492 142 LINE",
"428 142 LINE",
"331 17 LINE",
"120 17 LINE",
"58 152 LINE",
"173 693 LINE",
"561 693 LINE",
"536 575 LINE",
"268 575 LINE",
"238 434 LINE",
"417 434 LINE",
"392 316 LINE",
"213 316 LINE",
"185 186 LINE",
"202 137 LINE",
"287 137 LINE"
);
},
{
nodes = (
"200 731 LINE",
"226 851 LINE",
"345 851 LINE",
"319 731 LINE"
);
},
{
nodes = (
"399 731 LINE",
"425 851 LINE",
"544 851 LINE",
"518 731 LINE"
);
}
);
width = 477;
}
);
unicode = 00EB;
},
{
glyphname = igrave;
layers = (
{
layerId = "7D987CB1-A3A8-41AB-9CDC-0258C96D8E25";
paths = (
{
nodes = (
"182 186 LINE",
"200 137 LINE",
"298 137 LINE",
"272 17 LINE",
"116 17 LINE",
"57 152 LINE",
"172 693 LINE",
"290 693 LINE"
);
},
{
nodes = (
"223 732 LINE",
"154 862 LINE",
"265 862 LINE",
"324 732 LINE"
);
}
);
width = 278;
}
);
unicode = 00EC;
},
{
glyphname = iacute;
layers = (
{
layerId = "7D987CB1-A3A8-41AB-9CDC-0258C96D8E25";
paths = (
{
nodes = (
"182 186 LINE",
"200 137 LINE",
"298 137 LINE",
"272 17 LINE",
"116 17 LINE",
"57 152 LINE",
"172 693 LINE",
"290 693 LINE"
);
},
{
nodes = (
"196 732 LINE",
"255 862 LINE",
"366 862 LINE",
"297 732 LINE"
);
}
);
width = 278;
}
);
unicode = 00ED;
},
{
glyphname = icircumflex;
layers = (
{
layerId = "7D987CB1-A3A8-41AB-9CDC-0258C96D8E25";
paths = (
{
nodes = (
"182 186 LINE",
"200 137 LINE",
"298 137 LINE",
"272 17 LINE",
"116 17 LINE",
"57 152 LINE",
"172 693 LINE",
"290 693 LINE"
);
},
{
nodes = (
"92 732 LINE",
"151 867 LINE",
"265 867 LINE",
"206 732 LINE"
);
},
{
nodes = (
"355 732 LINE",
"296 867 LINE",
"411 867 LINE",
"469 732 LINE"
);
}
);
width = 278;
}
);
unicode = 00EE;
},
{
glyphname = idieresis;
layers = (
{
layerId = "7D987CB1-A3A8-41AB-9CDC-0258C96D8E25";
paths = (
{
nodes = (
"182 186 LINE",
"200 137 LINE",
"298 137 LINE",
"272 17 LINE",
"116 17 LINE",
"57 152 LINE",
"172 693 LINE",
"290 693 LINE"
);
},
{
nodes = (
"73 731 LINE",
"99 851 LINE",
"218 851 LINE",
"192 731 LINE"
);
},
{
nodes = (
"272 731 LINE",
"298 851 LINE",
"417 851 LINE",
"391 731 LINE"
);
}
);
width = 278;
}
);
unicode = 00EF;
},
{
glyphname = eth;
layers = (
{
layerId = "7D987CB1-A3A8-41AB-9CDC-0258C96D8E25";
paths = (
{
nodes = (
"120 314 LINE",
"67 314 LINE",
"93 434 LINE",
"146 434 LINE",
"201 694 LINE",
"519 694 LINE",
"579 564 LINE",
"492 152 LINE",
"375 17 LINE",
"146 17 LINE",
"86 152 LINE"
);
},
{
nodes = (
"381 186 LINE",
"454 528 LINE",
"449 537 OFFCURVE",
"440 566 OFFCURVE",
"435 575 QCURVE",
"296 575 LINE",
"266 434 LINE",
"375 434 LINE",
"349 314 LINE",
"240 314 LINE",
"213 186 LINE",
"229 137 LINE",
"343 137 LINE"
);
}
);
width = 472;
}
);
unicode = 00F0;
},
{
glyphname = ntilde;
layers = (
{
layerId = "7D987CB1-A3A8-41AB-9CDC-0258C96D8E25";
paths = (
{
nodes = (
"259 765 LINE",
"268 785 OFFCURVE",
"292 825 OFFCURVE",
"322 856 OFFCURVE",
"360 876 OFFCURVE",
"383 876 QCURVE SMOOTH",
"405 876 OFFCURVE",
"448 854 OFFCURVE",
"465 842 QCURVE SMOOTH",
"483 830 OFFCURVE",
"496 827 OFFCURVE",
"499 827 QCURVE SMOOTH",
"510 827 OFFCURVE",
"525 848 OFFCURVE",
"541 876 QCURVE",
"625 843 LINE",
"615 823 OFFCURVE",
"592 784 OFFCURVE",
"562 752 OFFCURVE",
"524 732 OFFCURVE",
"500 732 QCURVE SMOOTH",
"478 732 OFFCURVE",
"434 755 OFFCURVE",
"417 766 QCURVE SMOOTH",
"406 773 OFFCURVE",
"390 784 OFFCURVE",
"377 784 OFFCURVE",
"365 772 OFFCURVE",
"358 757 QCURVE SMOOTH",
"356 752 OFFCURVE",
"347 733 OFFCURVE",
"345 729 QCURVE"
);
},
{
nodes = (
"437 254 LINE",
"531 694 LINE",
"651 694 LINE",
"507 17 LINE",
"371 17 LINE",
"244 464 LINE",
"185 186 LINE",
"202 137 LINE",
"300 137 LINE",
"274 17 LINE",
"118 17 LINE",
"58 152 LINE",
"173 694 LINE",
"313 694 LINE"
);
}
);
width = 537;
}
);
unicode = 00F1;
},
{
glyphname = ograve;
layers = (
{
layerId = "7D987CB1-A3A8-41AB-9CDC-0258C96D8E25";
paths = (
{
nodes = (
"328 137 LINE",
"365 186 LINE",
"438 528 LINE",
"421 575 LINE",
"295 575 LINE",
"259 528 LINE",
"186 186 LINE",
"202 137 LINE"
);
},
{
nodes = (
"146 564 LINE",
"263 693 LINE",
"504 693 LINE",
"564 564 LINE",
"477 152 LINE",
"360 17 LINE",
"119 17 LINE",
"59 152 LINE"
);
},
{
nodes = (
"430 732 LINE",
"329 732 LINE",
"260 862 LINE",
"371 862 LINE"
);
}
);
width = 472;
}
);
unicode = 00F2;
},
{
glyphname = oacute;
layers = (
{
layerId = "7D987CB1-A3A8-41AB-9CDC-0258C96D8E25";
paths = (
{
nodes = (
"328 137 LINE",
"365 186 LINE",
"438 528 LINE",
"421 575 LINE",
"295 575 LINE",
"259 528 LINE",
"186 186 LINE",
"202 137 LINE"
);
},
{
nodes = (
"146 564 LINE",
"263 693 LINE",
"504 693 LINE",
"564 564 LINE",
"477 152 LINE",
"360 17 LINE",
"119 17 LINE",
"59 152 LINE"
);
},
{
nodes = (
"415 732 LINE",
"314 732 LINE",
"373 862 LINE",
"484 862 LINE"
);
}
);
width = 472;
}
);
unicode = 00F3;
},
{
glyphname = ocircumflex;
layers = (
{
layerId = "7D987CB1-A3A8-41AB-9CDC-0258C96D8E25";
paths = (
{
nodes = (
"328 137 LINE",
"365 186 LINE",
"438 528 LINE",
"421 575 LINE",
"295 575 LINE",
"259 528 LINE",
"186 186 LINE",
"202 137 LINE"
);
},
{
nodes = (
"146 564 LINE",
"263 693 LINE",
"504 693 LINE",
"564 564 LINE",
"477 152 LINE",
"360 17 LINE",
"119 17 LINE",
"59 152 LINE"
);
},
{
nodes = (
"326 732 LINE",
"212 732 LINE",
"271 867 LINE",
"385 867 LINE"
);
},
{
nodes = (
"589 732 LINE",
"475 732 LINE",
"416 867 LINE",
"531 867 LINE"
);
}
);
width = 472;
}
);
unicode = 00F4;
},
{
glyphname = otilde;
layers = (
{
layerId = "7D987CB1-A3A8-41AB-9CDC-0258C96D8E25";
paths = (
{
nodes = (
"200 765 LINE",
"209 785 OFFCURVE",
"233 825 OFFCURVE",
"263 856 OFFCURVE",
"301 876 OFFCURVE",
"324 876 QCURVE SMOOTH",
"346 876 OFFCURVE",
"389 854 OFFCURVE",
"406 842 QCURVE SMOOTH",
"424 830 OFFCURVE",
"437 827 OFFCURVE",
"440 827 QCURVE SMOOTH",
"451 827 OFFCURVE",
"466 848 OFFCURVE",
"482 876 QCURVE",
"566 843 LINE",
"556 823 OFFCURVE",
"533 784 OFFCURVE",
"503 752 OFFCURVE",
"465 732 OFFCURVE",
"441 732 QCURVE SMOOTH",
"419 732 OFFCURVE",
"375 755 OFFCURVE",
"358 766 QCURVE SMOOTH",
"347 773 OFFCURVE",
"331 784 OFFCURVE",
"318 784 OFFCURVE",
"306 772 OFFCURVE",
"299 757 QCURVE SMOOTH",
"297 752 OFFCURVE",
"288 733 OFFCURVE",
"286 729 QCURVE"
);
},
{
nodes = (
"263 693 LINE",
"504 693 LINE",
"564 564 LINE",
"477 152 LINE",
"360 17 LINE",
"119 17 LINE",
"59 152 LINE",
"146 564 LINE"
);
},
{
nodes = (
"365 186 LINE",
"438 528 LINE",
"421 575 LINE",
"295 575 LINE",
"259 528 LINE",
"186 186 LINE",
"202 137 LINE",
"328 137 LINE"
);
}
);
width = 472;
}
);
unicode = 00F5;
},
{
glyphname = odieresis;
layers = (
{
layerId = "7D987CB1-A3A8-41AB-9CDC-0258C96D8E25";
paths = (
{
nodes = (
"328 137 LINE",
"365 186 LINE",
"438 528 LINE",
"421 575 LINE",
"295 575 LINE",
"259 528 LINE",
"186 186 LINE",
"202 137 LINE"
);
},
{
nodes = (
"146 564 LINE",
"263 693 LINE",
"504 693 LINE",
"564 564 LINE",
"477 152 LINE",
"360 17 LINE",
"119 17 LINE",
"59 152 LINE"
);
},
{
nodes = (
"350 731 LINE",
"231 731 LINE",
"257 851 LINE",
"376 851 LINE"
);
},
{
nodes = (
"549 731 LINE",
"430 731 LINE",
"456 851 LINE",
"575 851 LINE"
);
}
);
width = 472;
}
);
unicode = 00F6;
},
{
glyphname = divide;
layers = (
{
layerId = "7D987CB1-A3A8-41AB-9CDC-0258C96D8E25";
paths = (
{
nodes = (
"79 314 LINE",
"105 434 LINE",
"507 434 LINE",
"481 314 LINE"
);
},
{
nodes = (
"162 137 LINE",
"188 257 LINE",
"307 257 LINE",
"281 137 LINE"
);
},
{
nodes = (
"255 575 LINE",
"374 575 LINE",
"349 456 LINE",
"230 456 LINE"
);
}
);
width = 436;
}
);
unicode = 00F7;
},
{
glyphname = ugrave;
layers = (
{
layerId = "7D987CB1-A3A8-41AB-9CDC-0258C96D8E25";
paths = (
{
nodes = (
"351 186 LINE",
"459 693 LINE",
"577 693 LINE",
"462 152 LINE",
"345 17 LINE",
"116 17 LINE",
"57 152 LINE",
"172 693 LINE",
"291 693 LINE",
"183 186 LINE",
"200 137 LINE",
"313 137 LINE"
);
},
{
nodes = (
"345 732 LINE",
"276 862 LINE",
"387 862 LINE",
"446 732 LINE"
);
}
);
width = 457;
}
);
unicode = 00F9;
},
{
glyphname = uacute;
layers = (
{
layerId = "7D987CB1-A3A8-41AB-9CDC-0258C96D8E25";
paths = (
{
nodes = (
"351 186 LINE",
"459 693 LINE",
"577 693 LINE",
"462 152 LINE",
"345 17 LINE",
"116 17 LINE",
"57 152 LINE",
"172 693 LINE",
"291 693 LINE",
"183 186 LINE",
"200 137 LINE",
"313 137 LINE"
);
},
{
nodes = (
"320 732 LINE",
"379 862 LINE",
"490 862 LINE",
"421 732 LINE"
);
}
);
width = 457;
}
);
unicode = 00FA;
},
{
glyphname = ucircumflex;
layers = (
{
layerId = "7D987CB1-A3A8-41AB-9CDC-0258C96D8E25";
paths = (
{
nodes = (
"351 186 LINE",
"459 693 LINE",
"577 693 LINE",
"462 152 LINE",
"345 17 LINE",
"116 17 LINE",
"57 152 LINE",
"172 693 LINE",
"291 693 LINE",
"183 186 LINE",
"200 137 LINE",
"313 137 LINE"
);
},
{
nodes = (
"165 732 LINE",
"224 867 LINE",
"338 867 LINE",
"279 732 LINE"
);
},
{
nodes = (
"428 732 LINE",
"369 867 LINE",
"484 867 LINE",
"542 732 LINE"
);
}
);
width = 457;
}
);
unicode = 00FB;
},
{
glyphname = udieresis;
layers = (
{
layerId = "7D987CB1-A3A8-41AB-9CDC-0258C96D8E25";
paths = (
{
nodes = (
"351 186 LINE",
"459 693 LINE",
"577 693 LINE",
"462 152 LINE",
"345 17 LINE",
"116 17 LINE",
"57 152 LINE",
"172 693 LINE",
"291 693 LINE",
"183 186 LINE",
"200 137 LINE",
"313 137 LINE"
);
},
{
nodes = (
"217 731 LINE",
"243 851 LINE",
"362 851 LINE",
"336 731 LINE"
);
},
{
nodes = (
"416 731 LINE",
"442 851 LINE",
"561 851 LINE",
"535 731 LINE"
);
}
);
width = 457;
}
);
unicode = 00FC;
},
{
glyphname = yacute;
layers = (
{
layerId = "7D987CB1-A3A8-41AB-9CDC-0258C96D8E25";
paths = (
{
nodes = (
"299 732 LINE",
"358 862 LINE",
"469 862 LINE",
"400 732 LINE"
);
},
{
nodes = (
"375 471 LINE",
"422 693 LINE",
"542 693 LINE",
"486 432 LINE",
"371 315 LINE",
"333 315 LINE",
"270 17 LINE",
"151 17 LINE",
"214 315 LINE",
"176 315 LINE",
"113 432 LINE",
"169 693 LINE",
"288 693 LINE",
"241 471 LINE",
"245 462 OFFCURVE",
"256 443 OFFCURVE",
"261 433 QCURVE",
"338 433 LINE"
);
}
);
width = 416;
}
);
unicode = 00FD;
},
{
glyphname = thorn;
layers = (
{
layerId = "7D987CB1-A3A8-41AB-9CDC-0258C96D8E25";
paths = (
{
nodes = (
"408 238 LINE",
"445 287 LINE",
"487 475 LINE",
"470 522 LINE",
"285 522 LINE",
"224 238 LINE"
);
},
{
nodes = (
"35 -45 LINE",
"206 761 LINE",
"336 761 LINE",
"310 640 LINE",
"553 640 LINE",
"613 511 LINE",
"557 253 LINE",
"440 118 LINE",
"198 118 LINE",
"163 -45 LINE"
);
}
);
width = 522;
}
);
unicode = 00FE;
},
{
glyphname = ydieresis;
layers = (
{
layerId = "7D987CB1-A3A8-41AB-9CDC-0258C96D8E25";
paths = (
{
nodes = (
"180 731 LINE",
"206 851 LINE",
"325 851 LINE",
"299 731 LINE"
);
},
{
nodes = (
"379 731 LINE",
"405 851 LINE",
"524 851 LINE",
"498 731 LINE"
);
},
{
nodes = (
"375 471 LINE",
"422 693 LINE",
"542 693 LINE",
"486 432 LINE",
"371 315 LINE",
"333 315 LINE",
"270 17 LINE",
"151 17 LINE",
"214 315 LINE",
"176 315 LINE",
"113 432 LINE",
"169 693 LINE",
"288 693 LINE",
"241 471 LINE",
"245 462 OFFCURVE",
"256 443 OFFCURVE",
"261 433 QCURVE",
"338 433 LINE"
);
}
);
width = 416;
}
);
unicode = 00FF;
},
{
glyphname = OE;
layers = (
{
layerId = "7D987CB1-A3A8-41AB-9CDC-0258C96D8E25";
paths = (
{
nodes = (
"438 528 LINE",
"421 575 LINE",
"295 575 LINE",
"259 528 LINE",
"186 186 LINE",
"202 137 LINE",
"328 137 LINE",
"365 186 LINE"
);
},
{
nodes = (
"587 137 LINE",
"681 258 LINE",
"816 258 LINE",
"792 142 LINE",
"728 142 LINE",
"631 17 LINE",
"420 17 LINE",
"399 62 LINE",
"360 17 LINE",
"119 17 LINE",
"59 152 LINE",
"146 564 LINE",
"263 693 LINE",
"861 693 LINE",
"836 575 LINE",
"568 575 LINE",
"538 434 LINE",
"717 434 LINE",
"692 316 LINE",
"513 316 LINE",
"485 186 LINE",
"502 137 LINE"
);
}
);
width = 949;
}
);
unicode = 0152;
},
{
glyphname = oe;
layers = (
{
layerId = "7D987CB1-A3A8-41AB-9CDC-0258C96D8E25";
paths = (
{
nodes = (
"438 528 LINE",
"421 575 LINE",
"295 575 LINE",
"259 528 LINE",
"186 186 LINE",
"202 137 LINE",
"328 137 LINE",
"365 186 LINE"
);
},
{
nodes = (
"587 137 LINE",
"681 258 LINE",
"816 258 LINE",
"792 142 LINE",
"728 142 LINE",
"631 17 LINE",
"420 17 LINE",
"399 62 LINE",
"360 17 LINE",
"119 17 LINE",
"59 152 LINE",
"146 564 LINE",
"263 693 LINE",
"861 693 LINE",
"836 575 LINE",
"568 575 LINE",
"538 434 LINE",
"717 434 LINE",
"692 316 LINE",
"513 316 LINE",
"485 186 LINE",
"502 137 LINE"
);
}
);
width = 949;
}
);
unicode = 0153;
},
{
glyphname = Scaron;
layers = (
{
layerId = "7D987CB1-A3A8-41AB-9CDC-0258C96D8E25";
paths = (
{
nodes = (
"489 693 LINE",
"549 564 LINE",
"529 467 LINE",
"411 467 LINE",
"424 528 LINE",
"406 575 LINE",
"293 575 LINE",
"256 528 LINE",
"244 472 LINE",
"263 434 LINE",
"434 434 LINE",
"497 317 LINE",
"462 152 LINE",
"345 17 LINE",
"116 17 LINE",
"57 152 LINE",
"76 243 LINE",
"195 243 LINE",
"183 186 LINE",
"200 137 LINE",
"313 137 LINE",
"351 186 LINE",
"371 279 LINE",
"350 316 LINE",
"180 316 LINE",
"116 432 LINE",
"144 564 LINE",
"260 693 LINE"
);
},
{
nodes = (
"334 731 LINE",
"251 858 LINE",
"296 900 LINE",
"377 832 LINE",
"488 890 LINE",
"533 855 LINE",
"439 731 LINE"
);
}
);
width = 457;
}
);
unicode = 0160;
},
{
glyphname = scaron;
layers = (
{
layerId = "7D987CB1-A3A8-41AB-9CDC-0258C96D8E25";
paths = (
{
nodes = (
"489 693 LINE",
"549 564 LINE",
"529 467 LINE",
"411 467 LINE",
"424 528 LINE",
"406 575 LINE",
"293 575 LINE",
"256 528 LINE",
"244 472 LINE",
"263 434 LINE",
"434 434 LINE",
"497 317 LINE",
"462 152 LINE",
"345 17 LINE",
"116 17 LINE",
"57 152 LINE",
"76 243 LINE",
"195 243 LINE",
"183 186 LINE",
"200 137 LINE",
"313 137 LINE",
"351 186 LINE",
"371 279 LINE",
"350 316 LINE",
"180 316 LINE",
"116 432 LINE",
"144 564 LINE",
"260 693 LINE"
);
},
{
nodes = (
"334 731 LINE",
"251 858 LINE",
"296 900 LINE",
"377 832 LINE",
"488 890 LINE",
"533 855 LINE",
"439 731 LINE"
);
}
);
width = 457;
}
);
unicode = 0161;
},
{
glyphname = Ydieresis;
layers = (
{
layerId = "7D987CB1-A3A8-41AB-9CDC-0258C96D8E25";
paths = (
{
nodes = (
"180 731 LINE",
"206 851 LINE",
"325 851 LINE",
"299 731 LINE"
);
},
{
nodes = (
"379 731 LINE",
"405 851 LINE",
"524 851 LINE",
"498 731 LINE"
);
},
{
nodes = (
"375 471 LINE",
"422 693 LINE",
"542 693 LINE",
"486 432 LINE",
"371 315 LINE",
"333 315 LINE",
"270 17 LINE",
"151 17 LINE",
"214 315 LINE",
"176 315 LINE",
"113 432 LINE",
"169 693 LINE",
"288 693 LINE",
"241 471 LINE",
"245 462 OFFCURVE",
"256 443 OFFCURVE",
"261 433 QCURVE",
"338 433 LINE"
);
}
);
width = 416;
}
);
unicode = 0178;
},
{
glyphname = Zcaron;
layers = (
{
layerId = "7D987CB1-A3A8-41AB-9CDC-0258C96D8E25";
paths = (
{
nodes = (
"300 731 LINE",
"217 858 LINE",
"262 900 LINE",
"343 832 LINE",
"454 890 LINE",
"499 855 LINE",
"405 731 LINE"
);
},
{
nodes = (
"375 258 LINE",
"509 258 LINE",
"484 139 LINE",
"420 139 LINE",
"396 107 OFFCURVE",
"348 48 OFFCURVE",
"324 17 QCURVE",
"27 17 LINE",
"52 133 LINE",
"399 575 LINE",
"146 575 LINE",
"171 694 LINE",
"564 694 LINE",
"540 579 LINE",
"192 137 LINE",
"280 137 LINE"
);
}
);
width = 480;
}
);
unicode = 017D;
},
{
glyphname = uni0237;
layers = (
{
layerId = "7D987CB1-A3A8-41AB-9CDC-0258C96D8E25";
paths = (
{
nodes = (
"147 -177 LINE",
"28 -177 LINE",
"58 -9 LINE",
"177 -9 LINE"
);
}
);
width = 214;
}
);
unicode = 0237;
},
{
glyphname = circumflex;
layers = (
{
layerId = "7D987CB1-A3A8-41AB-9CDC-0258C96D8E25";
paths = (
{
nodes = (
"437 669 LINE",
"378 534 LINE",
"264 534 LINE",
"323 669 LINE"
);
},
{
nodes = (
"583 669 LINE",
"641 534 LINE",
"527 534 LINE",
"468 669 LINE"
);
}
);
width = 683;
}
);
unicode = 02C6;
},
{
glyphname = caron;
layers = (
{
layerId = "7D987CB1-A3A8-41AB-9CDC-0258C96D8E25";
paths = (
{
nodes = (
"503 533 LINE",
"420 660 LINE",
"465 702 LINE",
"546 634 LINE",
"657 692 LINE",
"702 657 LINE",
"608 533 LINE"
);
}
);
width = 547;
}
);
unicode = 02C7;
},
{
glyphname = uni02C9;
layers = (
{
layerId = "7D987CB1-A3A8-41AB-9CDC-0258C96D8E25";
paths = (
{
nodes = (
"247 534 LINE",
"247 653 LINE",
"541 653 LINE",
"541 534 LINE"
);
}
);
width = 590;
}
);
unicode = 02C9;
},
{
glyphname = breve;
layers = (
{
layerId = "7D987CB1-A3A8-41AB-9CDC-0258C96D8E25";
paths = (
{
nodes = (
"705 533 LINE",
"537 533 LINE",
"489 659 LINE",
"498 698 LINE",
"599 698 LINE",
"596 683 LINE",
"608 650 LINE",
"675 650 LINE",
"719 683 LINE",
"723 698 LINE",
"810 698 LINE",
"800 659 LINE"
);
}
);
width = 833;
}
);
unicode = 02D8;
},
{
glyphname = ring;
layers = (
{
layerId = "7D987CB1-A3A8-41AB-9CDC-0258C96D8E25";
paths = (
{
nodes = (
"244 768 OFFCURVE",
"287 749 OFFCURVE",
"319 718 OFFCURVE",
"338 675 OFFCURVE",
"338 651 QCURVE SMOOTH",
"338 627 OFFCURVE",
"319 584 OFFCURVE",
"287 553 OFFCURVE",
"244 534 OFFCURVE",
"219 534 QCURVE SMOOTH",
"194 534 OFFCURVE",
"151 553 OFFCURVE",
"119 584 OFFCURVE",
"101 627 OFFCURVE",
"101 651 QCURVE SMOOTH",
"101 675 OFFCURVE",
"119 718 OFFCURVE",
"151 749 OFFCURVE",
"194 768 OFFCURVE",
"219 768 QCURVE SMOOTH"
);
},
{
nodes = (
"235 615 OFFCURVE",
"256 636 OFFCURVE",
"256 651 QCURVE SMOOTH",
"256 666 OFFCURVE",
"235 687 OFFCURVE",
"219 687 QCURVE SMOOTH",
"205 687 OFFCURVE",
"183 666 OFFCURVE",
"183 651 QCURVE SMOOTH",
"183 636 OFFCURVE",
"205 615 OFFCURVE",
"219 615 QCURVE SMOOTH"
);
}
);
width = 313;
}
);
unicode = 02DA;
},
{
glyphname = ogonek;
layers = (
{
layerId = "7D987CB1-A3A8-41AB-9CDC-0258C96D8E25";
paths = (
{
nodes = (
"261 -17 LINE",
"273 41 LINE",
"362 41 LINE",
"332 -88 LINE",
"189 -88 LINE",
"174 -159 LINE",
"176 -164 OFFCURVE",
"178 -166 OFFCURVE",
"180 -171 QCURVE",
"232 -171 LINE",
"246 -156 LINE",
"252 -133 LINE",
"337 -133 LINE",
"324 -185 LINE",
"258 -250 LINE",
"122 -250 LINE",
"87 -182 LINE",
"118 -45 LINE",
"173 -17 LINE"
);
}
);
width = 535;
}
);
unicode = 02DB;
},
{
glyphname = tilde;
layers = (
{
layerId = "7D987CB1-A3A8-41AB-9CDC-0258C96D8E25";
paths = (
{
nodes = (
"457 645 LINE",
"447 625 OFFCURVE",
"424 586 OFFCURVE",
"394 554 OFFCURVE",
"356 534 OFFCURVE",
"332 534 QCURVE SMOOTH",
"310 534 OFFCURVE",
"266 557 OFFCURVE",
"249 568 QCURVE SMOOTH",
"238 575 OFFCURVE",
"222 586 OFFCURVE",
"209 586 OFFCURVE",
"197 574 OFFCURVE",
"190 559 QCURVE SMOOTH",
"188 554 OFFCURVE",
"179 535 OFFCURVE",
"177 531 QCURVE",
"91 567 LINE",
"100 587 OFFCURVE",
"124 627 OFFCURVE",
"154 658 OFFCURVE",
"192 678 OFFCURVE",
"215 678 QCURVE SMOOTH",
"237 678 OFFCURVE",
"280 656 OFFCURVE",
"297 644 QCURVE SMOOTH",
"315 632 OFFCURVE",
"328 629 OFFCURVE",
"331 629 QCURVE SMOOTH",
"337 629 OFFCURVE",
"345 634 OFFCURVE",
"354 645 OFFCURVE",
"365 664 OFFCURVE",
"373 678 QCURVE"
);
}
);
width = 419;
}
);
unicode = 02DC;
},
{
glyphname = hungarumlaut;
layers = (
{
layerId = "7D987CB1-A3A8-41AB-9CDC-0258C96D8E25";
paths = (
{
nodes = (
"423 533 LINE",
"521 703 LINE",
"622 633 LINE",
"556 533 LINE"
);
},
{
nodes = (
"617 533 LINE",
"715 703 LINE",
"816 633 LINE",
"750 533 LINE"
);
}
);
width = 833;
}
);
unicode = 02DD;
},
{
glyphname = gravecomb;
layers = (
{
layerId = "7D987CB1-A3A8-41AB-9CDC-0258C96D8E25";
paths = (
{
nodes = (
"323 534 LINE",
"254 664 LINE",
"365 664 LINE",
"424 534 LINE"
);
}
);
width = 453;
}
);
unicode = 0300;
},
{
glyphname = acutecomb;
layers = (
{
layerId = "7D987CB1-A3A8-41AB-9CDC-0258C96D8E25";
paths = (
{
nodes = (
"291 534 LINE",
"350 664 LINE",
"461 664 LINE",
"392 534 LINE"
);
}
);
width = 453;
}
);
unicode = 0301;
},
{
glyphname = uni0302;
layers = (
{
layerId = "7D987CB1-A3A8-41AB-9CDC-0258C96D8E25";
paths = (
{
nodes = (
"319 534 LINE",
"409 669 LINE",
"523 669 LINE",
"433 534 LINE"
);
},
{
nodes = (
"545 534 LINE",
"486 669 LINE",
"601 669 LINE",
"659 534 LINE"
);
}
);
width = 683;
}
);
unicode = 0302;
},
{
glyphname = tildecomb;
layers = (
{
layerId = "7D987CB1-A3A8-41AB-9CDC-0258C96D8E25";
paths = (
{
nodes = (
"219 567 LINE",
"228 587 OFFCURVE",
"252 627 OFFCURVE",
"282 658 OFFCURVE",
"320 678 OFFCURVE",
"343 678 QCURVE SMOOTH",
"365 678 OFFCURVE",
"408 656 OFFCURVE",
"425 644 QCURVE SMOOTH",
"443 632 OFFCURVE",
"456 629 OFFCURVE",
"459 629 QCURVE SMOOTH",
"470 629 OFFCURVE",
"485 650 OFFCURVE",
"501 678 QCURVE",
"585 645 LINE",
"575 625 OFFCURVE",
"552 586 OFFCURVE",
"522 554 OFFCURVE",
"484 534 OFFCURVE",
"460 534 QCURVE SMOOTH",
"438 534 OFFCURVE",
"394 557 OFFCURVE",
"377 568 QCURVE SMOOTH",
"366 575 OFFCURVE",
"350 586 OFFCURVE",
"337 586 OFFCURVE",
"325 574 OFFCURVE",
"318 559 QCURVE SMOOTH",
"316 554 OFFCURVE",
"307 535 OFFCURVE",
"305 531 QCURVE"
);
}
);
width = 419;
}
);
unicode = 0303;
},
{
glyphname = uni0304;
layers = (
{
layerId = "7D987CB1-A3A8-41AB-9CDC-0258C96D8E25";
paths = (
{
nodes = (
"258 534 LINE",
"258 653 LINE",
"552 653 LINE",
"552 534 LINE"
);
}
);
width = 572;
}
);
unicode = 0304;
},
{
glyphname = uni0306;
layers = (
{
layerId = "7D987CB1-A3A8-41AB-9CDC-0258C96D8E25";
paths = (
{
nodes = (
"560 533 LINE",
"392 533 LINE",
"344 659 LINE",
"353 698 LINE",
"454 698 LINE",
"451 683 LINE",
"463 650 LINE",
"530 650 LINE",
"574 683 LINE",
"578 698 LINE",
"665 698 LINE",
"655 659 LINE"
);
}
);
width = 482;
}
);
unicode = 0306;
},
{
glyphname = uni0307;
layers = (
{
layerId = "7D987CB1-A3A8-41AB-9CDC-0258C96D8E25";
paths = (
{
nodes = (
"35 537 LINE",
"61 657 LINE",
"180 657 LINE",
"154 537 LINE"
);
}
);
width = 216;
}
);
unicode = 0307;
},
{
glyphname = endash;
layers = (
{
layerId = "7D987CB1-A3A8-41AB-9CDC-0258C96D8E25";
paths = (
{
nodes = (
"79 314 LINE",
"105 434 LINE",
"507 434 LINE",
"481 314 LINE"
);
}
);
width = 430;
}
);
unicode = 2013;
},
{
glyphname = emdash;
layers = (
{
layerId = "7D987CB1-A3A8-41AB-9CDC-0258C96D8E25";
paths = (
{
nodes = (
"79 314 LINE",
"105 434 LINE",
"592 434 LINE",
"566 314 LINE"
);
}
);
width = 520;
}
);
unicode = 2014;
},
{
glyphname = quoteleft;
layers = (
{
layerId = "7D987CB1-A3A8-41AB-9CDC-0258C96D8E25";
paths = (
{
nodes = (
"170 694 LINE",
"289 694 LINE",
"247 495 LINE",
"128 495 LINE"
);
}
);
width = 167;
}
);
unicode = 2018;
},
{
glyphname = quoteright;
layers = (
{
layerId = "7D987CB1-A3A8-41AB-9CDC-0258C96D8E25";
paths = (
{
nodes = (
"170 694 LINE",
"289 694 LINE",
"247 495 LINE",
"128 495 LINE"
);
}
);
width = 167;
}
);
unicode = 2019;
},
{
glyphname = quotedblleft;
layers = (
{
layerId = "7D987CB1-A3A8-41AB-9CDC-0258C96D8E25";
paths = (
{
nodes = (
"171 694 LINE",
"289 694 LINE",
"247 495 LINE",
"129 495 LINE"
);
},
{
nodes = (
"314 694 LINE",
"433 694 LINE",
"391 495 LINE",
"272 495 LINE"
);
}
);
width = 302;
}
);
unicode = 201C;
},
{
glyphname = quotedblright;
layers = (
{
layerId = "7D987CB1-A3A8-41AB-9CDC-0258C96D8E25";
paths = (
{
nodes = (
"171 694 LINE",
"289 694 LINE",
"247 495 LINE",
"129 495 LINE"
);
},
{
nodes = (
"314 694 LINE",
"433 694 LINE",
"391 495 LINE",
"272 495 LINE"
);
}
);
width = 302;
}
);
unicode = 201D;
},
{
glyphname = quotedblbase;
layers = (
{
layerId = "7D987CB1-A3A8-41AB-9CDC-0258C96D8E25";
paths = (
{
nodes = (
"125 -68 LINE",
"6 -68 LINE",
"50 137 LINE",
"169 137 LINE"
);
},
{
nodes = (
"292 -68 LINE",
"173 -68 LINE",
"217 137 LINE",
"336 137 LINE"
);
}
);
width = 346;
}
);
unicode = 201E;
},
{
glyphname = bullet;
layers = (
{
layerId = "7D987CB1-A3A8-41AB-9CDC-0258C96D8E25";
paths = (
{
nodes = (
"110 398 OFFCURVE",
"130 444 OFFCURVE",
"164 478 OFFCURVE",
"210 498 OFFCURVE",
"236 498 QCURVE SMOOTH",
"262 498 OFFCURVE",
"308 478 OFFCURVE",
"342 444 OFFCURVE",
"362 398 OFFCURVE",
"362 372 QCURVE SMOOTH",
"362 346 OFFCURVE",
"342 300 OFFCURVE",
"308 266 OFFCURVE",
"262 246 OFFCURVE",
"236 246 QCURVE SMOOTH",
"210 246 OFFCURVE",
"164 266 OFFCURVE",
"130 300 OFFCURVE",
"110 346 OFFCURVE",
"110 372 QCURVE SMOOTH"
);
}
);
width = 303;
}
);
unicode = 2022;
},
{
glyphname = ellipsis;
layers = (
{
layerId = "7D987CB1-A3A8-41AB-9CDC-0258C96D8E25";
paths = (
{
nodes = (
"26 17 LINE",
"52 137 LINE",
"171 137 LINE",
"145 17 LINE"
);
},
{
nodes = (
"191 17 LINE",
"217 137 LINE",
"336 137 LINE",
"310 17 LINE"
);
},
{
nodes = (
"356 17 LINE",
"382 137 LINE",
"501 137 LINE",
"475 17 LINE"
);
}
);
width = 495;
}
);
unicode = 2026;
},
{
glyphname = perthousand;
layers = (
{
layerId = "7D987CB1-A3A8-41AB-9CDC-0258C96D8E25";
paths = (
{
nodes = (
"610 384 LINE",
"772 384 LINE",
"813 311 LINE",
"754 77 LINE",
"675 0 LINE",
"512 0 LINE",
"472 77 LINE",
"530 311 LINE"
);
},
{
nodes = (
"667 131 LINE",
"698 256 LINE",
"691 274 LINE",
"632 274 LINE",
"616 256 LINE",
"584 131 LINE",
"592 112 LINE",
"650 112 LINE"
);
},
{
nodes = (
"227 693 LINE",
"389 693 LINE",
"430 620 LINE",
"371 386 LINE",
"292 309 LINE",
"129 309 LINE",
"89 386 LINE",
"147 620 LINE"
);
},
{
nodes = (
"18 17 LINE",
"742 693 LINE",
"910 693 LINE",
"186 17 LINE"
);
},
{
nodes = (
"284 445 LINE",
"315 570 LINE",
"308 588 LINE",
"249 588 LINE",
"233 570 LINE",
"201 445 LINE",
"209 426 LINE",
"267 426 LINE"
);
},
{
nodes = (
"924 384 LINE",
"1086 384 LINE",
"1127 311 LINE",
"1068 77 LINE",
"989 0 LINE",
"826 0 LINE",
"786 77 LINE",
"844 311 LINE"
);
},
{
nodes = (
"981 131 LINE",
"1012 256 LINE",
"1005 274 LINE",
"946 274 LINE",
"930 256 LINE",
"898 131 LINE",
"906 112 LINE",
"964 112 LINE"
);
}
);
width = 1082;
}
);
unicode = 2030;
},
{
glyphname = Euro;
layers = (
{
layerId = "7D987CB1-A3A8-41AB-9CDC-0258C96D8E25";
paths = (
{
nodes = (
"57 224 LINE",
"83 344 LINE",
"144 344 LINE",
"154 390 LINE",
"91 390 LINE",
"117 510 LINE",
"179 510 LINE",
"191 564 LINE",
"307 693 LINE",
"548 693 LINE",
"608 564 LINE",
"588 467 LINE",
"469 467 LINE",
"482 528 LINE",
"465 575 LINE",
"340 575 LINE",
"303 528 LINE",
"299 510 LINE",
"361 510 LINE",
"335 390 LINE",
"273 390 LINE",
"263 344 LINE",
"327 344 LINE",
"301 224 LINE",
"238 224 LINE",
"230 186 LINE",
"247 137 LINE",
"372 137 LINE",
"409 186 LINE",
"421 243 LINE",
"540 243 LINE",
"521 152 LINE",
"404 17 LINE",
"163 17 LINE",
"104 152 LINE",
"119 224 LINE"
);
}
);
width = 515;
}
);
unicode = 20AC;
},
{
glyphname = trademark;
layers = (
{
layerId = "7D987CB1-A3A8-41AB-9CDC-0258C96D8E25";
paths = (
{
nodes = (
"164 693 LINE",
"366 693 LINE",
"345 590 LINE",
"294 590 LINE",
"304 639 LINE",
"281 639 LINE",
"246 461 LINE",
"248 457 OFFCURVE",
"251 443 OFFCURVE",
"254 439 QCURVE",
"295 439 LINE",
"283 384 LINE",
"217 384 LINE",
"191 446 LINE",
"230 639 LINE",
"204 639 LINE",
"194 590 LINE",
"143 590 LINE"
);
},
{
nodes = (
"554 693 LINE",
"613 693 LINE",
"551 384 LINE",
"501 384 LINE",
"545 604 LINE",
"464 502 LINE",
"454 502 LINE",
"414 604 LINE",
"386 461 LINE",
"393 439 LINE",
"435 439 LINE",
"424 384 LINE",
"357 384 LINE",
"332 446 LINE",
"381 693 LINE",
"440 693 LINE",
"478 596 LINE"
);
}
);
width = 477;
}
);
unicode = 2122;
},
{
glyphname = copyright;
layers = (
{
layerId = "7D987CB1-A3A8-41AB-9CDC-0258C96D8E25";
paths = (
{
nodes = (
"108 473 OFFCURVE",
"142 551 OFFCURVE",
"200 610 OFFCURVE",
"278 644 OFFCURVE",
"322 644 QCURVE SMOOTH",
"366 644 OFFCURVE",
"444 610 OFFCURVE",
"503 551 OFFCURVE",
"537 473 OFFCURVE",
"537 429 QCURVE SMOOTH",
"537 384 OFFCURVE",
"503 306 OFFCURVE",
"444 248 OFFCURVE",
"366 214 OFFCURVE",
"322 214 QCURVE SMOOTH",
"278 214 OFFCURVE",
"200 248 OFFCURVE",
"142 306 OFFCURVE",
"108 384 OFFCURVE",
"108 429 QCURVE SMOOTH"
);
},
{
nodes = (
"154 394 OFFCURVE",
"180 332 OFFCURVE",
"226 286 OFFCURVE",
"287 260 OFFCURVE",
"322 260 QCURVE SMOOTH",
"357 260 OFFCURVE",
"418 286 OFFCURVE",
"464 332 OFFCURVE",
"491 394 OFFCURVE",
"491 429 QCURVE SMOOTH",
"491 464 OFFCURVE",
"464 525 OFFCURVE",
"418 571 OFFCURVE",
"357 598 OFFCURVE",
"322 598 QCURVE SMOOTH",
"287 598 OFFCURVE",
"226 571 OFFCURVE",
"180 525 OFFCURVE",
"154 464 OFFCURVE",
"154 429 QCURVE SMOOTH"
);
},
{
nodes = (
"298 570 LINE",
"392 570 LINE",
"415 520 LINE",
"407 482 LINE",
"361 482 LINE",
"366 506 LINE",
"360 524 LINE",
"311 524 LINE",
"297 506 LINE",
"268 372 LINE",
"275 353 LINE",
"323 353 LINE",
"338 372 LINE",
"342 395 LINE",
"388 395 LINE",
"381 358 LINE",
"336 305 LINE",
"243 305 LINE",
"220 358 LINE",
"253 520 LINE"
);
}
);
width = 450;
}
);
unicode = 00A9;
},
{
glyphname = guillemotleft;
layers = (
{
layerId = "7D987CB1-A3A8-41AB-9CDC-0258C96D8E25";
paths = (
{
nodes = (
"366 604 LINE",
"308 439 LINE",
"170 350 LINE",
"268 235 LINE",
"243 94 LINE",
"62 301 LINE",
"87 413 LINE"
);
},
{
nodes = (
"598 604 LINE",
"540 439 LINE",
"402 350 LINE",
"500 235 LINE",
"475 94 LINE",
"294 301 LINE",
"319 413 LINE"
);
}
);
width = 466;
}
);
unicode = 00AB;
},
{
glyphname = guilsinglleft;
layers = (
{
layerId = "7D987CB1-A3A8-41AB-9CDC-0258C96D8E25";
paths = (
{
nodes = (
"365 604 LINE",
"307 439 LINE",
"169 350 LINE",
"267 235 LINE",
"242 94 LINE",
"61 301 LINE",
"86 413 LINE"
);
}
);
width = 237;
}
);
unicode = 2039;
},
{
glyphname = quotesinglbase;
layers = (
{
layerId = "7D987CB1-A3A8-41AB-9CDC-0258C96D8E25";
paths = (
{
nodes = (
"125 -68 LINE",
"6 -68 LINE",
"50 137 LINE",
"169 137 LINE"
);
}
);
width = 167;
}
);
unicode = 201A;
},
{
glyphname = registered;
layers = (
{
layerId = "7D987CB1-A3A8-41AB-9CDC-0258C96D8E25";
paths = (
{
nodes = (
"115 508 OFFCURVE",
"148 586 OFFCURVE",
"206 644 OFFCURVE",
"284 678 OFFCURVE",
"328 678 QCURVE SMOOTH",
"372 678 OFFCURVE",
"450 644 OFFCURVE",
"508 586 OFFCURVE",
"542 508 OFFCURVE",
"542 464 QCURVE SMOOTH",
"542 420 OFFCURVE",
"508 342 OFFCURVE",
"450 284 OFFCURVE",
"372 251 OFFCURVE",
"328 251 QCURVE SMOOTH",
"284 251 OFFCURVE",
"206 284 OFFCURVE",
"148 342 OFFCURVE",
"115 420 OFFCURVE",
"115 464 QCURVE SMOOTH"
);
},
{
nodes = (
"181 433 OFFCURVE",
"204 380 OFFCURVE",
"244 340 OFFCURVE",
"297 317 OFFCURVE",
"328 317 QCURVE SMOOTH",
"359 317 OFFCURVE",
"413 340 OFFCURVE",
"453 380 OFFCURVE",
"476 433 OFFCURVE",
"476 464 QCURVE SMOOTH",
"476 495 OFFCURVE",
"453 549 OFFCURVE",
"413 589 OFFCURVE",
"359 612 OFFCURVE",
"328 612 QCURVE SMOOTH",
"297 612 OFFCURVE",
"244 589 OFFCURVE",
"204 549 OFFCURVE",
"181 495 OFFCURVE",
"181 464 QCURVE SMOOTH"
);
},
{
nodes = (
"277 584 LINE",
"390 584 LINE",
"412 539 LINE",
"402 493 LINE",
"383 473 LINE",
"385 468 OFFCURVE",
"392 458 OFFCURVE",
"394 453 QCURVE",
"371 348 LINE",
"330 348 LINE",
"350 439 LINE",
"348 443 OFFCURVE",
"344 450 OFFCURVE",
"342 453 QCURVE",
"291 453 LINE",
"281 406 LINE",
"287 390 LINE",
"321 390 LINE",
"311 348 LINE",
"258 348 LINE",
"237 395 LINE"
);
},
{
nodes = (
"364 506 LINE",
"368 527 LINE",
"364 535 OFFCURVE",
"362 543 QCURVE",
"310 543 LINE",
"299 494 LINE",
"351 494 LINE"
);
}
);
width = 470;
}
);
unicode = 00AE;
},
{
glyphname = degree;
layers = (
{
layerId = "7D987CB1-A3A8-41AB-9CDC-0258C96D8E25";
paths = (
{
nodes = (
"135 522 OFFCURVE",
"161 582 OFFCURVE",
"206 627 OFFCURVE",
"266 653 OFFCURVE",
"300 653 QCURVE SMOOTH",
"334 653 OFFCURVE",
"394 627 OFFCURVE",
"439 582 OFFCURVE",
"465 522 OFFCURVE",
"465 488 QCURVE SMOOTH",
"465 454 OFFCURVE",
"439 394 OFFCURVE",
"394 349 OFFCURVE",
"334 323 OFFCURVE",
"300 323 QCURVE SMOOTH",
"266 323 OFFCURVE",
"206 349 OFFCURVE",
"161 394 OFFCURVE",
"135 454 OFFCURVE",
"135 488 QCURVE SMOOTH"
);
},
{
nodes = (
"201 446 OFFCURVE",
"258 389 OFFCURVE",
"300 389 QCURVE SMOOTH",
"342 389 OFFCURVE",
"399 446 OFFCURVE",
"399 488 QCURVE SMOOTH",
"399 530 OFFCURVE",
"342 587 OFFCURVE",
"300 587 QCURVE SMOOTH",
"258 587 OFFCURVE",
"201 530 OFFCURVE",
"201 488 QCURVE SMOOTH"
);
}
);
width = 390;
}
);
unicode = 00B0;
},
{
glyphname = zcaron;
layers = (
{
layerId = "7D987CB1-A3A8-41AB-9CDC-0258C96D8E25";
paths = (
{
nodes = (
"300 731 LINE",
"217 858 LINE",
"262 900 LINE",
"343 832 LINE",
"454 890 LINE",
"499 855 LINE",
"405 731 LINE"
);
},
{
nodes = (
"375 258 LINE",
"509 258 LINE",
"484 139 LINE",
"420 139 LINE",
"396 107 OFFCURVE",
"348 48 OFFCURVE",
"324 17 QCURVE",
"27 17 LINE",
"52 133 LINE",
"399 575 LINE",
"146 575 LINE",
"171 694 LINE",
"564 694 LINE",
"540 579 LINE",
"192 137 LINE",
"280 137 LINE"
);
}
);
width = 480;
}
);
unicode = 017E;
},
{
glyphname = guilsinglright;
layers = (
{
layerId = "7D987CB1-A3A8-41AB-9CDC-0258C96D8E25";
paths = (
{
nodes = (
"14 94 LINE",
"72 259 LINE",
"210 348 LINE",
"112 463 LINE",
"137 604 LINE",
"318 397 LINE",
"293 285 LINE"
);
}
);
width = 244;
}
);
unicode = 203A;
},
{
glyphname = guillemotright;
layers = (
{
layerId = "7D987CB1-A3A8-41AB-9CDC-0258C96D8E25";
paths = (
{
nodes = (
"234 94 LINE",
"292 259 LINE",
"430 348 LINE",
"332 463 LINE",
"357 604 LINE",
"538 397 LINE",
"513 285 LINE"
);
},
{
nodes = (
"2 94 LINE",
"60 259 LINE",
"198 348 LINE",
"100 463 LINE",
"125 604 LINE",
"306 397 LINE",
"281 285 LINE"
);
}
);
width = 455;
}
);
unicode = 00BB;
},
{
glyphname = uni00AD;
layers = (
{
layerId = "7D987CB1-A3A8-41AB-9CDC-0258C96D8E25";
paths = (
{
nodes = (
"79 314 LINE",
"105 434 LINE",
"500 434 LINE",
"474 314 LINE"
);
}
);
width = 417;
}
);
unicode = 00AD;
},
{
glyphname = IJ;
layers = (
{
layerId = "7D987CB1-A3A8-41AB-9CDC-0258C96D8E25";
paths = (
{
nodes = (
"182 186 LINE",
"200 137 LINE",
"298 137 LINE",
"272 17 LINE",
"116 17 LINE",
"57 152 LINE",
"172 693 LINE",
"290 693 LINE"
);
},
{
nodes = (
"583 694 LINE",
"703 694 LINE",
"588 152 LINE",
"468 17 LINE",
"315 17 LINE",
"341 137 LINE",
"436 137 LINE",
"475 186 LINE"
);
}
);
width = 591;
}
);
unicode = 0132;
},
{
glyphname = Lslash;
layers = (
{
layerId = "7D987CB1-A3A8-41AB-9CDC-0258C96D8E25";
paths = (
{
nodes = (
"168 106 LINE",
"330 106 LINE",
"330 0 LINE",
"55 0 LINE",
"55 211 LINE",
"13 185 LINE",
"13 291 LINE",
"55 318 LINE",
"55 649 LINE",
"168 649 LINE",
"168 388 LINE",
"291 464 LINE",
"291 361 LINE",
"168 283 LINE"
);
}
);
width = 357;
}
);
unicode = 0141;
},
{
glyphname = lslash;
layers = (
{
layerId = "7D987CB1-A3A8-41AB-9CDC-0258C96D8E25";
paths = (
{
nodes = (
"168 106 LINE",
"330 106 LINE",
"330 0 LINE",
"55 0 LINE",
"55 211 LINE",
"13 185 LINE",
"13 291 LINE",
"55 318 LINE",
"55 649 LINE",
"168 649 LINE",
"168 388 LINE",
"291 464 LINE",
"291 361 LINE",
"168 283 LINE"
);
}
);
width = 357;
}
);
unicode = 0142;
},
{
glyphname = Tcaron;
layers = (
{
layerId = "7D987CB1-A3A8-41AB-9CDC-0258C96D8E25";
paths = (
{
nodes = (
"306 544 LINE",
"202 544 LINE",
"202 0 LINE",
"91 0 LINE",
"91 544 LINE",
"-13 544 LINE",
"-13 649 LINE",
"306 649 LINE"
);
},
{
nodes = (
"236 671 LINE",
"65 669 LINE",
"5 761 LINE",
"109 761 LINE",
"151 705 LINE",
"190 765 LINE",
"294 765 LINE"
);
}
);
width = 297;
}
);
unicode = 0164;
},
{
glyphname = tcaron;
layers = (
{
layerId = "7D987CB1-A3A8-41AB-9CDC-0258C96D8E25";
paths = (
{
nodes = (
"306 544 LINE",
"202 544 LINE",
"202 0 LINE",
"91 0 LINE",
"91 544 LINE",
"-13 544 LINE",
"-13 649 LINE",
"306 649 LINE"
);
},
{
nodes = (
"236 671 LINE",
"65 669 LINE",
"5 761 LINE",
"109 761 LINE",
"151 705 LINE",
"190 765 LINE",
"294 765 LINE"
);
}
);
width = 297;
}
);
unicode = 0165;
},
{
glyphname = Zacute;
layers = (
{
layerId = "7D987CB1-A3A8-41AB-9CDC-0258C96D8E25";
paths = (
{
nodes = (
"338 0 LINE",
"22 0 LINE",
"22 107 LINE",
"216 544 LINE",
"22 544 LINE",
"22 649 LINE",
"338 649 LINE",
"337 542 LINE",
"145 106 LINE",
"338 106 LINE"
);
},
{
nodes = (
"116 683 OFFCURVE",
"132 709 OFFCURVE",
"142 724 QCURVE SMOOTH",
"168 764 LINE",
"265 764 LINE",
"211 683 LINE",
"184 682 OFFCURVE",
"163 682 QCURVE",
"145 681 OFFCURVE",
"116 681 OFFCURVE",
"116 682 QCURVE"
);
}
);
width = 366;
}
);
unicode = 0179;
},
{
glyphname = zacute;
layers = (
{
layerId = "7D987CB1-A3A8-41AB-9CDC-0258C96D8E25";
paths = (
{
nodes = (
"338 0 LINE",
"22 0 LINE",
"22 107 LINE",
"216 544 LINE",
"22 544 LINE",
"22 649 LINE",
"338 649 LINE",
"337 542 LINE",
"145 106 LINE",
"338 106 LINE"
);
},
{
nodes = (
"116 683 OFFCURVE",
"132 709 OFFCURVE",
"142 724 QCURVE SMOOTH",
"168 764 LINE",
"265 764 LINE",
"211 683 LINE",
"184 682 OFFCURVE",
"163 682 QCURVE",
"145 681 OFFCURVE",
"116 681 OFFCURVE",
"116 682 QCURVE"
);
}
);
width = 366;
}
);
unicode = 017A;
},
{
glyphname = Zdotaccent;
layers = (
{
layerId = "7D987CB1-A3A8-41AB-9CDC-0258C96D8E25";
paths = (
{
nodes = (
"338 0 LINE",
"22 0 LINE",
"22 107 LINE",
"216 544 LINE",
"22 544 LINE",
"22 649 LINE",
"338 649 LINE",
"337 542 LINE",
"145 106 LINE",
"338 106 LINE"
);
},
{
nodes = (
"116 683 OFFCURVE",
"132 709 OFFCURVE",
"142 724 QCURVE SMOOTH",
"168 764 LINE",
"265 764 LINE",
"211 683 LINE",
"184 682 OFFCURVE",
"163 682 QCURVE",
"145 681 OFFCURVE",
"116 681 OFFCURVE",
"116 682 QCURVE"
);
}
);
width = 366;
}
);
unicode = 017B;
},
{
glyphname = zdotaccent;
layers = (
{
layerId = "7D987CB1-A3A8-41AB-9CDC-0258C96D8E25";
paths = (
{
nodes = (
"338 0 LINE",
"22 0 LINE",
"22 107 LINE",
"216 544 LINE",
"22 544 LINE",
"22 649 LINE",
"338 649 LINE",
"337 542 LINE",
"145 106 LINE",
"338 106 LINE"
);
},
{
nodes = (
"116 683 OFFCURVE",
"132 709 OFFCURVE",
"142 724 QCURVE SMOOTH",
"168 764 LINE",
"265 764 LINE",
"211 683 LINE",
"184 682 OFFCURVE",
"163 682 QCURVE",
"145 681 OFFCURVE",
"116 681 OFFCURVE",
"116 682 QCURVE"
);
}
);
width = 366;
}
);
unicode = 017C;
},
{
glyphname = oslashacute;
layers = (
{
layerId = "7D987CB1-A3A8-41AB-9CDC-0258C96D8E25";
paths = (
{
nodes = (
"295 575 LINE",
"259 528 LINE",
"186 186 LINE",
"366 575 LINE"
);
},
{
nodes = (
"328 137 LINE",
"365 186 LINE",
"438 528 LINE",
"437 529 LINE",
"255 137 LINE"
);
},
{
nodes = (
"176 -34 LINE",
"84 -34 LINE",
"113 29 LINE",
"59 152 LINE",
"146 564 LINE",
"263 693 LINE",
"421 693 LINE",
"443 739 LINE",
"535 739 LINE",
"509 682 LINE",
"564 564 LINE",
"477 152 LINE",
"360 17 LINE",
"199 17 LINE"
);
},
{
nodes = (
"306 732 LINE",
"365 862 LINE",
"476 862 LINE",
"407 732 LINE"
);
}
);
width = 460;
}
);
unicode = 01FF;
},
{
glyphname = caron.001;
layers = (
{
layerId = "7D987CB1-A3A8-41AB-9CDC-0258C96D8E25";
paths = (
{
nodes = (
"270 676 LINE",
"99 674 LINE",
"39 766 LINE",
"143 766 LINE",
"185 710 LINE",
"224 770 LINE",
"328 770 LINE"
);
}
);
width = 359;
}
);
},
{
glyphname = breve.001;
layers = (
{
layerId = "7D987CB1-A3A8-41AB-9CDC-0258C96D8E25";
paths = (
{
nodes = (
"137 679 OFFCURVE",
"79 727 OFFCURVE",
"77 783 QCURVE",
"142 783 LINE",
"146 754 OFFCURVE",
"173 742 OFFCURVE",
"194 742 QCURVE SMOOTH",
"216 742 OFFCURVE",
"244 754 OFFCURVE",
"248 783 QCURVE",
"313 783 LINE",
"311 727 OFFCURVE",
"251 679 OFFCURVE",
"194 679 QCURVE SMOOTH"
);
}
);
width = 398;
}
);
},
{
glyphname = ring.001;
layers = (
{
layerId = "7D987CB1-A3A8-41AB-9CDC-0258C96D8E25";
paths = (
{
nodes = (
"149 671 OFFCURVE",
"106 715 OFFCURVE",
"106 744 QCURVE SMOOTH",
"106 776 OFFCURVE",
"149 820 OFFCURVE",
"181 820 QCURVE SMOOTH",
"213 820 OFFCURVE",
"255 776 OFFCURVE",
"255 744 QCURVE SMOOTH",
"255 715 OFFCURVE",
"213 671 OFFCURVE",
"181 671 QCURVE SMOOTH"
);
},
{
nodes = (
"170 765 OFFCURVE",
"157 752 OFFCURVE",
"157 743 QCURVE SMOOTH",
"157 734 OFFCURVE",
"170 722 OFFCURVE",
"181 722 QCURVE SMOOTH",
"189 722 OFFCURVE",
"204 734 OFFCURVE",
"204 743 QCURVE SMOOTH",
"204 752 OFFCURVE",
"189 765 OFFCURVE",
"181 765 QCURVE SMOOTH"
);
}
);
width = 373;
}
);
},
{
glyphname = ogonek.001;
layers = (
{
layerId = "7D987CB1-A3A8-41AB-9CDC-0258C96D8E25";
paths = (
{
nodes = (
"92 -9 OFFCURVE",
"115 -3 QCURVE",
"161 -3 LINE",
"185 -40 LINE",
"183 -40 OFFCURVE",
"177 -39 OFFCURVE",
"175 -39 QCURVE",
"162 -39 OFFCURVE",
"151 -47 QCURVE",
"142 -58 OFFCURVE",
"142 -68 QCURVE SMOOTH",
"142 -84 OFFCURVE",
"156 -96 QCURVE SMOOTH",
"164 -103 OFFCURVE",
"181 -110 OFFCURVE",
"193 -110 QCURVE SMOOTH",
"197 -110 OFFCURVE",
"207 -109 OFFCURVE",
"212 -108 QCURVE",
"205 -131 LINE",
"170 -134 OFFCURVE",
"116 -131 OFFCURVE",
"93 -112 QCURVE SMOOTH",
"80 -101 OFFCURVE",
"68 -72 OFFCURVE",
"68 -58 QCURVE SMOOTH",
"68 -36 OFFCURVE",
"81 -22 QCURVE SMOOTH"
);
}
);
width = 280;
}
);
},
{
glyphname = hungarumlaut.001;
layers = (
{
layerId = "7D987CB1-A3A8-41AB-9CDC-0258C96D8E25";
paths = (
{
nodes = (
"20 652 LINE",
"117 652 LINE",
"94 486 LINE",
"73 485 OFFCURVE",
"57 485 QCURVE",
"43 484 OFFCURVE",
"20 484 OFFCURVE",
"20 485 QCURVE"
);
},
{
nodes = (
"141 652 LINE",
"238 652 LINE",
"213 486 LINE",
"193 485 OFFCURVE",
"177 485 QCURVE SMOOTH",
"163 485 OFFCURVE",
"141 485 OFFCURVE",
"141 486 QCURVE"
);
}
);
width = 253;
}
);
},
{
glyphname = uni037E;
layers = (
{
layerId = "7D987CB1-A3A8-41AB-9CDC-0258C96D8E25";
paths = (
{
nodes = (
"98 644 OFFCURVE",
"124 618 OFFCURVE",
"124 590 QCURVE SMOOTH",
"124 536 OFFCURVE",
"68 536 QCURVE SMOOTH",
"38 536 OFFCURVE",
"12 562 OFFCURVE",
"12 590 QCURVE SMOOTH",
"12 617 OFFCURVE",
"37 644 OFFCURVE",
"68 644 QCURVE SMOOTH"
);
},
{
nodes = (
"18 -50 LINE",
"36 -38 OFFCURVE",
"36 -19 QCURVE SMOOTH",
"36 3 OFFCURVE",
"26 18 QCURVE SMOOTH",
"21 26 LINE",
"21 25 LINE",
"17 29 OFFCURVE",
"12 37 OFFCURVE",
"10 44 QCURVE SMOOTH",
"7 57 OFFCURVE",
"16 80 OFFCURVE",
"35 96 OFFCURVE",
"60 106 OFFCURVE",
"73 106 QCURVE SMOOTH",
"92 106 OFFCURVE",
"122 84 OFFCURVE",
"125 57 QCURVE SMOOTH",
"129 18 OFFCURVE",
"82 -46 OFFCURVE",
"49 -69 QCURVE"
);
}
);
width = 137;
}
);
unicode = 037E;
},
{
glyphname = exclamdbl;
layers = (
{
layerId = "7D987CB1-A3A8-41AB-9CDC-0258C96D8E25";
paths = (
{
nodes = (
"54 137 LINE",
"173 137 LINE",
"147 17 LINE",
"28 17 LINE"
);
},
{
nodes = (
"172 694 LINE",
"291 694 LINE",
"181 176 LINE",
"62 176 LINE"
);
},
{
nodes = (
"209 137 LINE",
"328 137 LINE",
"302 17 LINE",
"183 17 LINE"
);
},
{
nodes = (
"327 694 LINE",
"446 694 LINE",
"336 176 LINE",
"217 176 LINE"
);
}
);
width = 325;
}
);
unicode = 203C;
},
{
glyphname = fraction;
layers = (
{
layerId = "7D987CB1-A3A8-41AB-9CDC-0258C96D8E25";
paths = (
{
nodes = (
"194 642 LINE",
"268 643 LINE",
"98 0 LINE",
"20 0 LINE"
);
}
);
width = 290;
}
);
unicode = 2044;
},
{
glyphname = estimated;
layers = (
{
layerId = "7D987CB1-A3A8-41AB-9CDC-0258C96D8E25";
paths = (
{
nodes = (
"186 170 LINE",
"186 139 LINE",
"217 108 OFFCURVE",
"298 75 OFFCURVE",
"346 75 QCURVE SMOOTH",
"394 75 OFFCURVE",
"477 110 OFFCURVE",
"508 141 QCURVE",
"508 170 LINE",
"570 170 LINE",
"536 111 OFFCURVE",
"418 40 OFFCURVE",
"345 40 QCURVE SMOOTH",
"291 40 OFFCURVE",
"195 81 OFFCURVE",
"125 151 OFFCURVE",
"84 247 OFFCURVE",
"84 301 QCURVE SMOOTH",
"84 355 OFFCURVE",
"125 450 OFFCURVE",
"195 520 OFFCURVE",
"291 561 OFFCURVE",
"345 561 QCURVE SMOOTH",
"399 561 OFFCURVE",
"494 520 OFFCURVE",
"564 450 OFFCURVE",
"605 355 OFFCURVE",
"605 301 QCURVE SMOOTH",
"605 293 OFFCURVE",
"605 278 OFFCURVE",
"603 271 QCURVE",
"564 271 LINE",
"508 271 LINE",
"186 271 LINE"
);
},
{
nodes = (
"298 518 OFFCURVE",
"217 483 OFFCURVE",
"186 454 QCURVE",
"186 355 LINE",
"508 355 LINE",
"508 453 LINE",
"477 483 OFFCURVE",
"394 518 OFFCURVE",
"346 518 QCURVE SMOOTH"
);
}
);
width = 567;
}
);
unicode = 212E;
},
{
glyphname = infinity;
layers = (
{
layerId = "7D987CB1-A3A8-41AB-9CDC-0258C96D8E25";
paths = (
{
nodes = (
"956 449 OFFCURVE",
"956 356 QCURVE SMOOTH",
"956 262 OFFCURVE",
"907 206 QCURVE SMOOTH",
"858 148 OFFCURVE",
"766 133 QCURVE",
"762 132 LINE",
"757 132 LINE SMOOTH",
"668 132 OFFCURVE",
"592 185 QCURVE SMOOTH",
"558 208 OFFCURVE",
"525 247 QCURVE SMOOTH",
"522 250 OFFCURVE",
"516 256 OFFCURVE",
"513 261 QCURVE",
"511 256 OFFCURVE",
"505 250 OFFCURVE",
"502 247 QCURVE SMOOTH",
"470 209 OFFCURVE",
"434 185 QCURVE",
"360 132 OFFCURVE",
"270 132 QCURVE SMOOTH",
"265 132 LINE",
"261 133 LINE",
"168 148 OFFCURVE",
"119 206 QCURVE SMOOTH",
"70 262 OFFCURVE",
"70 356 QCURVE SMOOTH",
"70 449 OFFCURVE",
"119 507 QCURVE SMOOTH",
"168 563 OFFCURVE",
"261 580 QCURVE",
"265 580 LINE",
"270 580 LINE SMOOTH",
"359 580 OFFCURVE",
"434 528 QCURVE SMOOTH",
"471 502 OFFCURVE",
"502 465 QCURVE SMOOTH",
"507 460 OFFCURVE",
"513 452 QCURVE",
"516 455 OFFCURVE",
"522 462 OFFCURVE",
"525 465 QCURVE SMOOTH",
"557 503 OFFCURVE",
"592 528 QCURVE SMOOTH",
"668 580 OFFCURVE",
"757 580 QCURVE SMOOTH",
"762 580 LINE",
"766 580 LINE",
"858 563 OFFCURVE",
"907 507 QCURVE SMOOTH"
);
},
{
nodes = (
"374 240 OFFCURVE",
"451 356 QCURVE",
"375 472 OFFCURVE",
"274 473 QCURVE",
"222 464 OFFCURVE",
"177 409 OFFCURVE",
"177 356 QCURVE SMOOTH",
"177 303 OFFCURVE",
"222 249 OFFCURVE",
"274 239 QCURVE"
);
},
{
nodes = (
"805 249 OFFCURVE",
"850 303 OFFCURVE",
"850 356 QCURVE SMOOTH",
"850 409 OFFCURVE",
"805 464 OFFCURVE",
"753 473 QCURVE",
"650 472 OFFCURVE",
"576 356 QCURVE",
"651 240 OFFCURVE",
"753 239 QCURVE"
);
}
);
width = 909;
}
);
unicode = 221E;
},
{
glyphname = approxequal;
layers = (
{
layerId = "7D987CB1-A3A8-41AB-9CDC-0258C96D8E25";
paths = (
{
nodes = (
"63 374 LINE",
"71 393 OFFCURVE",
"93 430 OFFCURVE",
"121 459 OFFCURVE",
"156 477 OFFCURVE",
"177 477 QCURVE SMOOTH",
"197 477 OFFCURVE",
"237 456 OFFCURVE",
"253 445 QCURVE SMOOTH",
"270 434 OFFCURVE",
"281 431 OFFCURVE",
"284 431 QCURVE SMOOTH",
"295 431 OFFCURVE",
"309 451 OFFCURVE",
"323 477 QCURVE",
"400 446 LINE",
"391 428 OFFCURVE",
"370 392 OFFCURVE",
"343 362 OFFCURVE",
"308 344 OFFCURVE",
"286 344 QCURVE SMOOTH",
"265 344 OFFCURVE",
"225 364 OFFCURVE",
"209 375 QCURVE SMOOTH",
"198 382 OFFCURVE",
"184 391 OFFCURVE",
"172 392 OFFCURVE",
"161 381 OFFCURVE",
"155 367 QCURVE SMOOTH",
"153 362 OFFCURVE",
"144 345 OFFCURVE",
"142 341 QCURVE"
);
},
{
nodes = (
"65 209 LINE",
"73 228 OFFCURVE",
"95 264 OFFCURVE",
"123 293 OFFCURVE",
"158 311 OFFCURVE",
"179 311 QCURVE SMOOTH",
"199 311 OFFCURVE",
"239 291 OFFCURVE",
"255 280 QCURVE SMOOTH",
"272 269 OFFCURVE",
"284 266 OFFCURVE",
"286 266 QCURVE",
"297 266 OFFCURVE",
"310 286 OFFCURVE",
"325 311 QCURVE",
"403 281 LINE",
"394 263 OFFCURVE",
"372 227 OFFCURVE",
"345 197 OFFCURVE",
"309 179 OFFCURVE",
"287 179 QCURVE SMOOTH",
"267 179 OFFCURVE",
"227 199 OFFCURVE",
"211 210 QCURVE SMOOTH",
"200 217 OFFCURVE",
"186 227 OFFCURVE",
"174 227 OFFCURVE",
"163 216 OFFCURVE",
"156 202 QCURVE SMOOTH",
"154 197 OFFCURVE",
"146 179 OFFCURVE",
"144 176 QCURVE"
);
}
);
width = 358;
}
);
unicode = 2248;
},
{
glyphname = notequal;
layers = (
{
layerId = "7D987CB1-A3A8-41AB-9CDC-0258C96D8E25";
paths = (
{
nodes = (
"72 200 LINE",
"98 320 LINE",
"488 320 LINE",
"462 200 LINE"
);
},
{
nodes = (
"109 379 LINE",
"135 499 LINE",
"525 499 LINE",
"499 379 LINE"
);
},
{
nodes = (
"137 111 LINE",
"381 577 LINE",
"479 577 LINE",
"235 111 LINE"
);
}
);
width = 464;
}
);
unicode = 2260;
},
{
glyphname = lessequal;
layers = (
{
layerId = "7D987CB1-A3A8-41AB-9CDC-0258C96D8E25";
paths = (
{
nodes = (
"324 236 LINE",
"325 236 LINE"
);
},
{
nodes = (
"122 485 LINE",
"122 485 OFFCURVE",
"144 497 OFFCURVE",
"182 515 OFFCURVE",
"230 537 OFFCURVE",
"255 549 QCURVE SMOOTH",
"314 576 OFFCURVE",
"390 610 QCURVE",
"365 493 LINE",
"254 444 LINE",
"339 398 LINE",
"314 281 LINE",
"254 315 OFFCURVE",
"208 342 QCURVE SMOOTH",
"188 354 OFFCURVE",
"151 376 OFFCURVE",
"122 394 OFFCURVE",
"105 405 OFFCURVE",
"106 406 QCURVE"
);
},
{
nodes = (
"50 130 LINE",
"282 130 LINE",
"305 236 LINE",
"73 236 LINE"
);
}
);
width = 314;
}
);
unicode = 2264;
},
{
glyphname = greaterequal;
layers = (
{
layerId = "7D987CB1-A3A8-41AB-9CDC-0258C96D8E25";
paths = (
{
nodes = (
"352 406 LINE",
"352 405 OFFCURVE",
"330 394 OFFCURVE",
"294 376 OFFCURVE",
"247 354 OFFCURVE",
"222 342 QCURVE SMOOTH",
"164 315 OFFCURVE",
"90 281 QCURVE",
"115 398 LINE",
"220 444 LINE",
"129 493 LINE",
"154 610 LINE",
"215 576 OFFCURVE",
"263 549 QCURVE SMOOTH",
"283 537 OFFCURVE",
"322 515 OFFCURVE",
"352 497 OFFCURVE",
"370 485 OFFCURVE",
"370 485 QCURVE"
);
},
{
nodes = (
"313 236 LINE",
"81 236 LINE",
"58 130 LINE",
"290 130 LINE"
);
}
);
width = 314;
}
);
unicode = 2265;
},
{
glyphname = Amacron;
layers = (
{
layerId = "7D987CB1-A3A8-41AB-9CDC-0258C96D8E25";
paths = (
{
nodes = (
"254 691 LINE",
"490 691 LINE",
"553 564 LINE",
"437 17 LINE",
"319 17 LINE",
"382 314 LINE",
"205 314 LINE",
"178 186 LINE",
"194 136 LINE",
"292 136 LINE",
"267 17 LINE",
"111 17 LINE",
"53 152 LINE",
"140 564 LINE"
);
},
{
nodes = (
"408 433 LINE",
"428 528 LINE",
"407 573 LINE",
"288 573 LINE",
"279 564 OFFCURVE",
"259 537 OFFCURVE",
"251 528 QCURVE",
"231 433 LINE"
);
},
{
nodes = (
"253 731 LINE",
"279 851 LINE",
"561 851 LINE",
"535 731 LINE"
);
}
);
width = 460;
}
);
unicode = 0100;
},
{
glyphname = amacron;
layers = (
{
layerId = "7D987CB1-A3A8-41AB-9CDC-0258C96D8E25";
paths = (
{
nodes = (
"254 691 LINE",
"490 691 LINE",
"553 564 LINE",
"437 17 LINE",
"319 17 LINE",
"382 314 LINE",
"205 314 LINE",
"178 186 LINE",
"194 136 LINE",
"292 136 LINE",
"267 17 LINE",
"111 17 LINE",
"53 152 LINE",
"140 564 LINE"
);
},
{
nodes = (
"408 433 LINE",
"428 528 LINE",
"407 573 LINE",
"288 573 LINE",
"279 564 OFFCURVE",
"259 537 OFFCURVE",
"251 528 QCURVE",
"231 433 LINE"
);
},
{
nodes = (
"253 731 LINE",
"279 851 LINE",
"561 851 LINE",
"535 731 LINE"
);
}
);
width = 460;
}
);
unicode = 0101;
},
{
glyphname = Abreve;
layers = (
{
layerId = "7D987CB1-A3A8-41AB-9CDC-0258C96D8E25";
paths = (
{
nodes = (
"254 691 LINE",
"490 691 LINE",
"553 564 LINE",
"437 17 LINE",
"319 17 LINE",
"382 314 LINE",
"205 314 LINE",
"178 186 LINE",
"194 136 LINE",
"292 136 LINE",
"267 17 LINE",
"111 17 LINE",
"53 152 LINE",
"140 564 LINE"
);
},
{
nodes = (
"408 433 LINE",
"428 528 LINE",
"407 573 LINE",
"288 573 LINE",
"279 564 OFFCURVE",
"259 537 OFFCURVE",
"251 528 QCURVE",
"231 433 LINE"
);
},
{
nodes = (
"333 731 LINE",
"250 858 LINE",
"295 900 LINE",
"376 832 LINE",
"487 890 LINE",
"532 855 LINE",
"438 731 LINE"
);
}
);
width = 460;
}
);
unicode = 0102;
},
{
glyphname = abreve;
layers = (
{
layerId = "7D987CB1-A3A8-41AB-9CDC-0258C96D8E25";
paths = (
{
nodes = (
"254 691 LINE",
"490 691 LINE",
"553 564 LINE",
"437 17 LINE",
"319 17 LINE",
"382 314 LINE",
"205 314 LINE",
"178 186 LINE",
"194 136 LINE",
"292 136 LINE",
"267 17 LINE",
"111 17 LINE",
"53 152 LINE",
"140 564 LINE"
);
},
{
nodes = (
"408 433 LINE",
"428 528 LINE",
"407 573 LINE",
"288 573 LINE",
"279 564 OFFCURVE",
"259 537 OFFCURVE",
"251 528 QCURVE",
"231 433 LINE"
);
},
{
nodes = (
"333 731 LINE",
"250 858 LINE",
"295 900 LINE",
"376 832 LINE",
"487 890 LINE",
"532 855 LINE",
"438 731 LINE"
);
}
);
width = 460;
}
);
unicode = 0103;
},
{
glyphname = Aogonek;
layers = (
{
layerId = "7D987CB1-A3A8-41AB-9CDC-0258C96D8E25";
paths = (
{
nodes = (
"254 691 LINE",
"490 691 LINE",
"553 564 LINE",
"437 17 LINE",
"319 17 LINE",
"382 314 LINE",
"205 314 LINE",
"178 186 LINE",
"194 136 LINE",
"292 136 LINE",
"267 17 LINE",
"111 17 LINE",
"53 152 LINE",
"140 564 LINE"
);
},
{
nodes = (
"408 433 LINE",
"428 528 LINE",
"407 573 LINE",
"288 573 LINE",
"279 564 OFFCURVE",
"259 537 OFFCURVE",
"251 528 QCURVE",
"231 433 LINE"
);
},
{
nodes = (
"332 10 LINE",
"344 68 LINE",
"433 68 LINE",
"403 -61 LINE",
"260 -61 LINE",
"245 -132 LINE",
"247 -137 OFFCURVE",
"249 -139 OFFCURVE",
"251 -144 QCURVE",
"303 -144 LINE",
"317 -129 LINE",
"323 -106 LINE",
"408 -106 LINE",
"395 -158 LINE",
"329 -223 LINE",
"193 -223 LINE",
"158 -155 LINE",
"189 -18 LINE",
"244 10 LINE"
);
}
);
width = 460;
}
);
unicode = 0104;
},
{
glyphname = aogonek;
layers = (
{
layerId = "7D987CB1-A3A8-41AB-9CDC-0258C96D8E25";
paths = (
{
nodes = (
"254 691 LINE",
"490 691 LINE",
"553 564 LINE",
"437 17 LINE",
"319 17 LINE",
"382 314 LINE",
"205 314 LINE",
"178 186 LINE",
"194 136 LINE",
"292 136 LINE",
"267 17 LINE",
"111 17 LINE",
"53 152 LINE",
"140 564 LINE"
);
},
{
nodes = (
"408 433 LINE",
"428 528 LINE",
"407 573 LINE",
"288 573 LINE",
"279 564 OFFCURVE",
"259 537 OFFCURVE",
"251 528 QCURVE",
"231 433 LINE"
);
},
{
nodes = (
"332 10 LINE",
"344 68 LINE",
"433 68 LINE",
"403 -61 LINE",
"260 -61 LINE",
"245 -132 LINE",
"247 -137 OFFCURVE",
"249 -139 OFFCURVE",
"251 -144 QCURVE",
"303 -144 LINE",
"317 -129 LINE",
"323 -106 LINE",
"408 -106 LINE",
"395 -158 LINE",
"329 -223 LINE",
"193 -223 LINE",
"158 -155 LINE",
"189 -18 LINE",
"244 10 LINE"
);
}
);
width = 460;
}
);
unicode = 0105;
},
{
glyphname = Cacute;
layers = (
{
layerId = "7D987CB1-A3A8-41AB-9CDC-0258C96D8E25";
paths = (
{
nodes = (
"261 693 LINE",
"502 693 LINE",
"562 564 LINE",
"542 467 LINE",
"423 467 LINE",
"436 528 LINE",
"419 575 LINE",
"294 575 LINE",
"257 528 LINE",
"184 186 LINE",
"201 137 LINE",
"326 137 LINE",
"363 186 LINE",
"375 243 LINE",
"494 243 LINE",
"475 152 LINE",
"358 17 LINE",
"117 17 LINE",
"58 152 LINE",
"145 564 LINE"
);
},
{
nodes = (
"317 732 LINE",
"376 862 LINE",
"487 862 LINE",
"418 732 LINE"
);
}
);
width = 460;
}
);
unicode = 0106;
},
{
glyphname = cacute;
layers = (
{
layerId = "7D987CB1-A3A8-41AB-9CDC-0258C96D8E25";
paths = (
{
nodes = (
"261 693 LINE",
"502 693 LINE",
"562 564 LINE",
"542 467 LINE",
"423 467 LINE",
"436 528 LINE",
"419 575 LINE",
"294 575 LINE",
"257 528 LINE",
"184 186 LINE",
"201 137 LINE",
"326 137 LINE",
"363 186 LINE",
"375 243 LINE",
"494 243 LINE",
"475 152 LINE",
"358 17 LINE",
"117 17 LINE",
"58 152 LINE",
"145 564 LINE"
);
},
{
nodes = (
"317 732 LINE",
"376 862 LINE",
"487 862 LINE",
"418 732 LINE"
);
}
);
width = 460;
}
);
unicode = 0107;
},
{
glyphname = ccircumflex;
layers = (
{
layerId = "7D987CB1-A3A8-41AB-9CDC-0258C96D8E25";
paths = (
{
nodes = (
"261 693 LINE",
"502 693 LINE",
"562 564 LINE",
"542 467 LINE",
"423 467 LINE",
"436 528 LINE",
"419 575 LINE",
"294 575 LINE",
"257 528 LINE",
"184 186 LINE",
"201 137 LINE",
"326 137 LINE",
"363 186 LINE",
"375 243 LINE",
"494 243 LINE",
"475 152 LINE",
"358 17 LINE",
"117 17 LINE",
"58 152 LINE",
"145 564 LINE"
);
},
{
nodes = (
"221 732 LINE",
"311 867 LINE",
"425 867 LINE",
"335 732 LINE"
);
},
{
nodes = (
"447 732 LINE",
"388 867 LINE",
"503 867 LINE",
"561 732 LINE"
);
}
);
width = 460;
}
);
unicode = 0109;
},
{
glyphname = acircumflex;
layers = (
{
layerId = "7D987CB1-A3A8-41AB-9CDC-0258C96D8E25";
paths = (
{
nodes = (
"201 732 LINE",
"291 867 LINE",
"405 867 LINE",
"315 732 LINE"
);
},
{
nodes = (
"427 732 LINE",
"368 867 LINE",
"483 867 LINE",
"541 732 LINE"
);
},
{
nodes = (
"254 691 LINE",
"490 691 LINE",
"553 564 LINE",
"437 17 LINE",
"319 17 LINE",
"382 314 LINE",
"205 314 LINE",
"178 186 LINE",
"194 136 LINE",
"292 136 LINE",
"267 17 LINE",
"111 17 LINE",
"53 152 LINE",
"140 564 LINE"
);
},
{
nodes = (
"408 433 LINE",
"428 528 LINE",
"407 573 LINE",
"288 573 LINE",
"279 564 OFFCURVE",
"259 537 OFFCURVE",
"251 528 QCURVE",
"231 433 LINE"
);
}
);
width = 460;
}
);
unicode = 00E2;
},
{
glyphname = Ccircumflex;
layers = (
{
layerId = "7D987CB1-A3A8-41AB-9CDC-0258C96D8E25";
paths = (
{
nodes = (
"261 693 LINE",
"502 693 LINE",
"562 564 LINE",
"542 467 LINE",
"423 467 LINE",
"436 528 LINE",
"419 575 LINE",
"294 575 LINE",
"257 528 LINE",
"184 186 LINE",
"201 137 LINE",
"326 137 LINE",
"363 186 LINE",
"375 243 LINE",
"494 243 LINE",
"475 152 LINE",
"358 17 LINE",
"117 17 LINE",
"58 152 LINE",
"145 564 LINE"
);
},
{
nodes = (
"221 732 LINE",
"311 867 LINE",
"425 867 LINE",
"335 732 LINE"
);
},
{
nodes = (
"447 732 LINE",
"388 867 LINE",
"503 867 LINE",
"561 732 LINE"
);
}
);
width = 460;
}
);
unicode = 0108;
},
{
glyphname = Cdotaccent;
layers = (
{
layerId = "7D987CB1-A3A8-41AB-9CDC-0258C96D8E25";
paths = (
{
nodes = (
"261 693 LINE",
"502 693 LINE",
"562 564 LINE",
"542 467 LINE",
"423 467 LINE",
"436 528 LINE",
"419 575 LINE",
"294 575 LINE",
"257 528 LINE",
"184 186 LINE",
"201 137 LINE",
"326 137 LINE",
"363 186 LINE",
"375 243 LINE",
"494 243 LINE",
"475 152 LINE",
"358 17 LINE",
"117 17 LINE",
"58 152 LINE",
"145 564 LINE"
);
},
{
nodes = (
"314 731 LINE",
"340 851 LINE",
"459 851 LINE",
"433 731 LINE"
);
}
);
width = 460;
}
);
unicode = 010A;
},
{
glyphname = cdotaccent;
layers = (
{
layerId = "7D987CB1-A3A8-41AB-9CDC-0258C96D8E25";
paths = (
{
nodes = (
"261 693 LINE",
"502 693 LINE",
"562 564 LINE",
"542 467 LINE",
"423 467 LINE",
"436 528 LINE",
"419 575 LINE",
"294 575 LINE",
"257 528 LINE",
"184 186 LINE",
"201 137 LINE",
"326 137 LINE",
"363 186 LINE",
"375 243 LINE",
"494 243 LINE",
"475 152 LINE",
"358 17 LINE",
"117 17 LINE",
"58 152 LINE",
"145 564 LINE"
);
},
{
nodes = (
"314 731 LINE",
"340 851 LINE",
"459 851 LINE",
"433 731 LINE"
);
}
);
width = 460;
}
);
unicode = 010B;
},
{
glyphname = Ccaron;
layers = (
{
layerId = "7D987CB1-A3A8-41AB-9CDC-0258C96D8E25";
paths = (
{
nodes = (
"261 693 LINE",
"502 693 LINE",
"562 564 LINE",
"542 467 LINE",
"423 467 LINE",
"436 528 LINE",
"419 575 LINE",
"294 575 LINE",
"257 528 LINE",
"184 186 LINE",
"201 137 LINE",
"326 137 LINE",
"363 186 LINE",
"375 243 LINE",
"494 243 LINE",
"475 152 LINE",
"358 17 LINE",
"117 17 LINE",
"58 152 LINE",
"145 564 LINE"
);
},
{
nodes = (
"333 731 LINE",
"250 858 LINE",
"295 900 LINE",
"376 832 LINE",
"487 890 LINE",
"532 855 LINE",
"438 731 LINE"
);
}
);
width = 460;
}
);
unicode = 010C;
},
{
glyphname = ccaron;
layers = (
{
layerId = "7D987CB1-A3A8-41AB-9CDC-0258C96D8E25";
paths = (
{
nodes = (
"261 693 LINE",
"502 693 LINE",
"562 564 LINE",
"542 467 LINE",
"423 467 LINE",
"436 528 LINE",
"419 575 LINE",
"294 575 LINE",
"257 528 LINE",
"184 186 LINE",
"201 137 LINE",
"326 137 LINE",
"363 186 LINE",
"375 243 LINE",
"494 243 LINE",
"475 152 LINE",
"358 17 LINE",
"117 17 LINE",
"58 152 LINE",
"145 564 LINE"
);
},
{
nodes = (
"333 731 LINE",
"250 858 LINE",
"295 900 LINE",
"376 832 LINE",
"487 890 LINE",
"532 855 LINE",
"438 731 LINE"
);
}
);
width = 460;
}
);
unicode = 010D;
},
{
glyphname = Dcaron;
layers = (
{
layerId = "7D987CB1-A3A8-41AB-9CDC-0258C96D8E25";
paths = (
{
nodes = (
"179 694 LINE",
"497 694 LINE",
"557 564 LINE",
"470 152 LINE",
"353 17 LINE",
"124 17 LINE",
"64 152 LINE"
);
},
{
nodes = (
"359 186 LINE",
"432 528 LINE",
"427 537 OFFCURVE",
"418 566 OFFCURVE",
"413 575 QCURVE",
"274 575 LINE",
"191 186 LINE",
"207 137 LINE",
"321 137 LINE"
);
},
{
nodes = (
"333 731 LINE",
"250 858 LINE",
"295 900 LINE",
"376 832 LINE",
"487 890 LINE",
"532 855 LINE",
"438 731 LINE"
);
}
);
width = 472;
}
);
unicode = 010E;
},
{
glyphname = dcaron;
layers = (
{
layerId = "7D987CB1-A3A8-41AB-9CDC-0258C96D8E25";
paths = (
{
nodes = (
"179 694 LINE",
"497 694 LINE",
"557 564 LINE",
"470 152 LINE",
"353 17 LINE",
"124 17 LINE",
"64 152 LINE"
);
},
{
nodes = (
"359 186 LINE",
"432 528 LINE",
"427 537 OFFCURVE",
"418 566 OFFCURVE",
"413 575 QCURVE",
"274 575 LINE",
"191 186 LINE",
"207 137 LINE",
"321 137 LINE"
);
},
{
nodes = (
"333 731 LINE",
"250 858 LINE",
"295 900 LINE",
"376 832 LINE",
"487 890 LINE",
"532 855 LINE",
"438 731 LINE"
);
}
);
width = 472;
}
);
unicode = 010F;
},
{
glyphname = Dcroat;
layers = (
{
layerId = "7D987CB1-A3A8-41AB-9CDC-0258C96D8E25";
paths = (
{
nodes = (
"220 694 LINE",
"538 694 LINE",
"598 564 LINE",
"511 152 LINE",
"394 17 LINE",
"165 17 LINE",
"105 152 LINE"
);
},
{
nodes = (
"400 186 LINE",
"473 528 LINE",
"468 537 OFFCURVE",
"459 566 OFFCURVE",
"454 575 QCURVE",
"315 575 LINE",
"232 186 LINE",
"248 137 LINE",
"362 137 LINE"
);
},
{
nodes = (
"63 314 LINE",
"89 434 LINE",
"371 434 LINE",
"345 314 LINE"
);
}
);
width = 513;
}
);
unicode = 0110;
},
{
glyphname = dcroat;
layers = (
{
layerId = "7D987CB1-A3A8-41AB-9CDC-0258C96D8E25";
paths = (
{
nodes = (
"220 694 LINE",
"538 694 LINE",
"598 564 LINE",
"511 152 LINE",
"394 17 LINE",
"165 17 LINE",
"105 152 LINE"
);
},
{
nodes = (
"400 186 LINE",
"473 528 LINE",
"468 537 OFFCURVE",
"459 566 OFFCURVE",
"454 575 QCURVE",
"315 575 LINE",
"232 186 LINE",
"248 137 LINE",
"362 137 LINE"
);
},
{
nodes = (
"63 314 LINE",
"89 434 LINE",
"371 434 LINE",
"345 314 LINE"
);
}
);
width = 513;
}
);
unicode = 0111;
},
{
glyphname = Emacron;
layers = (
{
layerId = "7D987CB1-A3A8-41AB-9CDC-0258C96D8E25";
paths = (
{
nodes = (
"381 258 LINE",
"516 258 LINE",
"492 142 LINE",
"428 142 LINE",
"331 17 LINE",
"120 17 LINE",
"58 152 LINE",
"173 693 LINE",
"561 693 LINE",
"536 575 LINE",
"268 575 LINE",
"238 434 LINE",
"417 434 LINE",
"392 316 LINE",
"213 316 LINE",
"185 186 LINE",
"202 137 LINE",
"287 137 LINE"
);
},
{
nodes = (
"233 731 LINE",
"259 851 LINE",
"541 851 LINE",
"515 731 LINE"
);
}
);
width = 477;
}
);
unicode = 0112;
},
{
glyphname = emacron;
layers = (
{
layerId = "7D987CB1-A3A8-41AB-9CDC-0258C96D8E25";
paths = (
{
nodes = (
"381 258 LINE",
"516 258 LINE",
"492 142 LINE",
"428 142 LINE",
"331 17 LINE",
"120 17 LINE",
"58 152 LINE",
"173 693 LINE",
"561 693 LINE",
"536 575 LINE",
"268 575 LINE",
"238 434 LINE",
"417 434 LINE",
"392 316 LINE",
"213 316 LINE",
"185 186 LINE",
"202 137 LINE",
"287 137 LINE"
);
},
{
nodes = (
"233 731 LINE",
"259 851 LINE",
"541 851 LINE",
"515 731 LINE"
);
}
);
width = 477;
}
);
unicode = 0113;
},
{
glyphname = Ebreve;
layers = (
{
layerId = "7D987CB1-A3A8-41AB-9CDC-0258C96D8E25";
paths = (
{
nodes = (
"381 258 LINE",
"516 258 LINE",
"492 142 LINE",
"428 142 LINE",
"331 17 LINE",
"120 17 LINE",
"58 152 LINE",
"173 693 LINE",
"561 693 LINE",
"536 575 LINE",
"268 575 LINE",
"238 434 LINE",
"417 434 LINE",
"392 316 LINE",
"213 316 LINE",
"185 186 LINE",
"202 137 LINE",
"287 137 LINE"
);
},
{
nodes = (
"461 731 LINE",
"293 731 LINE",
"245 857 LINE",
"254 896 LINE",
"355 896 LINE",
"352 881 LINE",
"364 848 LINE",
"431 848 LINE",
"475 881 LINE",
"479 896 LINE",
"566 896 LINE",
"556 857 LINE"
);
}
);
width = 477;
}
);
unicode = 0114;
},
{
glyphname = ebreve;
layers = (
{
layerId = "7D987CB1-A3A8-41AB-9CDC-0258C96D8E25";
paths = (
{
nodes = (
"381 258 LINE",
"516 258 LINE",
"492 142 LINE",
"428 142 LINE",
"331 17 LINE",
"120 17 LINE",
"58 152 LINE",
"173 693 LINE",
"561 693 LINE",
"536 575 LINE",
"268 575 LINE",
"238 434 LINE",
"417 434 LINE",
"392 316 LINE",
"213 316 LINE",
"185 186 LINE",
"202 137 LINE",
"287 137 LINE"
);
},
{
nodes = (
"461 731 LINE",
"293 731 LINE",
"245 857 LINE",
"254 896 LINE",
"355 896 LINE",
"352 881 LINE",
"364 848 LINE",
"431 848 LINE",
"475 881 LINE",
"479 896 LINE",
"566 896 LINE",
"556 857 LINE"
);
}
);
width = 477;
}
);
unicode = 0115;
},
{
glyphname = Edotaccent;
layers = (
{
layerId = "7D987CB1-A3A8-41AB-9CDC-0258C96D8E25";
paths = (
{
nodes = (
"381 258 LINE",
"516 258 LINE",
"492 142 LINE",
"428 142 LINE",
"331 17 LINE",
"120 17 LINE",
"58 152 LINE",
"173 693 LINE",
"561 693 LINE",
"536 575 LINE",
"268 575 LINE",
"238 434 LINE",
"417 434 LINE",
"392 316 LINE",
"213 316 LINE",
"185 186 LINE",
"202 137 LINE",
"287 137 LINE"
);
},
{
nodes = (
"314 731 LINE",
"340 851 LINE",
"459 851 LINE",
"433 731 LINE"
);
}
);
width = 477;
}
);
unicode = 0116;
},
{
glyphname = edotaccent;
layers = (
{
layerId = "7D987CB1-A3A8-41AB-9CDC-0258C96D8E25";
paths = (
{
nodes = (
"381 258 LINE",
"516 258 LINE",
"492 142 LINE",
"428 142 LINE",
"331 17 LINE",
"120 17 LINE",
"58 152 LINE",
"173 693 LINE",
"561 693 LINE",
"536 575 LINE",
"268 575 LINE",
"238 434 LINE",
"417 434 LINE",
"392 316 LINE",
"213 316 LINE",
"185 186 LINE",
"202 137 LINE",
"287 137 LINE"
);
},
{
nodes = (
"314 731 LINE",
"340 851 LINE",
"459 851 LINE",
"433 731 LINE"
);
}
);
width = 477;
}
);
unicode = 0117;
},
{
glyphname = Eogonek;
layers = (
{
layerId = "7D987CB1-A3A8-41AB-9CDC-0258C96D8E25";
paths = (
{
nodes = (
"381 258 LINE",
"516 258 LINE",
"492 142 LINE",
"428 142 LINE",
"331 17 LINE",
"120 17 LINE",
"58 152 LINE",
"173 693 LINE",
"561 693 LINE",
"536 575 LINE",
"268 575 LINE",
"238 434 LINE",
"417 434 LINE",
"392 316 LINE",
"213 316 LINE",
"185 186 LINE",
"202 137 LINE",
"287 137 LINE"
);
},
{
nodes = (
"198 -17 LINE",
"210 41 LINE",
"299 41 LINE",
"269 -88 LINE",
"126 -88 LINE",
"111 -159 LINE",
"113 -164 OFFCURVE",
"115 -166 OFFCURVE",
"117 -171 QCURVE",
"169 -171 LINE",
"183 -156 LINE",
"189 -133 LINE",
"274 -133 LINE",
"261 -185 LINE",
"195 -250 LINE",
"59 -250 LINE",
"24 -182 LINE",
"55 -45 LINE",
"110 -17 LINE"
);
}
);
width = 477;
}
);
unicode = 0118;
},
{
glyphname = eogonek;
layers = (
{
layerId = "7D987CB1-A3A8-41AB-9CDC-0258C96D8E25";
paths = (
{
nodes = (
"381 258 LINE",
"516 258 LINE",
"492 142 LINE",
"428 142 LINE",
"331 17 LINE",
"120 17 LINE",
"58 152 LINE",
"173 693 LINE",
"561 693 LINE",
"536 575 LINE",
"268 575 LINE",
"238 434 LINE",
"417 434 LINE",
"392 316 LINE",
"213 316 LINE",
"185 186 LINE",
"202 137 LINE",
"287 137 LINE"
);
},
{
nodes = (
"198 -17 LINE",
"210 41 LINE",
"299 41 LINE",
"269 -88 LINE",
"126 -88 LINE",
"111 -159 LINE",
"113 -164 OFFCURVE",
"115 -166 OFFCURVE",
"117 -171 QCURVE",
"169 -171 LINE",
"183 -156 LINE",
"189 -133 LINE",
"274 -133 LINE",
"261 -185 LINE",
"195 -250 LINE",
"59 -250 LINE",
"24 -182 LINE",
"55 -45 LINE",
"110 -17 LINE"
);
}
);
width = 477;
}
);
unicode = 0119;
},
{
glyphname = Ecaron;
layers = (
{
layerId = "7D987CB1-A3A8-41AB-9CDC-0258C96D8E25";
paths = (
{
nodes = (
"381 258 LINE",
"516 258 LINE",
"492 142 LINE",
"428 142 LINE",
"331 17 LINE",
"120 17 LINE",
"58 152 LINE",
"173 693 LINE",
"561 693 LINE",
"536 575 LINE",
"268 575 LINE",
"238 434 LINE",
"417 434 LINE",
"392 316 LINE",
"213 316 LINE",
"185 186 LINE",
"202 137 LINE",
"287 137 LINE"
);
},
{
nodes = (
"211 731 LINE",
"237 851 LINE",
"356 851 LINE",
"330 731 LINE"
);
},
{
nodes = (
"410 731 LINE",
"436 851 LINE",
"555 851 LINE",
"529 731 LINE"
);
}
);
width = 477;
}
);
unicode = 011A;
},
{
glyphname = ecaron;
layers = (
{
layerId = "7D987CB1-A3A8-41AB-9CDC-0258C96D8E25";
paths = (
{
nodes = (
"381 258 LINE",
"516 258 LINE",
"492 142 LINE",
"428 142 LINE",
"331 17 LINE",
"120 17 LINE",
"58 152 LINE",
"173 693 LINE",
"561 693 LINE",
"536 575 LINE",
"268 575 LINE",
"238 434 LINE",
"417 434 LINE",
"392 316 LINE",
"213 316 LINE",
"185 186 LINE",
"202 137 LINE",
"287 137 LINE"
);
},
{
nodes = (
"211 731 LINE",
"237 851 LINE",
"356 851 LINE",
"330 731 LINE"
);
},
{
nodes = (
"410 731 LINE",
"436 851 LINE",
"555 851 LINE",
"529 731 LINE"
);
}
);
width = 477;
}
);
unicode = 011B;
},
{
glyphname = Gcircumflex;
layers = (
{
layerId = "7D987CB1-A3A8-41AB-9CDC-0258C96D8E25";
paths = (
{
nodes = (
"258 693 LINE",
"485 693 LINE",
"545 564 LINE",
"525 467 LINE",
"408 467 LINE",
"421 528 LINE",
"415 536 OFFCURVE",
"405 567 OFFCURVE",
"401 575 QCURVE",
"289 575 LINE",
"252 528 LINE",
"179 186 LINE",
"196 137 LINE",
"338 137 LINE",
"364 259 LINE",
"271 259 LINE",
"296 379 LINE",
"506 379 LINE",
"429 17 LINE",
"114 17 LINE",
"53 152 LINE",
"140 564 LINE"
);
},
{
nodes = (
"201 732 LINE",
"291 867 LINE",
"405 867 LINE",
"315 732 LINE"
);
},
{
nodes = (
"427 732 LINE",
"368 867 LINE",
"483 867 LINE",
"541 732 LINE"
);
}
);
width = 452;
}
);
unicode = 011C;
},
{
glyphname = gcircumflex;
layers = (
{
layerId = "7D987CB1-A3A8-41AB-9CDC-0258C96D8E25";
paths = (
{
nodes = (
"258 693 LINE",
"485 693 LINE",
"545 564 LINE",
"525 467 LINE",
"408 467 LINE",
"421 528 LINE",
"415 536 OFFCURVE",
"405 567 OFFCURVE",
"401 575 QCURVE",
"289 575 LINE",
"252 528 LINE",
"179 186 LINE",
"196 137 LINE",
"338 137 LINE",
"364 259 LINE",
"271 259 LINE",
"296 379 LINE",
"506 379 LINE",
"429 17 LINE",
"114 17 LINE",
"53 152 LINE",
"140 564 LINE"
);
},
{
nodes = (
"201 732 LINE",
"291 867 LINE",
"405 867 LINE",
"315 732 LINE"
);
},
{
nodes = (
"427 732 LINE",
"368 867 LINE",
"483 867 LINE",
"541 732 LINE"
);
}
);
width = 452;
}
);
unicode = 011D;
},
{
glyphname = Gbreve;
layers = (
{
layerId = "7D987CB1-A3A8-41AB-9CDC-0258C96D8E25";
paths = (
{
nodes = (
"258 693 LINE",
"485 693 LINE",
"545 564 LINE",
"525 467 LINE",
"408 467 LINE",
"421 528 LINE",
"415 536 OFFCURVE",
"405 567 OFFCURVE",
"401 575 QCURVE",
"289 575 LINE",
"252 528 LINE",
"179 186 LINE",
"196 137 LINE",
"338 137 LINE",
"364 259 LINE",
"271 259 LINE",
"296 379 LINE",
"506 379 LINE",
"429 17 LINE",
"114 17 LINE",
"53 152 LINE",
"140 564 LINE"
);
},
{
nodes = (
"461 731 LINE",
"293 731 LINE",
"245 857 LINE",
"254 896 LINE",
"355 896 LINE",
"352 881 LINE",
"364 848 LINE",
"431 848 LINE",
"475 881 LINE",
"479 896 LINE",
"566 896 LINE",
"556 857 LINE"
);
}
);
width = 452;
}
);
unicode = 011E;
},
{
glyphname = gbreve;
layers = (
{
layerId = "7D987CB1-A3A8-41AB-9CDC-0258C96D8E25";
paths = (
{
nodes = (
"258 693 LINE",
"485 693 LINE",
"545 564 LINE",
"525 467 LINE",
"408 467 LINE",
"421 528 LINE",
"415 536 OFFCURVE",
"405 567 OFFCURVE",
"401 575 QCURVE",
"289 575 LINE",
"252 528 LINE",
"179 186 LINE",
"196 137 LINE",
"338 137 LINE",
"364 259 LINE",
"271 259 LINE",
"296 379 LINE",
"506 379 LINE",
"429 17 LINE",
"114 17 LINE",
"53 152 LINE",
"140 564 LINE"
);
},
{
nodes = (
"461 731 LINE",
"293 731 LINE",
"245 857 LINE",
"254 896 LINE",
"355 896 LINE",
"352 881 LINE",
"364 848 LINE",
"431 848 LINE",
"475 881 LINE",
"479 896 LINE",
"566 896 LINE",
"556 857 LINE"
);
}
);
width = 452;
}
);
unicode = 011F;
},
{
glyphname = Gdotaccent;
layers = (
{
layerId = "7D987CB1-A3A8-41AB-9CDC-0258C96D8E25";
paths = (
{
nodes = (
"258 693 LINE",
"485 693 LINE",
"545 564 LINE",
"525 467 LINE",
"408 467 LINE",
"421 528 LINE",
"415 536 OFFCURVE",
"405 567 OFFCURVE",
"401 575 QCURVE",
"289 575 LINE",
"252 528 LINE",
"179 186 LINE",
"196 137 LINE",
"338 137 LINE",
"364 259 LINE",
"271 259 LINE",
"296 379 LINE",
"506 379 LINE",
"429 17 LINE",
"114 17 LINE",
"53 152 LINE",
"140 564 LINE"
);
},
{
nodes = (
"314 731 LINE",
"340 851 LINE",
"459 851 LINE",
"433 731 LINE"
);
}
);
width = 452;
}
);
unicode = 0120;
},
{
glyphname = gdotaccent;
layers = (
{
layerId = "7D987CB1-A3A8-41AB-9CDC-0258C96D8E25";
paths = (
{
nodes = (
"258 693 LINE",
"485 693 LINE",
"545 564 LINE",
"525 467 LINE",
"408 467 LINE",
"421 528 LINE",
"415 536 OFFCURVE",
"405 567 OFFCURVE",
"401 575 QCURVE",
"289 575 LINE",
"252 528 LINE",
"179 186 LINE",
"196 137 LINE",
"338 137 LINE",
"364 259 LINE",
"271 259 LINE",
"296 379 LINE",
"506 379 LINE",
"429 17 LINE",
"114 17 LINE",
"53 152 LINE",
"140 564 LINE"
);
},
{
nodes = (
"314 731 LINE",
"340 851 LINE",
"459 851 LINE",
"433 731 LINE"
);
}
);
width = 452;
}
);
unicode = 0121;
},
{
glyphname = Gcommaaccent;
layers = (
{
layerId = "7D987CB1-A3A8-41AB-9CDC-0258C96D8E25";
paths = (
{
nodes = (
"258 693 LINE",
"485 693 LINE",
"545 564 LINE",
"525 467 LINE",
"408 467 LINE",
"421 528 LINE",
"415 536 OFFCURVE",
"405 567 OFFCURVE",
"401 575 QCURVE",
"289 575 LINE",
"252 528 LINE",
"179 186 LINE",
"196 137 LINE",
"338 137 LINE",
"364 259 LINE",
"271 259 LINE",
"296 379 LINE",
"506 379 LINE",
"429 17 LINE",
"114 17 LINE",
"53 152 LINE",
"140 564 LINE"
);
},
{
nodes = (
"269 -177 LINE",
"150 -177 LINE",
"180 -9 LINE",
"299 -9 LINE"
);
}
);
width = 452;
}
);
unicode = 0122;
},
{
glyphname = gcommaaccent;
layers = (
{
layerId = "7D987CB1-A3A8-41AB-9CDC-0258C96D8E25";
paths = (
{
nodes = (
"258 693 LINE",
"485 693 LINE",
"545 564 LINE",
"525 467 LINE",
"408 467 LINE",
"421 528 LINE",
"415 536 OFFCURVE",
"405 567 OFFCURVE",
"401 575 QCURVE",
"289 575 LINE",
"252 528 LINE",
"179 186 LINE",
"196 137 LINE",
"338 137 LINE",
"364 259 LINE",
"271 259 LINE",
"296 379 LINE",
"506 379 LINE",
"429 17 LINE",
"114 17 LINE",
"53 152 LINE",
"140 564 LINE"
);
},
{
nodes = (
"269 -177 LINE",
"150 -177 LINE",
"180 -9 LINE",
"299 -9 LINE"
);
}
);
width = 452;
}
);
unicode = 0123;
},
{
glyphname = Hcircumflex;
layers = (
{
layerId = "7D987CB1-A3A8-41AB-9CDC-0258C96D8E25";
paths = (
{
nodes = (
"414 434 LINE",
"469 694 LINE",
"588 694 LINE",
"444 17 LINE",
"325 17 LINE",
"389 316 LINE",
"212 316 LINE",
"184 186 LINE",
"186 182 OFFCURVE",
"190 168 OFFCURVE",
"194 153 OFFCURVE",
"199 140 OFFCURVE",
"202 137 QCURVE",
"299 137 LINE",
"273 17 LINE",
"119 17 LINE",
"58 152 LINE",
"173 694 LINE",
"292 694 LINE",
"237 434 LINE"
);
},
{
nodes = (
"213 732 LINE",
"303 867 LINE",
"417 867 LINE",
"327 732 LINE"
);
},
{
nodes = (
"439 732 LINE",
"380 867 LINE",
"495 867 LINE",
"553 732 LINE"
);
}
);
width = 468;
}
);
unicode = 0124;
},
{
glyphname = hcircumflex;
layers = (
{
layerId = "7D987CB1-A3A8-41AB-9CDC-0258C96D8E25";
paths = (
{
nodes = (
"414 434 LINE",
"469 694 LINE",
"588 694 LINE",
"444 17 LINE",
"325 17 LINE",
"389 316 LINE",
"212 316 LINE",
"184 186 LINE",
"186 182 OFFCURVE",
"190 168 OFFCURVE",
"194 153 OFFCURVE",
"199 140 OFFCURVE",
"202 137 QCURVE",
"299 137 LINE",
"273 17 LINE",
"119 17 LINE",
"58 152 LINE",
"173 694 LINE",
"292 694 LINE",
"237 434 LINE"
);
},
{
nodes = (
"213 732 LINE",
"303 867 LINE",
"417 867 LINE",
"327 732 LINE"
);
},
{
nodes = (
"439 732 LINE",
"380 867 LINE",
"495 867 LINE",
"553 732 LINE"
);
}
);
width = 468;
}
);
unicode = 0125;
},
{
glyphname = Hbar;
layers = (
{
layerId = "7D987CB1-A3A8-41AB-9CDC-0258C96D8E25";
paths = (
{
nodes = (
"454 434 LINE",
"509 694 LINE",
"628 694 LINE",
"484 17 LINE",
"365 17 LINE",
"429 316 LINE",
"252 316 LINE",
"224 186 LINE",
"226 182 OFFCURVE",
"230 168 OFFCURVE",
"234 153 OFFCURVE",
"239 140 OFFCURVE",
"242 137 QCURVE",
"339 137 LINE",
"313 17 LINE",
"159 17 LINE",
"98 152 LINE",
"213 694 LINE",
"332 694 LINE",
"277 434 LINE"
);
},
{
nodes = (
"105 505 LINE",
"131 625 LINE",
"680 625 LINE",
"654 505 LINE"
);
}
);
width = 551;
}
);
unicode = 0126;
},
{
glyphname = hbar;
layers = (
{
layerId = "7D987CB1-A3A8-41AB-9CDC-0258C96D8E25";
paths = (
{
nodes = (
"454 434 LINE",
"509 694 LINE",
"628 694 LINE",
"484 17 LINE",
"365 17 LINE",
"429 316 LINE",
"252 316 LINE",
"224 186 LINE",
"226 182 OFFCURVE",
"230 168 OFFCURVE",
"234 153 OFFCURVE",
"239 140 OFFCURVE",
"242 137 QCURVE",
"339 137 LINE",
"313 17 LINE",
"159 17 LINE",
"98 152 LINE",
"213 694 LINE",
"332 694 LINE",
"277 434 LINE"
);
},
{
nodes = (
"105 505 LINE",
"131 625 LINE",
"680 625 LINE",
"654 505 LINE"
);
}
);
width = 551;
}
);
unicode = 0127;
},
{
glyphname = Itilde;
layers = (
{
layerId = "7D987CB1-A3A8-41AB-9CDC-0258C96D8E25";
paths = (
{
nodes = (
"182 186 LINE",
"200 137 LINE",
"298 137 LINE",
"272 17 LINE",
"116 17 LINE",
"57 152 LINE",
"172 693 LINE",
"290 693 LINE"
);
},
{
nodes = (
"82 761 LINE",
"91 781 OFFCURVE",
"115 821 OFFCURVE",
"145 852 OFFCURVE",
"183 872 OFFCURVE",
"206 872 QCURVE SMOOTH",
"228 872 OFFCURVE",
"271 850 OFFCURVE",
"288 838 QCURVE SMOOTH",
"306 826 OFFCURVE",
"319 823 OFFCURVE",
"322 823 QCURVE SMOOTH",
"333 823 OFFCURVE",
"348 844 OFFCURVE",
"364 872 QCURVE",
"448 839 LINE",
"438 819 OFFCURVE",
"415 780 OFFCURVE",
"385 748 OFFCURVE",
"347 728 OFFCURVE",
"323 728 QCURVE SMOOTH",
"301 728 OFFCURVE",
"257 751 OFFCURVE",
"240 762 QCURVE SMOOTH",
"229 769 OFFCURVE",
"213 780 OFFCURVE",
"200 780 OFFCURVE",
"188 768 OFFCURVE",
"181 753 QCURVE SMOOTH",
"179 748 OFFCURVE",
"170 729 OFFCURVE",
"168 725 QCURVE"
);
}
);
width = 278;
}
);
unicode = 0128;
},
{
glyphname = itilde;
layers = (
{
layerId = "7D987CB1-A3A8-41AB-9CDC-0258C96D8E25";
paths = (
{
nodes = (
"182 186 LINE",
"200 137 LINE",
"298 137 LINE",
"272 17 LINE",
"116 17 LINE",
"57 152 LINE",
"172 693 LINE",
"290 693 LINE"
);
},
{
nodes = (
"82 761 LINE",
"91 781 OFFCURVE",
"115 821 OFFCURVE",
"145 852 OFFCURVE",
"183 872 OFFCURVE",
"206 872 QCURVE SMOOTH",
"228 872 OFFCURVE",
"271 850 OFFCURVE",
"288 838 QCURVE SMOOTH",
"306 826 OFFCURVE",
"319 823 OFFCURVE",
"322 823 QCURVE SMOOTH",
"333 823 OFFCURVE",
"348 844 OFFCURVE",
"364 872 QCURVE",
"448 839 LINE",
"438 819 OFFCURVE",
"415 780 OFFCURVE",
"385 748 OFFCURVE",
"347 728 OFFCURVE",
"323 728 QCURVE SMOOTH",
"301 728 OFFCURVE",
"257 751 OFFCURVE",
"240 762 QCURVE SMOOTH",
"229 769 OFFCURVE",
"213 780 OFFCURVE",
"200 780 OFFCURVE",
"188 768 OFFCURVE",
"181 753 QCURVE SMOOTH",
"179 748 OFFCURVE",
"170 729 OFFCURVE",
"168 725 QCURVE"
);
}
);
width = 278;
}
);
unicode = 0129;
},
{
glyphname = Imacron;
layers = (
{
layerId = "7D987CB1-A3A8-41AB-9CDC-0258C96D8E25";
paths = (
{
nodes = (
"182 186 LINE",
"200 137 LINE",
"298 137 LINE",
"272 17 LINE",
"116 17 LINE",
"57 152 LINE",
"172 693 LINE",
"290 693 LINE"
);
},
{
nodes = (
"114 731 LINE",
"140 851 LINE",
"422 851 LINE",
"396 731 LINE"
);
}
);
width = 278;
}
);
unicode = 012A;
},
{
glyphname = imacron;
layers = (
{
layerId = "7D987CB1-A3A8-41AB-9CDC-0258C96D8E25";
paths = (
{
nodes = (
"182 186 LINE",
"200 137 LINE",
"298 137 LINE",
"272 17 LINE",
"116 17 LINE",
"57 152 LINE",
"172 693 LINE",
"290 693 LINE"
);
},
{
nodes = (
"114 731 LINE",
"140 851 LINE",
"422 851 LINE",
"396 731 LINE"
);
}
);
width = 278;
}
);
unicode = 012B;
},
{
glyphname = Ibreve;
layers = (
{
layerId = "7D987CB1-A3A8-41AB-9CDC-0258C96D8E25";
paths = (
{
nodes = (
"182 186 LINE",
"200 137 LINE",
"298 137 LINE",
"272 17 LINE",
"116 17 LINE",
"57 152 LINE",
"172 693 LINE",
"290 693 LINE"
);
},
{
nodes = (
"319 731 LINE",
"151 731 LINE",
"103 857 LINE",
"112 896 LINE",
"213 896 LINE",
"210 881 LINE",
"222 848 LINE",
"289 848 LINE",
"333 881 LINE",
"337 896 LINE",
"424 896 LINE",
"414 857 LINE"
);
}
);
width = 278;
}
);
unicode = 012C;
},
{
glyphname = ibreve;
layers = (
{
layerId = "7D987CB1-A3A8-41AB-9CDC-0258C96D8E25";
paths = (
{
nodes = (
"182 186 LINE",
"200 137 LINE",
"298 137 LINE",
"272 17 LINE",
"116 17 LINE",
"57 152 LINE",
"172 693 LINE",
"290 693 LINE"
);
},
{
nodes = (
"319 731 LINE",
"151 731 LINE",
"103 857 LINE",
"112 896 LINE",
"213 896 LINE",
"210 881 LINE",
"222 848 LINE",
"289 848 LINE",
"333 881 LINE",
"337 896 LINE",
"424 896 LINE",
"414 857 LINE"
);
}
);
width = 278;
}
);
unicode = 012D;
},
{
glyphname = Iogonek;
layers = (
{
layerId = "7D987CB1-A3A8-41AB-9CDC-0258C96D8E25";
paths = (
{
nodes = (
"182 186 LINE",
"200 137 LINE",
"298 137 LINE",
"272 17 LINE",
"116 17 LINE",
"57 152 LINE",
"172 693 LINE",
"290 693 LINE"
);
},
{
nodes = (
"134 -17 LINE",
"146 41 LINE",
"235 41 LINE",
"205 -88 LINE",
"62 -88 LINE",
"47 -159 LINE",
"49 -164 OFFCURVE",
"51 -166 OFFCURVE",
"53 -171 QCURVE",
"105 -171 LINE",
"119 -156 LINE",
"125 -133 LINE",
"210 -133 LINE",
"197 -185 LINE",
"131 -250 LINE",
"-5 -250 LINE",
"-40 -182 LINE",
"-9 -45 LINE",
"46 -17 LINE"
);
}
);
width = 278;
}
);
unicode = 012E;
},
{
glyphname = iogonek;
layers = (
{
layerId = "7D987CB1-A3A8-41AB-9CDC-0258C96D8E25";
paths = (
{
nodes = (
"182 186 LINE",
"200 137 LINE",
"298 137 LINE",
"272 17 LINE",
"116 17 LINE",
"57 152 LINE",
"172 693 LINE",
"290 693 LINE"
);
},
{
nodes = (
"134 -17 LINE",
"146 41 LINE",
"235 41 LINE",
"205 -88 LINE",
"62 -88 LINE",
"47 -159 LINE",
"49 -164 OFFCURVE",
"51 -166 OFFCURVE",
"53 -171 QCURVE",
"105 -171 LINE",
"119 -156 LINE",
"125 -133 LINE",
"210 -133 LINE",
"197 -185 LINE",
"131 -250 LINE",
"-5 -250 LINE",
"-40 -182 LINE",
"-9 -45 LINE",
"46 -17 LINE"
);
}
);
width = 278;
}
);
unicode = 012F;
},
{
glyphname = Idotaccent;
layers = (
{
layerId = "7D987CB1-A3A8-41AB-9CDC-0258C96D8E25";
paths = (
{
nodes = (
"182 186 LINE",
"200 137 LINE",
"298 137 LINE",
"272 17 LINE",
"116 17 LINE",
"57 152 LINE",
"172 693 LINE",
"290 693 LINE"
);
},
{
nodes = (
"184 731 LINE",
"210 851 LINE",
"329 851 LINE",
"303 731 LINE"
);
}
);
width = 278;
}
);
unicode = 0130;
},
{
glyphname = dotlessi;
layers = (
{
layerId = "7D987CB1-A3A8-41AB-9CDC-0258C96D8E25";
paths = (
{
nodes = (
"182 186 LINE",
"200 137 LINE",
"298 137 LINE",
"272 17 LINE",
"116 17 LINE",
"57 152 LINE",
"172 693 LINE",
"290 693 LINE"
);
}
);
width = 278;
}
);
unicode = 0131;
},
{
glyphname = ij;
layers = (
{
layerId = "7D987CB1-A3A8-41AB-9CDC-0258C96D8E25";
paths = (
{
nodes = (
"182 186 LINE",
"200 137 LINE",
"298 137 LINE",
"272 17 LINE",
"116 17 LINE",
"57 152 LINE",
"172 693 LINE",
"290 693 LINE"
);
},
{
nodes = (
"583 694 LINE",
"703 694 LINE",
"588 152 LINE",
"468 17 LINE",
"315 17 LINE",
"341 137 LINE",
"436 137 LINE",
"475 186 LINE"
);
}
);
width = 591;
}
);
unicode = 0133;
},
{
glyphname = Jcircumflex;
layers = (
{
layerId = "7D987CB1-A3A8-41AB-9CDC-0258C96D8E25";
paths = (
{
nodes = (
"296 694 LINE",
"416 694 LINE",
"301 152 LINE",
"181 17 LINE",
"28 17 LINE",
"54 137 LINE",
"149 137 LINE",
"188 186 LINE"
);
},
{
nodes = (
"201 732 LINE",
"291 867 LINE",
"405 867 LINE",
"315 732 LINE"
);
},
{
nodes = (
"427 732 LINE",
"368 867 LINE",
"483 867 LINE",
"541 732 LINE"
);
}
);
width = 296;
}
);
unicode = 0134;
},
{
glyphname = jcircumflex;
layers = (
{
layerId = "7D987CB1-A3A8-41AB-9CDC-0258C96D8E25";
paths = (
{
nodes = (
"296 694 LINE",
"416 694 LINE",
"301 152 LINE",
"181 17 LINE",
"28 17 LINE",
"54 137 LINE",
"149 137 LINE",
"188 186 LINE"
);
},
{
nodes = (
"201 732 LINE",
"291 867 LINE",
"405 867 LINE",
"315 732 LINE"
);
},
{
nodes = (
"427 732 LINE",
"368 867 LINE",
"483 867 LINE",
"541 732 LINE"
);
}
);
width = 296;
}
);
unicode = 0135;
},
{
glyphname = Kcommaaccent;
layers = (
{
layerId = "7D987CB1-A3A8-41AB-9CDC-0258C96D8E25";
paths = (
{
nodes = (
"421 471 LINE",
"468 693 LINE",
"587 693 LINE",
"531 432 LINE",
"475 375 LINE",
"483 361 OFFCURVE",
"500 331 OFFCURVE",
"507 317 QCURVE",
"443 17 LINE",
"324 17 LINE",
"380 278 LINE",
"360 315 LINE",
"211 315 LINE",
"184 186 LINE",
"201 137 LINE",
"298 137 LINE",
"272 17 LINE",
"117 17 LINE",
"58 152 LINE",
"173 693 LINE",
"292 693 LINE",
"237 433 LINE",
"385 433 LINE"
);
},
{
nodes = (
"269 -177 LINE",
"150 -177 LINE",
"180 -9 LINE",
"299 -9 LINE"
);
}
);
width = 469;
}
);
unicode = 0136;
},
{
glyphname = kcommaaccent;
layers = (
{
layerId = "7D987CB1-A3A8-41AB-9CDC-0258C96D8E25";
paths = (
{
nodes = (
"421 471 LINE",
"468 693 LINE",
"587 693 LINE",
"531 432 LINE",
"475 375 LINE",
"483 361 OFFCURVE",
"500 331 OFFCURVE",
"507 317 QCURVE",
"443 17 LINE",
"324 17 LINE",
"380 278 LINE",
"360 315 LINE",
"211 315 LINE",
"184 186 LINE",
"201 137 LINE",
"298 137 LINE",
"272 17 LINE",
"117 17 LINE",
"58 152 LINE",
"173 693 LINE",
"292 693 LINE",
"237 433 LINE",
"385 433 LINE"
);
},
{
nodes = (
"269 -177 LINE",
"150 -177 LINE",
"180 -9 LINE",
"299 -9 LINE"
);
}
);
width = 469;
}
);
unicode = 0137;
},
{
glyphname = kgreenlandic;
layers = (
{
layerId = "7D987CB1-A3A8-41AB-9CDC-0258C96D8E25";
paths = (
{
nodes = (
"421 471 LINE",
"468 693 LINE",
"587 693 LINE",
"531 432 LINE",
"475 375 LINE",
"483 361 OFFCURVE",
"500 331 OFFCURVE",
"507 317 QCURVE",
"443 17 LINE",
"324 17 LINE",
"380 278 LINE",
"360 315 LINE",
"211 315 LINE",
"184 186 LINE",
"201 137 LINE",
"298 137 LINE",
"272 17 LINE",
"117 17 LINE",
"58 152 LINE",
"173 693 LINE",
"292 693 LINE",
"237 433 LINE",
"385 433 LINE"
);
}
);
width = 469;
}
);
unicode = 0138;
},
{
glyphname = lacute;
layers = (
{
layerId = "7D987CB1-A3A8-41AB-9CDC-0258C96D8E25";
paths = (
{
nodes = (
"196 732 LINE",
"255 862 LINE",
"366 862 LINE",
"297 732 LINE"
);
},
{
nodes = (
"365 258 LINE",
"497 258 LINE",
"472 139 LINE",
"408 139 LINE",
"384 107 OFFCURVE",
"337 48 OFFCURVE",
"313 17 QCURVE",
"117 17 LINE",
"58 152 LINE",
"173 694 LINE",
"292 694 LINE",
"184 186 LINE",
"201 137 LINE",
"270 137 LINE"
);
}
);
width = 278;
}
);
unicode = 013A;
},
{
glyphname = Lcommaaccent;
layers = (
{
layerId = "7D987CB1-A3A8-41AB-9CDC-0258C96D8E25";
paths = (
{
nodes = (
"365 258 LINE",
"497 258 LINE",
"472 139 LINE",
"408 139 LINE",
"384 107 OFFCURVE",
"337 48 OFFCURVE",
"313 17 QCURVE",
"117 17 LINE",
"58 152 LINE",
"173 694 LINE",
"292 694 LINE",
"184 186 LINE",
"201 137 LINE",
"270 137 LINE"
);
},
{
nodes = (
"269 -177 LINE",
"150 -177 LINE",
"180 -9 LINE",
"299 -9 LINE"
);
}
);
width = 460;
}
);
unicode = 013B;
},
{
glyphname = Lacute;
layers = (
{
layerId = "7D987CB1-A3A8-41AB-9CDC-0258C96D8E25";
paths = (
{
nodes = (
"196 732 LINE",
"255 862 LINE",
"366 862 LINE",
"297 732 LINE"
);
},
{
nodes = (
"365 258 LINE",
"497 258 LINE",
"472 139 LINE",
"408 139 LINE",
"384 107 OFFCURVE",
"337 48 OFFCURVE",
"313 17 QCURVE",
"117 17 LINE",
"58 152 LINE",
"173 694 LINE",
"292 694 LINE",
"184 186 LINE",
"201 137 LINE",
"270 137 LINE"
);
}
);
width = 278;
}
);
unicode = 0139;
},
{
glyphname = lcommaaccent;
layers = (
{
layerId = "7D987CB1-A3A8-41AB-9CDC-0258C96D8E25";
paths = (
{
nodes = (
"365 258 LINE",
"497 258 LINE",
"472 139 LINE",
"408 139 LINE",
"384 107 OFFCURVE",
"337 48 OFFCURVE",
"313 17 QCURVE",
"117 17 LINE",
"58 152 LINE",
"173 694 LINE",
"292 694 LINE",
"184 186 LINE",
"201 137 LINE",
"270 137 LINE"
);
},
{
nodes = (
"269 -177 LINE",
"150 -177 LINE",
"180 -9 LINE",
"299 -9 LINE"
);
}
);
width = 460;
}
);
unicode = 013C;
},
{
glyphname = Lcaron;
layers = (
{
layerId = "7D987CB1-A3A8-41AB-9CDC-0258C96D8E25";
paths = (
{
nodes = (
"365 258 LINE",
"497 258 LINE",
"472 139 LINE",
"408 139 LINE",
"384 107 OFFCURVE",
"337 48 OFFCURVE",
"313 17 QCURVE",
"117 17 LINE",
"58 152 LINE",
"173 694 LINE",
"292 694 LINE",
"184 186 LINE",
"201 137 LINE",
"270 137 LINE"
);
},
{
nodes = (
"354 694 LINE",
"473 694 LINE",
"431 495 LINE",
"312 495 LINE"
);
}
);
width = 460;
}
);
unicode = 013D;
},
{
glyphname = lcaron;
layers = (
{
layerId = "7D987CB1-A3A8-41AB-9CDC-0258C96D8E25";
paths = (
{
nodes = (
"365 258 LINE",
"497 258 LINE",
"472 139 LINE",
"408 139 LINE",
"384 107 OFFCURVE",
"337 48 OFFCURVE",
"313 17 QCURVE",
"117 17 LINE",
"58 152 LINE",
"173 694 LINE",
"292 694 LINE",
"184 186 LINE",
"201 137 LINE",
"270 137 LINE"
);
},
{
nodes = (
"354 694 LINE",
"473 694 LINE",
"431 495 LINE",
"312 495 LINE"
);
}
);
width = 460;
}
);
unicode = 013E;
},
{
glyphname = Ldot;
layers = (
{
layerId = "7D987CB1-A3A8-41AB-9CDC-0258C96D8E25";
paths = (
{
nodes = (
"365 258 LINE",
"497 258 LINE",
"472 139 LINE",
"408 139 LINE",
"384 107 OFFCURVE",
"337 48 OFFCURVE",
"313 17 QCURVE",
"117 17 LINE",
"58 152 LINE",
"173 694 LINE",
"292 694 LINE",
"184 186 LINE",
"201 137 LINE",
"270 137 LINE"
);
},
{
nodes = (
"295 447 LINE",
"321 567 LINE",
"440 567 LINE",
"414 447 LINE"
);
}
);
width = 460;
}
);
unicode = 013F;
},
{
glyphname = ldot;
layers = (
{
layerId = "7D987CB1-A3A8-41AB-9CDC-0258C96D8E25";
paths = (
{
nodes = (
"365 258 LINE",
"497 258 LINE",
"472 139 LINE",
"408 139 LINE",
"384 107 OFFCURVE",
"337 48 OFFCURVE",
"313 17 QCURVE",
"117 17 LINE",
"58 152 LINE",
"173 694 LINE",
"292 694 LINE",
"184 186 LINE",
"201 137 LINE",
"270 137 LINE"
);
},
{
nodes = (
"295 447 LINE",
"321 567 LINE",
"440 567 LINE",
"414 447 LINE"
);
}
);
width = 460;
}
);
unicode = 0140;
},
{
glyphname = Nacute;
layers = (
{
layerId = "7D987CB1-A3A8-41AB-9CDC-0258C96D8E25";
paths = (
{
nodes = (
"437 254 LINE",
"531 694 LINE",
"651 694 LINE",
"507 17 LINE",
"371 17 LINE",
"244 464 LINE",
"185 186 LINE",
"202 137 LINE",
"300 137 LINE",
"274 17 LINE",
"118 17 LINE",
"58 152 LINE",
"173 694 LINE",
"313 694 LINE"
);
},
{
nodes = (
"355 732 LINE",
"414 862 LINE",
"525 862 LINE",
"456 732 LINE"
);
}
);
width = 537;
}
);
unicode = 0143;
},
{
glyphname = nacute;
layers = (
{
layerId = "7D987CB1-A3A8-41AB-9CDC-0258C96D8E25";
paths = (
{
nodes = (
"437 254 LINE",
"531 694 LINE",
"651 694 LINE",
"507 17 LINE",
"371 17 LINE",
"244 464 LINE",
"185 186 LINE",
"202 137 LINE",
"300 137 LINE",
"274 17 LINE",
"118 17 LINE",
"58 152 LINE",
"173 694 LINE",
"313 694 LINE"
);
},
{
nodes = (
"355 732 LINE",
"414 862 LINE",
"525 862 LINE",
"456 732 LINE"
);
}
);
width = 537;
}
);
unicode = 0144;
},
{
glyphname = Ncommaaccent;
layers = (
{
layerId = "7D987CB1-A3A8-41AB-9CDC-0258C96D8E25";
paths = (
{
nodes = (
"437 254 LINE",
"531 694 LINE",
"651 694 LINE",
"507 17 LINE",
"371 17 LINE",
"244 464 LINE",
"185 186 LINE",
"202 137 LINE",
"300 137 LINE",
"274 17 LINE",
"118 17 LINE",
"58 152 LINE",
"173 694 LINE",
"313 694 LINE"
);
},
{
nodes = (
"302 -177 LINE",
"183 -177 LINE",
"213 -9 LINE",
"332 -9 LINE"
);
}
);
width = 537;
}
);
unicode = 0145;
},
{
glyphname = ncommaaccent;
layers = (
{
layerId = "7D987CB1-A3A8-41AB-9CDC-0258C96D8E25";
paths = (
{
nodes = (
"437 254 LINE",
"531 694 LINE",
"651 694 LINE",
"507 17 LINE",
"371 17 LINE",
"244 464 LINE",
"185 186 LINE",
"202 137 LINE",
"300 137 LINE",
"274 17 LINE",
"118 17 LINE",
"58 152 LINE",
"173 694 LINE",
"313 694 LINE"
);
},
{
nodes = (
"302 -177 LINE",
"183 -177 LINE",
"213 -9 LINE",
"332 -9 LINE"
);
}
);
width = 537;
}
);
unicode = 0146;
},
{
glyphname = Ncaron;
layers = (
{
layerId = "7D987CB1-A3A8-41AB-9CDC-0258C96D8E25";
paths = (
{
nodes = (
"437 254 LINE",
"531 694 LINE",
"651 694 LINE",
"507 17 LINE",
"371 17 LINE",
"244 464 LINE",
"185 186 LINE",
"202 137 LINE",
"300 137 LINE",
"274 17 LINE",
"118 17 LINE",
"58 152 LINE",
"173 694 LINE",
"313 694 LINE"
);
},
{
nodes = (
"351 731 LINE",
"268 858 LINE",
"313 900 LINE",
"394 832 LINE",
"505 890 LINE",
"550 855 LINE",
"456 731 LINE"
);
}
);
width = 537;
}
);
unicode = 0147;
},
{
glyphname = ncaron;
layers = (
{
layerId = "7D987CB1-A3A8-41AB-9CDC-0258C96D8E25";
paths = (
{
nodes = (
"437 254 LINE",
"531 694 LINE",
"651 694 LINE",
"507 17 LINE",
"371 17 LINE",
"244 464 LINE",
"185 186 LINE",
"202 137 LINE",
"300 137 LINE",
"274 17 LINE",
"118 17 LINE",
"58 152 LINE",
"173 694 LINE",
"313 694 LINE"
);
},
{
nodes = (
"351 731 LINE",
"268 858 LINE",
"313 900 LINE",
"394 832 LINE",
"505 890 LINE",
"550 855 LINE",
"456 731 LINE"
);
}
);
width = 537;
}
);
unicode = 0148;
},
{
glyphname = napostrophe;
layers = (
{
layerId = "7D987CB1-A3A8-41AB-9CDC-0258C96D8E25";
paths = (
{
nodes = (
"582 254 LINE",
"676 694 LINE",
"796 694 LINE",
"652 17 LINE",
"516 17 LINE",
"389 464 LINE",
"330 186 LINE",
"347 137 LINE",
"445 137 LINE",
"419 17 LINE",
"263 17 LINE",
"203 152 LINE",
"318 694 LINE",
"458 694 LINE"
);
},
{
nodes = (
"156 694 LINE",
"275 694 LINE",
"233 495 LINE",
"114 495 LINE"
);
}
);
width = 677;
}
);
unicode = 0149;
},
{
glyphname = Eng;
layers = (
{
layerId = "7D987CB1-A3A8-41AB-9CDC-0258C96D8E25";
paths = (
{
nodes = (
"437 254 LINE",
"531 694 LINE",
"651 694 LINE",
"477 -108 LINE",
"342 -200 LINE",
"269 -82 LINE",
"363 -22 LINE",
"371 17 LINE",
"244 464 LINE",
"185 186 LINE",
"202 137 LINE",
"300 137 LINE",
"274 17 LINE",
"118 17 LINE",
"58 152 LINE",
"173 694 LINE",
"313 694 LINE"
);
}
);
width = 537;
}
);
unicode = 014A;
},
{
glyphname = eng;
layers = (
{
layerId = "7D987CB1-A3A8-41AB-9CDC-0258C96D8E25";
paths = (
{
nodes = (
"437 254 LINE",
"531 694 LINE",
"651 694 LINE",
"477 -108 LINE",
"342 -200 LINE",
"269 -82 LINE",
"363 -22 LINE",
"371 17 LINE",
"244 464 LINE",
"185 186 LINE",
"202 137 LINE",
"300 137 LINE",
"274 17 LINE",
"118 17 LINE",
"58 152 LINE",
"173 694 LINE",
"313 694 LINE"
);
}
);
width = 537;
}
);
unicode = 014B;
},
{
glyphname = Omacron;
layers = (
{
layerId = "7D987CB1-A3A8-41AB-9CDC-0258C96D8E25";
paths = (
{
nodes = (
"263 693 LINE",
"504 693 LINE",
"564 564 LINE",
"477 152 LINE",
"360 17 LINE",
"119 17 LINE",
"59 152 LINE",
"146 564 LINE"
);
},
{
nodes = (
"365 186 LINE",
"438 528 LINE",
"421 575 LINE",
"295 575 LINE",
"259 528 LINE",
"186 186 LINE",
"202 137 LINE",
"328 137 LINE"
);
},
{
nodes = (
"253 731 LINE",
"279 851 LINE",
"561 851 LINE",
"535 731 LINE"
);
}
);
width = 472;
}
);
unicode = 014C;
},
{
glyphname = omacron;
layers = (
{
layerId = "7D987CB1-A3A8-41AB-9CDC-0258C96D8E25";
paths = (
{
nodes = (
"263 693 LINE",
"504 693 LINE",
"564 564 LINE",
"477 152 LINE",
"360 17 LINE",
"119 17 LINE",
"59 152 LINE",
"146 564 LINE"
);
},
{
nodes = (
"365 186 LINE",
"438 528 LINE",
"421 575 LINE",
"295 575 LINE",
"259 528 LINE",
"186 186 LINE",
"202 137 LINE",
"328 137 LINE"
);
},
{
nodes = (
"253 731 LINE",
"279 851 LINE",
"561 851 LINE",
"535 731 LINE"
);
}
);
width = 472;
}
);
unicode = 014D;
},
{
glyphname = Obreve;
layers = (
{
layerId = "7D987CB1-A3A8-41AB-9CDC-0258C96D8E25";
paths = (
{
nodes = (
"263 693 LINE",
"504 693 LINE",
"564 564 LINE",
"477 152 LINE",
"360 17 LINE",
"119 17 LINE",
"59 152 LINE",
"146 564 LINE"
);
},
{
nodes = (
"365 186 LINE",
"438 528 LINE",
"421 575 LINE",
"295 575 LINE",
"259 528 LINE",
"186 186 LINE",
"202 137 LINE",
"328 137 LINE"
);
},
{
nodes = (
"461 731 LINE",
"293 731 LINE",
"245 857 LINE",
"254 896 LINE",
"355 896 LINE",
"352 881 LINE",
"364 848 LINE",
"431 848 LINE",
"475 881 LINE",
"479 896 LINE",
"566 896 LINE",
"556 857 LINE"
);
}
);
width = 472;
}
);
unicode = 014E;
},
{
glyphname = obreve;
layers = (
{
layerId = "7D987CB1-A3A8-41AB-9CDC-0258C96D8E25";
paths = (
{
nodes = (
"263 693 LINE",
"504 693 LINE",
"564 564 LINE",
"477 152 LINE",
"360 17 LINE",
"119 17 LINE",
"59 152 LINE",
"146 564 LINE"
);
},
{
nodes = (
"365 186 LINE",
"438 528 LINE",
"421 575 LINE",
"295 575 LINE",
"259 528 LINE",
"186 186 LINE",
"202 137 LINE",
"328 137 LINE"
);
},
{
nodes = (
"461 731 LINE",
"293 731 LINE",
"245 857 LINE",
"254 896 LINE",
"355 896 LINE",
"352 881 LINE",
"364 848 LINE",
"431 848 LINE",
"475 881 LINE",
"479 896 LINE",
"566 896 LINE",
"556 857 LINE"
);
}
);
width = 472;
}
);
unicode = 014F;
},
{
glyphname = Ohungarumlaut;
layers = (
{
layerId = "7D987CB1-A3A8-41AB-9CDC-0258C96D8E25";
paths = (
{
nodes = (
"263 693 LINE",
"504 693 LINE",
"564 564 LINE",
"477 152 LINE",
"360 17 LINE",
"119 17 LINE",
"59 152 LINE",
"146 564 LINE"
);
},
{
nodes = (
"365 186 LINE",
"438 528 LINE",
"421 575 LINE",
"295 575 LINE",
"259 528 LINE",
"186 186 LINE",
"202 137 LINE",
"328 137 LINE"
);
},
{
nodes = (
"228 731 LINE",
"326 901 LINE",
"427 831 LINE",
"361 731 LINE"
);
},
{
nodes = (
"422 731 LINE",
"520 901 LINE",
"621 831 LINE",
"555 731 LINE"
);
}
);
width = 472;
}
);
unicode = 0150;
},
{
glyphname = ohungarumlaut;
layers = (
{
layerId = "7D987CB1-A3A8-41AB-9CDC-0258C96D8E25";
paths = (
{
nodes = (
"263 693 LINE",
"504 693 LINE",
"564 564 LINE",
"477 152 LINE",
"360 17 LINE",
"119 17 LINE",
"59 152 LINE",
"146 564 LINE"
);
},
{
nodes = (
"365 186 LINE",
"438 528 LINE",
"421 575 LINE",
"295 575 LINE",
"259 528 LINE",
"186 186 LINE",
"202 137 LINE",
"328 137 LINE"
);
},
{
nodes = (
"228 731 LINE",
"326 901 LINE",
"427 831 LINE",
"361 731 LINE"
);
},
{
nodes = (
"422 731 LINE",
"520 901 LINE",
"621 831 LINE",
"555 731 LINE"
);
}
);
width = 472;
}
);
unicode = 0151;
},
{
glyphname = Racute;
layers = (
{
layerId = "7D987CB1-A3A8-41AB-9CDC-0258C96D8E25";
paths = (
{
nodes = (
"175 693 LINE",
"501 693 LINE",
"563 564 LINE",
"535 432 LINE",
"479 375 LINE",
"487 361 OFFCURVE",
"504 331 OFFCURVE",
"511 317 QCURVE",
"447 17 LINE",
"328 17 LINE",
"384 280 LINE",
"380 288 OFFCURVE",
"367 308 OFFCURVE",
"363 316 QCURVE",
"215 316 LINE",
"187 185 LINE",
"203 137 LINE",
"300 137 LINE",
"274 17 LINE",
"120 17 LINE",
"60 152 LINE"
);
},
{
nodes = (
"425 471 LINE",
"437 528 LINE",
"432 536 OFFCURVE",
"422 567 OFFCURVE",
"418 575 QCURVE",
"270 575 LINE",
"240 434 LINE",
"388 434 LINE"
);
},
{
nodes = (
"327 732 LINE",
"386 862 LINE",
"497 862 LINE",
"428 732 LINE"
);
}
);
width = 469;
}
);
unicode = 0154;
},
{
glyphname = racute;
layers = (
{
layerId = "7D987CB1-A3A8-41AB-9CDC-0258C96D8E25";
paths = (
{
nodes = (
"175 693 LINE",
"501 693 LINE",
"563 564 LINE",
"535 432 LINE",
"479 375 LINE",
"487 361 OFFCURVE",
"504 331 OFFCURVE",
"511 317 QCURVE",
"447 17 LINE",
"328 17 LINE",
"384 280 LINE",
"380 288 OFFCURVE",
"367 308 OFFCURVE",
"363 316 QCURVE",
"215 316 LINE",
"187 185 LINE",
"203 137 LINE",
"300 137 LINE",
"274 17 LINE",
"120 17 LINE",
"60 152 LINE"
);
},
{
nodes = (
"425 471 LINE",
"437 528 LINE",
"432 536 OFFCURVE",
"422 567 OFFCURVE",
"418 575 QCURVE",
"270 575 LINE",
"240 434 LINE",
"388 434 LINE"
);
},
{
nodes = (
"327 732 LINE",
"386 862 LINE",
"497 862 LINE",
"428 732 LINE"
);
}
);
width = 469;
}
);
unicode = 0155;
},
{
glyphname = Rcommaaccent;
layers = (
{
layerId = "7D987CB1-A3A8-41AB-9CDC-0258C96D8E25";
paths = (
{
nodes = (
"175 693 LINE",
"501 693 LINE",
"563 564 LINE",
"535 432 LINE",
"479 375 LINE",
"487 361 OFFCURVE",
"504 331 OFFCURVE",
"511 317 QCURVE",
"447 17 LINE",
"328 17 LINE",
"384 280 LINE",
"380 288 OFFCURVE",
"367 308 OFFCURVE",
"363 316 QCURVE",
"215 316 LINE",
"187 185 LINE",
"203 137 LINE",
"300 137 LINE",
"274 17 LINE",
"120 17 LINE",
"60 152 LINE"
);
},
{
nodes = (
"425 471 LINE",
"437 528 LINE",
"432 536 OFFCURVE",
"422 567 OFFCURVE",
"418 575 QCURVE",
"270 575 LINE",
"240 434 LINE",
"388 434 LINE"
);
},
{
nodes = (
"269 -177 LINE",
"150 -177 LINE",
"180 -9 LINE",
"299 -9 LINE"
);
}
);
width = 469;
}
);
unicode = 0156;
},
{
glyphname = rcommaaccent;
layers = (
{
layerId = "7D987CB1-A3A8-41AB-9CDC-0258C96D8E25";
paths = (
{
nodes = (
"175 693 LINE",
"501 693 LINE",
"563 564 LINE",
"535 432 LINE",
"479 375 LINE",
"487 361 OFFCURVE",
"504 331 OFFCURVE",
"511 317 QCURVE",
"447 17 LINE",
"328 17 LINE",
"384 280 LINE",
"380 288 OFFCURVE",
"367 308 OFFCURVE",
"363 316 QCURVE",
"215 316 LINE",
"187 185 LINE",
"203 137 LINE",
"300 137 LINE",
"274 17 LINE",
"120 17 LINE",
"60 152 LINE"
);
},
{
nodes = (
"425 471 LINE",
"437 528 LINE",
"432 536 OFFCURVE",
"422 567 OFFCURVE",
"418 575 QCURVE",
"270 575 LINE",
"240 434 LINE",
"388 434 LINE"
);
},
{
nodes = (
"269 -177 LINE",
"150 -177 LINE",
"180 -9 LINE",
"299 -9 LINE"
);
}
);
width = 469;
}
);
unicode = 0157;
},
{
glyphname = rcaron;
layers = (
{
layerId = "7D987CB1-A3A8-41AB-9CDC-0258C96D8E25";
paths = (
{
nodes = (
"175 693 LINE",
"501 693 LINE",
"563 564 LINE",
"535 432 LINE",
"479 375 LINE",
"487 361 OFFCURVE",
"504 331 OFFCURVE",
"511 317 QCURVE",
"447 17 LINE",
"328 17 LINE",
"384 280 LINE",
"380 288 OFFCURVE",
"367 308 OFFCURVE",
"363 316 QCURVE",
"215 316 LINE",
"187 185 LINE",
"203 137 LINE",
"300 137 LINE",
"274 17 LINE",
"120 17 LINE",
"60 152 LINE"
);
},
{
nodes = (
"425 471 LINE",
"437 528 LINE",
"432 536 OFFCURVE",
"422 567 OFFCURVE",
"418 575 QCURVE",
"270 575 LINE",
"240 434 LINE",
"388 434 LINE"
);
},
{
nodes = (
"333 731 LINE",
"250 858 LINE",
"295 900 LINE",
"376 832 LINE",
"487 890 LINE",
"532 855 LINE",
"438 731 LINE"
);
}
);
width = 469;
}
);
unicode = 0159;
},
{
glyphname = Sacute;
layers = (
{
layerId = "7D987CB1-A3A8-41AB-9CDC-0258C96D8E25";
paths = (
{
nodes = (
"489 693 LINE",
"549 564 LINE",
"529 467 LINE",
"411 467 LINE",
"424 528 LINE",
"406 575 LINE",
"293 575 LINE",
"256 528 LINE",
"244 472 LINE",
"263 434 LINE",
"434 434 LINE",
"497 317 LINE",
"462 152 LINE",
"345 17 LINE",
"116 17 LINE",
"57 152 LINE",
"76 243 LINE",
"195 243 LINE",
"183 186 LINE",
"200 137 LINE",
"313 137 LINE",
"351 186 LINE",
"371 279 LINE",
"350 316 LINE",
"180 316 LINE",
"116 432 LINE",
"144 564 LINE",
"260 693 LINE"
);
},
{
nodes = (
"355 732 LINE",
"414 862 LINE",
"525 862 LINE",
"456 732 LINE"
);
}
);
width = 457;
}
);
unicode = 015A;
},
{
glyphname = sacute;
layers = (
{
layerId = "7D987CB1-A3A8-41AB-9CDC-0258C96D8E25";
paths = (
{
nodes = (
"489 693 LINE",
"549 564 LINE",
"529 467 LINE",
"411 467 LINE",
"424 528 LINE",
"406 575 LINE",
"293 575 LINE",
"256 528 LINE",
"244 472 LINE",
"263 434 LINE",
"434 434 LINE",
"497 317 LINE",
"462 152 LINE",
"345 17 LINE",
"116 17 LINE",
"57 152 LINE",
"76 243 LINE",
"195 243 LINE",
"183 186 LINE",
"200 137 LINE",
"313 137 LINE",
"351 186 LINE",
"371 279 LINE",
"350 316 LINE",
"180 316 LINE",
"116 432 LINE",
"144 564 LINE",
"260 693 LINE"
);
},
{
nodes = (
"355 732 LINE",
"414 862 LINE",
"525 862 LINE",
"456 732 LINE"
);
}
);
width = 457;
}
);
unicode = 015B;
},
{
glyphname = Scircumflex;
layers = (
{
layerId = "7D987CB1-A3A8-41AB-9CDC-0258C96D8E25";
paths = (
{
nodes = (
"489 693 LINE",
"549 564 LINE",
"529 467 LINE",
"411 467 LINE",
"424 528 LINE",
"406 575 LINE",
"293 575 LINE",
"256 528 LINE",
"244 472 LINE",
"263 434 LINE",
"434 434 LINE",
"497 317 LINE",
"462 152 LINE",
"345 17 LINE",
"116 17 LINE",
"57 152 LINE",
"76 243 LINE",
"195 243 LINE",
"183 186 LINE",
"200 137 LINE",
"313 137 LINE",
"351 186 LINE",
"371 279 LINE",
"350 316 LINE",
"180 316 LINE",
"116 432 LINE",
"144 564 LINE",
"260 693 LINE"
);
},
{
nodes = (
"210 732 LINE",
"300 867 LINE",
"414 867 LINE",
"324 732 LINE"
);
},
{
nodes = (
"436 732 LINE",
"377 867 LINE",
"492 867 LINE",
"550 732 LINE"
);
}
);
width = 457;
}
);
unicode = 015C;
},
{
glyphname = scircumflex;
layers = (
{
layerId = "7D987CB1-A3A8-41AB-9CDC-0258C96D8E25";
paths = (
{
nodes = (
"489 693 LINE",
"549 564 LINE",
"529 467 LINE",
"411 467 LINE",
"424 528 LINE",
"406 575 LINE",
"293 575 LINE",
"256 528 LINE",
"244 472 LINE",
"263 434 LINE",
"434 434 LINE",
"497 317 LINE",
"462 152 LINE",
"345 17 LINE",
"116 17 LINE",
"57 152 LINE",
"76 243 LINE",
"195 243 LINE",
"183 186 LINE",
"200 137 LINE",
"313 137 LINE",
"351 186 LINE",
"371 279 LINE",
"350 316 LINE",
"180 316 LINE",
"116 432 LINE",
"144 564 LINE",
"260 693 LINE"
);
},
{
nodes = (
"210 732 LINE",
"300 867 LINE",
"414 867 LINE",
"324 732 LINE"
);
},
{
nodes = (
"436 732 LINE",
"377 867 LINE",
"492 867 LINE",
"550 732 LINE"
);
}
);
width = 457;
}
);
unicode = 015D;
},
{
glyphname = Scedilla;
layers = (
{
layerId = "7D987CB1-A3A8-41AB-9CDC-0258C96D8E25";
paths = (
{
nodes = (
"489 693 LINE",
"549 564 LINE",
"529 467 LINE",
"411 467 LINE",
"424 528 LINE",
"406 575 LINE",
"293 575 LINE",
"256 528 LINE",
"244 472 LINE",
"263 434 LINE",
"434 434 LINE",
"497 317 LINE",
"462 152 LINE",
"345 17 LINE",
"116 17 LINE",
"57 152 LINE",
"76 243 LINE",
"195 243 LINE",
"183 186 LINE",
"200 137 LINE",
"313 137 LINE",
"351 186 LINE",
"371 279 LINE",
"350 316 LINE",
"180 316 LINE",
"116 432 LINE",
"144 564 LINE",
"260 693 LINE"
);
},
{
nodes = (
"273 83 LINE",
"251 2 LINE",
"258 -8 LINE",
"359 -8 LINE",
"402 -76 LINE",
"379 -165 LINE",
"303 -239 LINE",
"155 -239 LINE",
"115 -161 LINE",
"125 -121 LINE",
"220 -121 LINE",
"215 -144 LINE",
"221 -159 LINE",
"274 -159 LINE",
"290 -141 LINE",
"292 -130 OFFCURVE",
"300 -100 OFFCURVE",
"303 -89 QCURVE",
"295 -78 LINE",
"194 -78 LINE",
"150 -21 LINE",
"182 83 LINE"
);
}
);
width = 457;
}
);
unicode = 015E;
},
{
glyphname = scedilla;
layers = (
{
layerId = "7D987CB1-A3A8-41AB-9CDC-0258C96D8E25";
paths = (
{
nodes = (
"489 693 LINE",
"549 564 LINE",
"529 467 LINE",
"411 467 LINE",
"424 528 LINE",
"406 575 LINE",
"293 575 LINE",
"256 528 LINE",
"244 472 LINE",
"263 434 LINE",
"434 434 LINE",
"497 317 LINE",
"462 152 LINE",
"345 17 LINE",
"116 17 LINE",
"57 152 LINE",
"76 243 LINE",
"195 243 LINE",
"183 186 LINE",
"200 137 LINE",
"313 137 LINE",
"351 186 LINE",
"371 279 LINE",
"350 316 LINE",
"180 316 LINE",
"116 432 LINE",
"144 564 LINE",
"260 693 LINE"
);
},
{
nodes = (
"273 83 LINE",
"251 2 LINE",
"258 -8 LINE",
"359 -8 LINE",
"402 -76 LINE",
"379 -165 LINE",
"303 -239 LINE",
"155 -239 LINE",
"115 -161 LINE",
"125 -121 LINE",
"220 -121 LINE",
"215 -144 LINE",
"221 -159 LINE",
"274 -159 LINE",
"290 -141 LINE",
"292 -130 OFFCURVE",
"300 -100 OFFCURVE",
"303 -89 QCURVE",
"295 -78 LINE",
"194 -78 LINE",
"150 -21 LINE",
"182 83 LINE"
);
}
);
width = 457;
}
);
unicode = 015F;
},
{
glyphname = Scommaaccent;
layers = (
{
layerId = "7D987CB1-A3A8-41AB-9CDC-0258C96D8E25";
paths = (
{
nodes = (
"489 693 LINE",
"549 564 LINE",
"529 467 LINE",
"411 467 LINE",
"424 528 LINE",
"406 575 LINE",
"293 575 LINE",
"256 528 LINE",
"244 472 LINE",
"263 434 LINE",
"434 434 LINE",
"497 317 LINE",
"462 152 LINE",
"345 17 LINE",
"116 17 LINE",
"57 152 LINE",
"76 243 LINE",
"195 243 LINE",
"183 186 LINE",
"200 137 LINE",
"313 137 LINE",
"351 186 LINE",
"371 279 LINE",
"350 316 LINE",
"180 316 LINE",
"116 432 LINE",
"144 564 LINE",
"260 693 LINE"
);
},
{
nodes = (
"269 -177 LINE",
"150 -177 LINE",
"180 -9 LINE",
"299 -9 LINE"
);
}
);
width = 457;
}
);
unicode = 0218;
},
{
glyphname = scommaaccent;
layers = (
{
layerId = "7D987CB1-A3A8-41AB-9CDC-0258C96D8E25";
paths = (
{
nodes = (
"489 693 LINE",
"549 564 LINE",
"529 467 LINE",
"411 467 LINE",
"424 528 LINE",
"406 575 LINE",
"293 575 LINE",
"256 528 LINE",
"244 472 LINE",
"263 434 LINE",
"434 434 LINE",
"497 317 LINE",
"462 152 LINE",
"345 17 LINE",
"116 17 LINE",
"57 152 LINE",
"76 243 LINE",
"195 243 LINE",
"183 186 LINE",
"200 137 LINE",
"313 137 LINE",
"351 186 LINE",
"371 279 LINE",
"350 316 LINE",
"180 316 LINE",
"116 432 LINE",
"144 564 LINE",
"260 693 LINE"
);
},
{
nodes = (
"269 -177 LINE",
"150 -177 LINE",
"180 -9 LINE",
"299 -9 LINE"
);
}
);
width = 457;
}
);
unicode = 0219;
},
{
glyphname = aeacute;
layers = (
{
layerId = "7D987CB1-A3A8-41AB-9CDC-0258C96D8E25";
paths = (
{
nodes = (
"254 691 LINE",
"463 691 LINE",
"463 693 LINE",
"851 693 LINE",
"826 575 LINE",
"558 575 LINE",
"528 434 LINE",
"707 434 LINE",
"682 316 LINE",
"503 316 LINE",
"475 186 LINE",
"492 137 LINE",
"577 137 LINE",
"671 258 LINE",
"806 258 LINE",
"782 142 LINE",
"718 142 LINE",
"621 17 LINE",
"319 17 LINE",
"382 314 LINE",
"205 314 LINE",
"178 186 LINE",
"194 136 LINE",
"292 136 LINE",
"267 17 LINE",
"111 17 LINE",
"53 152 LINE",
"140 564 LINE"
);
},
{
nodes = (
"408 433 LINE",
"428 528 LINE",
"407 573 LINE",
"288 573 LINE",
"279 564 OFFCURVE",
"259 537 OFFCURVE",
"251 528 QCURVE",
"231 433 LINE"
);
},
{
nodes = (
"423 732 LINE",
"482 862 LINE",
"593 862 LINE",
"524 732 LINE"
);
}
);
width = 750;
}
);
unicode = 01FD;
},
{
glyphname = AEacute;
layers = (
{
layerId = "7D987CB1-A3A8-41AB-9CDC-0258C96D8E25";
paths = (
{
nodes = (
"254 691 LINE",
"463 691 LINE",
"463 693 LINE",
"851 693 LINE",
"826 575 LINE",
"558 575 LINE",
"528 434 LINE",
"707 434 LINE",
"682 316 LINE",
"503 316 LINE",
"475 186 LINE",
"492 137 LINE",
"577 137 LINE",
"671 258 LINE",
"806 258 LINE",
"782 142 LINE",
"718 142 LINE",
"621 17 LINE",
"319 17 LINE",
"382 314 LINE",
"205 314 LINE",
"178 186 LINE",
"194 136 LINE",
"292 136 LINE",
"267 17 LINE",
"111 17 LINE",
"53 152 LINE",
"140 564 LINE"
);
},
{
nodes = (
"408 433 LINE",
"428 528 LINE",
"407 573 LINE",
"288 573 LINE",
"279 564 OFFCURVE",
"259 537 OFFCURVE",
"251 528 QCURVE",
"231 433 LINE"
);
},
{
nodes = (
"423 732 LINE",
"482 862 LINE",
"593 862 LINE",
"524 732 LINE"
);
}
);
width = 750;
}
);
unicode = 01FC;
},
{
glyphname = figuredash;
layers = (
{
layerId = "7D987CB1-A3A8-41AB-9CDC-0258C96D8E25";
paths = (
{
nodes = (
"79 314 LINE",
"105 434 LINE",
"592 434 LINE",
"566 314 LINE"
);
}
);
width = 520;
}
);
unicode = 2012;
},
{
glyphname = Tcommaaccent;
layers = (
{
layerId = "7D987CB1-A3A8-41AB-9CDC-0258C96D8E25";
paths = (
{
nodes = (
"156 694 LINE",
"628 694 LINE",
"580 467 LINE",
"461 467 LINE",
"484 575 LINE",
"431 575 LINE",
"348 186 LINE",
"353 177 OFFCURVE",
"361 145 OFFCURVE",
"367 137 QCURVE",
"462 137 LINE",
"436 17 LINE",
"282 17 LINE",
"221 152 LINE",
"311 575 LINE",
"250 575 LINE",
"227 467 LINE",
"108 467 LINE"
);
},
{
nodes = (
"292 -17 LINE",
"304 41 LINE",
"393 41 LINE",
"363 -88 LINE",
"220 -88 LINE",
"205 -159 LINE",
"207 -164 OFFCURVE",
"209 -166 OFFCURVE",
"211 -171 QCURVE",
"263 -171 LINE",
"277 -156 LINE",
"283 -133 LINE",
"368 -133 LINE",
"355 -185 LINE",
"289 -250 LINE",
"153 -250 LINE",
"118 -182 LINE",
"149 -45 LINE",
"204 -17 LINE"
);
}
);
width = 493;
}
);
unicode = 0162;
},
{
glyphname = uni021A;
layers = (
{
layerId = "7D987CB1-A3A8-41AB-9CDC-0258C96D8E25";
paths = (
{
nodes = (
"156 694 LINE",
"628 694 LINE",
"580 467 LINE",
"461 467 LINE",
"484 575 LINE",
"431 575 LINE",
"348 186 LINE",
"353 177 OFFCURVE",
"361 145 OFFCURVE",
"367 137 QCURVE",
"462 137 LINE",
"436 17 LINE",
"282 17 LINE",
"221 152 LINE",
"311 575 LINE",
"250 575 LINE",
"227 467 LINE",
"108 467 LINE"
);
},
{
nodes = (
"363 -177 LINE",
"244 -177 LINE",
"274 -9 LINE",
"393 -9 LINE"
);
}
);
width = 493;
}
);
unicode = 021A;
},
{
glyphname = tcommaaccent;
layers = (
{
layerId = "7D987CB1-A3A8-41AB-9CDC-0258C96D8E25";
paths = (
{
nodes = (
"156 694 LINE",
"628 694 LINE",
"580 467 LINE",
"461 467 LINE",
"484 575 LINE",
"431 575 LINE",
"348 186 LINE",
"353 177 OFFCURVE",
"361 145 OFFCURVE",
"367 137 QCURVE",
"462 137 LINE",
"436 17 LINE",
"282 17 LINE",
"221 152 LINE",
"311 575 LINE",
"250 575 LINE",
"227 467 LINE",
"108 467 LINE"
);
},
{
nodes = (
"363 -177 LINE",
"244 -177 LINE",
"274 -9 LINE",
"393 -9 LINE"
);
}
);
width = 493;
}
);
unicode = 0163;
},
{
glyphname = uni021B;
layers = (
{
layerId = "7D987CB1-A3A8-41AB-9CDC-0258C96D8E25";
paths = (
{
nodes = (
"156 694 LINE",
"628 694 LINE",
"580 467 LINE",
"461 467 LINE",
"484 575 LINE",
"431 575 LINE",
"348 186 LINE",
"353 177 OFFCURVE",
"361 145 OFFCURVE",
"367 137 QCURVE",
"462 137 LINE",
"436 17 LINE",
"282 17 LINE",
"221 152 LINE",
"311 575 LINE",
"250 575 LINE",
"227 467 LINE",
"108 467 LINE"
);
},
{
nodes = (
"363 -177 LINE",
"244 -177 LINE",
"274 -9 LINE",
"393 -9 LINE"
);
}
);
width = 493;
}
);
unicode = 021B;
},
{
glyphname = Wgrave;
layers = (
{
layerId = "7D987CB1-A3A8-41AB-9CDC-0258C96D8E25";
paths = (
{
nodes = (
"614 311 LINE",
"695 693 LINE",
"813 693 LINE",
"727 290 LINE",
"727 289 OFFCURVE",
"704 251 OFFCURVE",
"670 194 OFFCURVE",
"629 128 OFFCURVE",
"592 68 OFFCURVE",
"565 23 OFFCURVE",
"562 17 QCURVE",
"392 17 LINE",
"376 161 LINE",
"356 125 OFFCURVE",
"316 52 OFFCURVE",
"297 17 QCURVE",
"128 17 LINE",
"79 289 LINE",
"165 693 LINE",
"282 693 LINE",
"201 311 LINE",
"239 142 LINE",
"350 322 LINE",
"429 693 LINE",
"546 693 LINE",
"467 323 LINE",
"503 140 LINE"
);
},
{
nodes = (
"436 732 LINE",
"367 862 LINE",
"478 862 LINE",
"537 732 LINE"
);
}
);
width = 690;
}
);
unicode = 1E80;
},
{
glyphname = wgrave;
layers = (
{
layerId = "7D987CB1-A3A8-41AB-9CDC-0258C96D8E25";
paths = (
{
nodes = (
"614 311 LINE",
"695 693 LINE",
"813 693 LINE",
"727 290 LINE",
"727 289 OFFCURVE",
"704 251 OFFCURVE",
"670 194 OFFCURVE",
"629 128 OFFCURVE",
"592 68 OFFCURVE",
"565 23 OFFCURVE",
"562 17 QCURVE",
"392 17 LINE",
"376 161 LINE",
"356 125 OFFCURVE",
"316 52 OFFCURVE",
"297 17 QCURVE",
"128 17 LINE",
"79 289 LINE",
"165 693 LINE",
"282 693 LINE",
"201 311 LINE",
"239 142 LINE",
"350 322 LINE",
"429 693 LINE",
"546 693 LINE",
"467 323 LINE",
"503 140 LINE"
);
},
{
nodes = (
"436 732 LINE",
"367 862 LINE",
"478 862 LINE",
"537 732 LINE"
);
}
);
width = 690;
}
);
unicode = 1E81;
},
{
glyphname = Wacute;
layers = (
{
layerId = "7D987CB1-A3A8-41AB-9CDC-0258C96D8E25";
paths = (
{
nodes = (
"614 311 LINE",
"695 693 LINE",
"813 693 LINE",
"727 290 LINE",
"727 289 OFFCURVE",
"704 251 OFFCURVE",
"670 194 OFFCURVE",
"629 128 OFFCURVE",
"592 68 OFFCURVE",
"565 23 OFFCURVE",
"562 17 QCURVE",
"392 17 LINE",
"376 161 LINE",
"356 125 OFFCURVE",
"316 52 OFFCURVE",
"297 17 QCURVE",
"128 17 LINE",
"79 289 LINE",
"165 693 LINE",
"282 693 LINE",
"201 311 LINE",
"239 142 LINE",
"350 322 LINE",
"429 693 LINE",
"546 693 LINE",
"467 323 LINE",
"503 140 LINE"
);
},
{
nodes = (
"424 732 LINE",
"483 862 LINE",
"594 862 LINE",
"525 732 LINE"
);
}
);
width = 690;
}
);
unicode = 1E82;
},
{
glyphname = wacute;
layers = (
{
layerId = "7D987CB1-A3A8-41AB-9CDC-0258C96D8E25";
paths = (
{
nodes = (
"614 311 LINE",
"695 693 LINE",
"813 693 LINE",
"727 290 LINE",
"727 289 OFFCURVE",
"704 251 OFFCURVE",
"670 194 OFFCURVE",
"629 128 OFFCURVE",
"592 68 OFFCURVE",
"565 23 OFFCURVE",
"562 17 QCURVE",
"392 17 LINE",
"376 161 LINE",
"356 125 OFFCURVE",
"316 52 OFFCURVE",
"297 17 QCURVE",
"128 17 LINE",
"79 289 LINE",
"165 693 LINE",
"282 693 LINE",
"201 311 LINE",
"239 142 LINE",
"350 322 LINE",
"429 693 LINE",
"546 693 LINE",
"467 323 LINE",
"503 140 LINE"
);
},
{
nodes = (
"424 732 LINE",
"483 862 LINE",
"594 862 LINE",
"525 732 LINE"
);
}
);
width = 690;
}
);
unicode = 1E83;
},
{
glyphname = Wdieresis;
layers = (
{
layerId = "7D987CB1-A3A8-41AB-9CDC-0258C96D8E25";
paths = (
{
nodes = (
"614 311 LINE",
"695 693 LINE",
"813 693 LINE",
"727 290 LINE",
"727 289 OFFCURVE",
"704 251 OFFCURVE",
"670 194 OFFCURVE",
"629 128 OFFCURVE",
"592 68 OFFCURVE",
"565 23 OFFCURVE",
"562 17 QCURVE",
"392 17 LINE",
"376 161 LINE",
"356 125 OFFCURVE",
"316 52 OFFCURVE",
"297 17 QCURVE",
"128 17 LINE",
"79 289 LINE",
"165 693 LINE",
"282 693 LINE",
"201 311 LINE",
"239 142 LINE",
"350 322 LINE",
"429 693 LINE",
"546 693 LINE",
"467 323 LINE",
"503 140 LINE"
);
},
{
nodes = (
"303 731 LINE",
"329 851 LINE",
"448 851 LINE",
"422 731 LINE"
);
},
{
nodes = (
"502 731 LINE",
"528 851 LINE",
"647 851 LINE",
"621 731 LINE"
);
}
);
width = 690;
}
);
unicode = 1E84;
},
{
glyphname = wdieresis;
layers = (
{
layerId = "7D987CB1-A3A8-41AB-9CDC-0258C96D8E25";
paths = (
{
nodes = (
"614 311 LINE",
"695 693 LINE",
"813 693 LINE",
"727 290 LINE",
"727 289 OFFCURVE",
"704 251 OFFCURVE",
"670 194 OFFCURVE",
"629 128 OFFCURVE",
"592 68 OFFCURVE",
"565 23 OFFCURVE",
"562 17 QCURVE",
"392 17 LINE",
"376 161 LINE",
"356 125 OFFCURVE",
"316 52 OFFCURVE",
"297 17 QCURVE",
"128 17 LINE",
"79 289 LINE",
"165 693 LINE",
"282 693 LINE",
"201 311 LINE",
"239 142 LINE",
"350 322 LINE",
"429 693 LINE",
"546 693 LINE",
"467 323 LINE",
"503 140 LINE"
);
},
{
nodes = (
"303 731 LINE",
"329 851 LINE",
"448 851 LINE",
"422 731 LINE"
);
},
{
nodes = (
"502 731 LINE",
"528 851 LINE",
"647 851 LINE",
"621 731 LINE"
);
}
);
width = 690;
}
);
unicode = 1E85;
},
{
glyphname = Ygrave;
layers = (
{
layerId = "7D987CB1-A3A8-41AB-9CDC-0258C96D8E25";
paths = (
{
nodes = (
"375 471 LINE",
"422 693 LINE",
"542 693 LINE",
"486 432 LINE",
"371 315 LINE",
"333 315 LINE",
"270 17 LINE",
"151 17 LINE",
"214 315 LINE",
"176 315 LINE",
"113 432 LINE",
"169 693 LINE",
"288 693 LINE",
"241 471 LINE",
"245 462 OFFCURVE",
"256 443 OFFCURVE",
"261 433 QCURVE",
"338 433 LINE"
);
},
{
nodes = (
"355 732 LINE",
"286 862 LINE",
"397 862 LINE",
"456 732 LINE"
);
}
);
width = 416;
}
);
unicode = 1EF2;
},
{
glyphname = ygrave;
layers = (
{
layerId = "7D987CB1-A3A8-41AB-9CDC-0258C96D8E25";
paths = (
{
nodes = (
"375 471 LINE",
"422 693 LINE",
"542 693 LINE",
"486 432 LINE",
"371 315 LINE",
"333 315 LINE",
"270 17 LINE",
"151 17 LINE",
"214 315 LINE",
"176 315 LINE",
"113 432 LINE",
"169 693 LINE",
"288 693 LINE",
"241 471 LINE",
"245 462 OFFCURVE",
"256 443 OFFCURVE",
"261 433 QCURVE",
"338 433 LINE"
);
},
{
nodes = (
"355 732 LINE",
"286 862 LINE",
"397 862 LINE",
"456 732 LINE"
);
}
);
width = 416;
}
);
unicode = 1EF3;
},
{
glyphname = Rcaron;
layers = (
{
layerId = "7D987CB1-A3A8-41AB-9CDC-0258C96D8E25";
paths = (
{
nodes = (
"175 693 LINE",
"501 693 LINE",
"563 564 LINE",
"535 432 LINE",
"479 375 LINE",
"487 361 OFFCURVE",
"504 331 OFFCURVE",
"511 317 QCURVE",
"447 17 LINE",
"328 17 LINE",
"384 280 LINE",
"380 288 OFFCURVE",
"367 308 OFFCURVE",
"363 316 QCURVE",
"215 316 LINE",
"187 185 LINE",
"203 137 LINE",
"300 137 LINE",
"274 17 LINE",
"120 17 LINE",
"60 152 LINE"
);
},
{
nodes = (
"425 471 LINE",
"437 528 LINE",
"432 536 OFFCURVE",
"422 567 OFFCURVE",
"418 575 QCURVE",
"270 575 LINE",
"240 434 LINE",
"388 434 LINE"
);
},
{
nodes = (
"333 731 LINE",
"250 858 LINE",
"295 900 LINE",
"376 832 LINE",
"487 890 LINE",
"532 855 LINE",
"438 731 LINE"
);
}
);
width = 469;
}
);
unicode = 0158;
},
{
glyphname = umacron;
layers = (
{
layerId = "7D987CB1-A3A8-41AB-9CDC-0258C96D8E25";
paths = (
{
nodes = (
"295 575 LINE",
"259 528 LINE",
"186 186 LINE",
"366 575 LINE"
);
},
{
nodes = (
"328 137 LINE",
"365 186 LINE",
"438 528 LINE",
"437 529 LINE",
"255 137 LINE"
);
},
{
nodes = (
"176 -34 LINE",
"84 -34 LINE",
"113 29 LINE",
"59 152 LINE",
"146 564 LINE",
"263 693 LINE",
"421 693 LINE",
"443 739 LINE",
"535 739 LINE",
"509 682 LINE",
"564 564 LINE",
"477 152 LINE",
"360 17 LINE",
"199 17 LINE"
);
}
);
width = 472;
}
);
unicode = 016B;
},
{
glyphname = Umacron;
layers = (
{
layerId = "7D987CB1-A3A8-41AB-9CDC-0258C96D8E25";
paths = (
{
nodes = (
"295 575 LINE",
"259 528 LINE",
"186 186 LINE",
"366 575 LINE"
);
},
{
nodes = (
"328 137 LINE",
"365 186 LINE",
"438 528 LINE",
"437 529 LINE",
"255 137 LINE"
);
},
{
nodes = (
"176 -34 LINE",
"84 -34 LINE",
"113 29 LINE",
"59 152 LINE",
"146 564 LINE",
"263 693 LINE",
"421 693 LINE",
"443 739 LINE",
"535 739 LINE",
"509 682 LINE",
"564 564 LINE",
"477 152 LINE",
"360 17 LINE",
"199 17 LINE"
);
}
);
width = 472;
}
);
unicode = 016A;
},
{
glyphname = Oslashacute;
layers = (
{
layerId = "7D987CB1-A3A8-41AB-9CDC-0258C96D8E25";
paths = (
{
nodes = (
"295 575 LINE",
"259 528 LINE",
"186 186 LINE",
"366 575 LINE"
);
},
{
nodes = (
"328 137 LINE",
"365 186 LINE",
"438 528 LINE",
"437 529 LINE",
"255 137 LINE"
);
},
{
nodes = (
"176 -34 LINE",
"84 -34 LINE",
"113 29 LINE",
"59 152 LINE",
"146 564 LINE",
"263 693 LINE",
"421 693 LINE",
"443 739 LINE",
"535 739 LINE",
"509 682 LINE",
"564 564 LINE",
"477 152 LINE",
"360 17 LINE",
"199 17 LINE"
);
},
{
nodes = (
"306 732 LINE",
"365 862 LINE",
"476 862 LINE",
"407 732 LINE"
);
}
);
width = 460;
}
);
unicode = 01FE;
},
{
glyphname = utilde;
layers = (
{
layerId = "7D987CB1-A3A8-41AB-9CDC-0258C96D8E25";
paths = (
{
nodes = (
"351 186 LINE",
"459 693 LINE",
"577 693 LINE",
"462 152 LINE",
"345 17 LINE",
"116 17 LINE",
"57 152 LINE",
"172 693 LINE",
"291 693 LINE",
"183 186 LINE",
"200 137 LINE",
"313 137 LINE"
);
},
{
nodes = (
"185 765 LINE",
"194 785 OFFCURVE",
"218 825 OFFCURVE",
"248 856 OFFCURVE",
"286 876 OFFCURVE",
"309 876 QCURVE SMOOTH",
"331 876 OFFCURVE",
"374 854 OFFCURVE",
"391 842 QCURVE SMOOTH",
"409 830 OFFCURVE",
"422 827 OFFCURVE",
"425 827 QCURVE SMOOTH",
"436 827 OFFCURVE",
"451 848 OFFCURVE",
"467 876 QCURVE",
"551 843 LINE",
"541 823 OFFCURVE",
"518 784 OFFCURVE",
"488 752 OFFCURVE",
"450 732 OFFCURVE",
"426 732 QCURVE SMOOTH",
"404 732 OFFCURVE",
"360 755 OFFCURVE",
"343 766 QCURVE SMOOTH",
"332 773 OFFCURVE",
"316 784 OFFCURVE",
"303 784 OFFCURVE",
"291 772 OFFCURVE",
"284 757 QCURVE SMOOTH",
"282 752 OFFCURVE",
"273 733 OFFCURVE",
"271 729 QCURVE"
);
}
);
width = 457;
}
);
unicode = 0169;
},
{
glyphname = Utilde;
layers = (
{
layerId = "7D987CB1-A3A8-41AB-9CDC-0258C96D8E25";
paths = (
{
nodes = (
"351 186 LINE",
"459 693 LINE",
"577 693 LINE",
"462 152 LINE",
"345 17 LINE",
"116 17 LINE",
"57 152 LINE",
"172 693 LINE",
"291 693 LINE",
"183 186 LINE",
"200 137 LINE",
"313 137 LINE"
);
},
{
nodes = (
"185 765 LINE",
"194 785 OFFCURVE",
"218 825 OFFCURVE",
"248 856 OFFCURVE",
"286 876 OFFCURVE",
"309 876 QCURVE SMOOTH",
"331 876 OFFCURVE",
"374 854 OFFCURVE",
"391 842 QCURVE SMOOTH",
"409 830 OFFCURVE",
"422 827 OFFCURVE",
"425 827 QCURVE SMOOTH",
"436 827 OFFCURVE",
"451 848 OFFCURVE",
"467 876 QCURVE",
"551 843 LINE",
"541 823 OFFCURVE",
"518 784 OFFCURVE",
"488 752 OFFCURVE",
"450 732 OFFCURVE",
"426 732 QCURVE SMOOTH",
"404 732 OFFCURVE",
"360 755 OFFCURVE",
"343 766 QCURVE SMOOTH",
"332 773 OFFCURVE",
"316 784 OFFCURVE",
"303 784 OFFCURVE",
"291 772 OFFCURVE",
"284 757 QCURVE SMOOTH",
"282 752 OFFCURVE",
"273 733 OFFCURVE",
"271 729 QCURVE"
);
}
);
width = 457;
}
);
unicode = 0168;
},
{
glyphname = tbar;
layers = (
{
layerId = "7D987CB1-A3A8-41AB-9CDC-0258C96D8E25";
paths = (
{
nodes = (
"156 694 LINE",
"628 694 LINE",
"580 467 LINE",
"461 467 LINE",
"484 575 LINE",
"431 575 LINE",
"348 186 LINE",
"353 177 OFFCURVE",
"361 145 OFFCURVE",
"367 137 QCURVE",
"462 137 LINE",
"436 17 LINE",
"282 17 LINE",
"221 152 LINE",
"311 575 LINE",
"250 575 LINE",
"227 467 LINE",
"108 467 LINE"
);
},
{
nodes = (
"174 286 LINE",
"200 406 LINE",
"482 406 LINE",
"456 286 LINE"
);
}
);
width = 493;
}
);
unicode = 0167;
},
{
glyphname = Tbar;
layers = (
{
layerId = "7D987CB1-A3A8-41AB-9CDC-0258C96D8E25";
paths = (
{
nodes = (
"156 694 LINE",
"628 694 LINE",
"580 467 LINE",
"461 467 LINE",
"484 575 LINE",
"431 575 LINE",
"348 186 LINE",
"353 177 OFFCURVE",
"361 145 OFFCURVE",
"367 137 QCURVE",
"462 137 LINE",
"436 17 LINE",
"282 17 LINE",
"221 152 LINE",
"311 575 LINE",
"250 575 LINE",
"227 467 LINE",
"108 467 LINE"
);
},
{
nodes = (
"174 286 LINE",
"200 406 LINE",
"482 406 LINE",
"456 286 LINE"
);
}
);
width = 493;
}
);
unicode = 0166;
},
{
glyphname = Ubreve;
layers = (
{
layerId = "7D987CB1-A3A8-41AB-9CDC-0258C96D8E25";
paths = (
{
nodes = (
"351 186 LINE",
"459 693 LINE",
"577 693 LINE",
"462 152 LINE",
"345 17 LINE",
"116 17 LINE",
"57 152 LINE",
"172 693 LINE",
"291 693 LINE",
"183 186 LINE",
"200 137 LINE",
"313 137 LINE"
);
},
{
nodes = (
"461 731 LINE",
"293 731 LINE",
"245 857 LINE",
"254 896 LINE",
"355 896 LINE",
"352 881 LINE",
"364 848 LINE",
"431 848 LINE",
"475 881 LINE",
"479 896 LINE",
"566 896 LINE",
"556 857 LINE"
);
}
);
width = 457;
}
);
unicode = 016C;
},
{
glyphname = ubreve;
layers = (
{
layerId = "7D987CB1-A3A8-41AB-9CDC-0258C96D8E25";
paths = (
{
nodes = (
"351 186 LINE",
"459 693 LINE",
"577 693 LINE",
"462 152 LINE",
"345 17 LINE",
"116 17 LINE",
"57 152 LINE",
"172 693 LINE",
"291 693 LINE",
"183 186 LINE",
"200 137 LINE",
"313 137 LINE"
);
},
{
nodes = (
"461 731 LINE",
"293 731 LINE",
"245 857 LINE",
"254 896 LINE",
"355 896 LINE",
"352 881 LINE",
"364 848 LINE",
"431 848 LINE",
"475 881 LINE",
"479 896 LINE",
"566 896 LINE",
"556 857 LINE"
);
}
);
width = 457;
}
);
unicode = 016D;
},
{
glyphname = uogonek;
layers = (
{
layerId = "7D987CB1-A3A8-41AB-9CDC-0258C96D8E25";
paths = (
{
nodes = (
"351 186 LINE",
"459 693 LINE",
"577 693 LINE",
"462 152 LINE",
"345 17 LINE",
"116 17 LINE",
"57 152 LINE",
"172 693 LINE",
"291 693 LINE",
"183 186 LINE",
"200 137 LINE",
"313 137 LINE"
);
},
{
nodes = (
"189 -17 LINE",
"201 41 LINE",
"290 41 LINE",
"260 -88 LINE",
"117 -88 LINE",
"102 -159 LINE",
"104 -164 OFFCURVE",
"106 -166 OFFCURVE",
"108 -171 QCURVE",
"160 -171 LINE",
"174 -156 LINE",
"180 -133 LINE",
"265 -133 LINE",
"252 -185 LINE",
"186 -250 LINE",
"50 -250 LINE",
"15 -182 LINE",
"46 -45 LINE",
"101 -17 LINE"
);
}
);
width = 457;
}
);
unicode = 0173;
},
{
glyphname = Uogonek;
layers = (
{
layerId = "7D987CB1-A3A8-41AB-9CDC-0258C96D8E25";
paths = (
{
nodes = (
"351 186 LINE",
"459 693 LINE",
"577 693 LINE",
"462 152 LINE",
"345 17 LINE",
"116 17 LINE",
"57 152 LINE",
"172 693 LINE",
"291 693 LINE",
"183 186 LINE",
"200 137 LINE",
"313 137 LINE"
);
},
{
nodes = (
"189 -17 LINE",
"201 41 LINE",
"290 41 LINE",
"260 -88 LINE",
"117 -88 LINE",
"102 -159 LINE",
"104 -164 OFFCURVE",
"106 -166 OFFCURVE",
"108 -171 QCURVE",
"160 -171 LINE",
"174 -156 LINE",
"180 -133 LINE",
"265 -133 LINE",
"252 -185 LINE",
"186 -250 LINE",
"50 -250 LINE",
"15 -182 LINE",
"46 -45 LINE",
"101 -17 LINE"
);
}
);
width = 457;
}
);
unicode = 0172;
},
{
glyphname = wcircumflex;
layers = (
{
layerId = "7D987CB1-A3A8-41AB-9CDC-0258C96D8E25";
paths = (
{
nodes = (
"614 311 LINE",
"695 693 LINE",
"813 693 LINE",
"727 290 LINE",
"727 289 OFFCURVE",
"704 251 OFFCURVE",
"670 194 OFFCURVE",
"629 128 OFFCURVE",
"592 68 OFFCURVE",
"565 23 OFFCURVE",
"562 17 QCURVE",
"392 17 LINE",
"376 161 LINE",
"356 125 OFFCURVE",
"316 52 OFFCURVE",
"297 17 QCURVE",
"128 17 LINE",
"79 289 LINE",
"165 693 LINE",
"282 693 LINE",
"201 311 LINE",
"239 142 LINE",
"350 322 LINE",
"429 693 LINE",
"546 693 LINE",
"467 323 LINE",
"503 140 LINE"
);
},
{
nodes = (
"338 732 LINE",
"428 867 LINE",
"542 867 LINE",
"452 732 LINE"
);
},
{
nodes = (
"564 732 LINE",
"505 867 LINE",
"620 867 LINE",
"678 732 LINE"
);
}
);
width = 690;
}
);
unicode = 0175;
},
{
glyphname = Wcircumflex;
layers = (
{
layerId = "7D987CB1-A3A8-41AB-9CDC-0258C96D8E25";
paths = (
{
nodes = (
"614 311 LINE",
"695 693 LINE",
"813 693 LINE",
"727 290 LINE",
"727 289 OFFCURVE",
"704 251 OFFCURVE",
"670 194 OFFCURVE",
"629 128 OFFCURVE",
"592 68 OFFCURVE",
"565 23 OFFCURVE",
"562 17 QCURVE",
"392 17 LINE",
"376 161 LINE",
"356 125 OFFCURVE",
"316 52 OFFCURVE",
"297 17 QCURVE",
"128 17 LINE",
"79 289 LINE",
"165 693 LINE",
"282 693 LINE",
"201 311 LINE",
"239 142 LINE",
"350 322 LINE",
"429 693 LINE",
"546 693 LINE",
"467 323 LINE",
"503 140 LINE"
);
},
{
nodes = (
"338 732 LINE",
"428 867 LINE",
"542 867 LINE",
"452 732 LINE"
);
},
{
nodes = (
"564 732 LINE",
"505 867 LINE",
"620 867 LINE",
"678 732 LINE"
);
}
);
width = 690;
}
);
unicode = 0174;
},
{
glyphname = Uring;
layers = (
{
layerId = "7D987CB1-A3A8-41AB-9CDC-0258C96D8E25";
paths = (
{
nodes = (
"351 186 LINE",
"459 693 LINE",
"577 693 LINE",
"462 152 LINE",
"345 17 LINE",
"116 17 LINE",
"57 152 LINE",
"172 693 LINE",
"291 693 LINE",
"183 186 LINE",
"200 137 LINE",
"313 137 LINE"
);
},
{
nodes = (
"461 731 LINE",
"293 731 LINE",
"245 857 LINE",
"254 896 LINE",
"355 896 LINE",
"352 881 LINE",
"364 848 LINE",
"431 848 LINE",
"475 881 LINE",
"479 896 LINE",
"566 896 LINE",
"556 857 LINE"
);
}
);
width = 457;
}
);
unicode = 016E;
},
{
glyphname = uring;
layers = (
{
layerId = "7D987CB1-A3A8-41AB-9CDC-0258C96D8E25";
paths = (
{
nodes = (
"351 186 LINE",
"459 693 LINE",
"577 693 LINE",
"462 152 LINE",
"345 17 LINE",
"116 17 LINE",
"57 152 LINE",
"172 693 LINE",
"291 693 LINE",
"183 186 LINE",
"200 137 LINE",
"313 137 LINE"
);
},
{
nodes = (
"461 731 LINE",
"293 731 LINE",
"245 857 LINE",
"254 896 LINE",
"355 896 LINE",
"352 881 LINE",
"364 848 LINE",
"431 848 LINE",
"475 881 LINE",
"479 896 LINE",
"566 896 LINE",
"556 857 LINE"
);
}
);
width = 457;
}
);
unicode = 016F;
},
